STARTFONT 2.1
FONT -FontForge-Open Sans-Bold-R-Normal-Sans--32-320-72-72-P-198-ISO10646-1
SIZE 32 72 72
FONTBOUNDINGBOX 62 43 -20 -9
COMMENT "Generated by fontforge, http://fontforge.sourceforge.net"
COMMENT "Digitized data copyright (c) 2010-2011, Google Corporation."
STARTPROPERTIES 40
FOUNDRY "FontForge"
FAMILY_NAME "Open Sans"
WEIGHT_NAME "Bold"
SLANT "R"
SETWIDTH_NAME "Normal"
ADD_STYLE_NAME "Sans"
PIXEL_SIZE 32
POINT_SIZE 320
RESOLUTION_X 72
RESOLUTION_Y 72
SPACING "P"
AVERAGE_WIDTH 198
CHARSET_REGISTRY "ISO10646"
CHARSET_ENCODING "1"
FONTNAME_REGISTRY ""
CHARSET_COLLECTIONS "ISO8859-2 ISO8859-5 ISO8859-7 ISO8859-9 ISO8859-4 ISO10646-1"
FONT_NAME "OpenSans-Bold"
FACE_NAME "Open Sans Bold"
COPYRIGHT "Digitized data copyright (c) 2010-2011, Google Corporation."
FONT_VERSION "1.10"
FONT_ASCENT 26
FONT_DESCENT 6
UNDERLINE_POSITION -3
UNDERLINE_THICKNESS 2
X_HEIGHT 16
CAP_HEIGHT 22
RAW_ASCENT 799
RAW_DESCENT 200
NORM_SPACE 8
RELATIVE_WEIGHT 70
RELATIVE_SETWIDTH 50
SUPERSCRIPT_X 0
SUPERSCRIPT_Y 15
SUPERSCRIPT_SIZE 20
SUBSCRIPT_X 0
SUBSCRIPT_Y 4
SUBSCRIPT_SIZE 20
FIGURE_WIDTH 18
AVG_LOWERCASE_WIDTH 199
AVG_UPPERCASE_WIDTH 226
ENDPROPERTIES
CHARS 938
STARTCHAR space
ENCODING 32
SWIDTH 259 0
DWIDTH 8 0
BBX 1 1 0 0
BITMAP
00
ENDCHAR
STARTCHAR exclam
ENCODING 33
SWIDTH 286 0
DWIDTH 9 0
BBX 5 23 2 0
BITMAP
F8
F8
F8
F8
F8
F8
F8
F8
F8
F8
F8
F8
78
78
78
00
00
00
70
F8
F8
F8
70
ENDCHAR
STARTCHAR quotedbl
ENCODING 34
SWIDTH 472 0
DWIDTH 15 0
BBX 11 8 2 15
BITMAP
F1E0
F1E0
F1E0
F1E0
F1E0
70E0
70E0
70E0
ENDCHAR
STARTCHAR numbersign
ENCODING 35
SWIDTH 645 0
DWIDTH 21 0
BBX 19 23 1 0
BITMAP
01C780
03C700
03C700
038700
038F00
038F00
7FFFE0
7FFFE0
7FFFE0
071E00
071E00
0F1C00
0F1C00
FFFFC0
FFFFC0
FFFFC0
1E3800
1E3800
1C3800
1C7800
1C7800
1C7800
3C7000
ENDCHAR
STARTCHAR dollar
ENCODING 36
SWIDTH 570 0
DWIDTH 18 0
BBX 16 26 1 -2
BITMAP
0180
0180
07F8
1FFE
7FFE
7FFE
FD8C
F980
F980
7F80
7F80
3FE0
1FF8
07FE
01FE
01BF
019F
819F
F1BF
FFFE
FFFE
FFFC
1FE0
0180
0180
0180
ENDCHAR
STARTCHAR percent
ENCODING 37
SWIDTH 900 0
DWIDTH 29 0
BBX 27 23 1 0
BITMAP
1F003800
3F807800
7FC07000
FBC0F000
F1E1E000
F1E1E000
F1E3C000
F1E3C000
F1E78000
F1E71F00
FBCF3F80
7FCE7FC0
3F9E7BC0
1F3CF1E0
003CF1E0
0078F1E0
0078F1E0
00F0F1E0
00E0F1E0
01E07BE0
01C07FC0
03C03F80
07801F00
ENDCHAR
STARTCHAR ampersand
ENCODING 38
SWIDTH 750 0
DWIDTH 24 0
BBX 22 23 1 0
BITMAP
03F000
0FFC00
1FFE00
1FFE00
3E3E00
3E1E00
3E1E00
1E3E00
1FFC00
0FF800
0FF000
1FE07C
3FF07C
7FF8F8
7CFCF8
F83FF0
F81FF0
FC0FE0
FE0FC0
7FFFE0
3FFFF0
1FFEF8
07F07C
ENDCHAR
STARTCHAR quotesingle
ENCODING 39
SWIDTH 266 0
DWIDTH 9 0
BBX 4 8 2 15
BITMAP
F0
F0
F0
F0
F0
70
70
70
ENDCHAR
STARTCHAR parenleft
ENCODING 40
SWIDTH 338 0
DWIDTH 11 0
BBX 9 28 1 -5
BITMAP
0780
0F00
1E00
1E00
3E00
3C00
3C00
7800
7800
7800
7800
7800
F800
F800
F800
F800
7800
7800
7800
7800
7800
3C00
3C00
3C00
1E00
1E00
0F00
0780
ENDCHAR
STARTCHAR parenright
ENCODING 41
SWIDTH 338 0
DWIDTH 11 0
BBX 9 28 1 -5
BITMAP
F000
7800
3C00
3C00
3E00
1E00
1E00
0F00
0F00
0F00
0F00
0F00
0F00
0F80
0F80
0F80
0F00
0F00
0F00
0F00
0F00
1E00
1E00
1E00
3C00
3C00
7800
F000
ENDCHAR
STARTCHAR asterisk
ENCODING 42
SWIDTH 544 0
DWIDTH 17 0
BBX 15 15 1 9
BITMAP
0780
0380
0380
0380
C386
FBBE
FFFE
FFFE
07C0
0FE0
0EE0
1EF0
3C78
3C78
0C20
ENDCHAR
STARTCHAR plus
ENCODING 43
SWIDTH 570 0
DWIDTH 18 0
BBX 16 15 1 4
BITMAP
03C0
03C0
03C0
03C0
03C0
03C0
FFFF
FFFF
FFFF
03C0
03C0
03C0
03C0
03C0
03C0
ENDCHAR
STARTCHAR comma
ENCODING 44
SWIDTH 290 0
DWIDTH 9 0
BBX 6 8 1 -4
BITMAP
7C
7C
7C
78
78
70
F0
F0
ENDCHAR
STARTCHAR hyphen
ENCODING 45
SWIDTH 321 0
DWIDTH 10 0
BBX 8 4 1 7
BITMAP
FF
FF
FF
FF
ENDCHAR
STARTCHAR period
ENCODING 46
SWIDTH 285 0
DWIDTH 9 0
BBX 5 5 2 0
BITMAP
70
F8
F8
F8
70
ENDCHAR
STARTCHAR slash
ENCODING 47
SWIDTH 413 0
DWIDTH 13 0
BBX 13 23 0 0
BITMAP
00F8
00F0
00F0
01F0
01E0
01E0
03E0
03C0
07C0
0780
0780
0F80
0F00
0F00
1F00
1E00
1E00
3E00
3C00
7C00
7800
7800
F800
ENDCHAR
STARTCHAR zero
ENCODING 48
SWIDTH 570 0
DWIDTH 18 0
BBX 16 23 1 0
BITMAP
07E0
1FF8
3FFC
3FFC
7E7E
7C3E
781E
F81F
F81F
F81F
F81F
F81F
F81F
F81F
F81F
F81F
781E
7C3E
7E7E
3FFC
3FFC
1FF8
07E0
ENDCHAR
STARTCHAR one
ENCODING 49
SWIDTH 570 0
DWIDTH 18 0
BBX 11 23 2 0
BITMAP
03E0
07E0
0FE0
1FE0
7FE0
FFE0
FBE0
73E0
03E0
03E0
03E0
03E0
03E0
03E0
03E0
03E0
03E0
03E0
03E0
03E0
03E0
03E0
03E0
ENDCHAR
STARTCHAR two
ENCODING 50
SWIDTH 570 0
DWIDTH 18 0
BBX 16 23 1 0
BITMAP
07E0
3FF8
7FFC
FFFE
7C3E
303E
001E
003E
003E
003E
007C
00FC
01F8
03F0
07E0
0FC0
1F80
3F00
7E00
FFFF
FFFF
FFFF
FFFF
ENDCHAR
STARTCHAR three
ENCODING 51
SWIDTH 570 0
DWIDTH 18 0
BBX 16 23 1 0
BITMAP
0FE0
7FF8
FFFC
7FFE
387E
203E
003E
003E
007C
0FF8
0FE0
0FF8
0FFC
007E
003F
001F
001F
003F
E07E
FFFE
FFFC
FFF8
1FE0
ENDCHAR
STARTCHAR four
ENCODING 52
SWIDTH 570 0
DWIDTH 18 0
BBX 17 23 1 0
BITMAP
007C00
00FC00
00FC00
01FC00
03FC00
03FC00
07FC00
0F7C00
0E7C00
1E7C00
3C7C00
387C00
787C00
F07C00
FFFF80
FFFF80
FFFF80
FFFF80
007C00
007C00
007C00
007C00
007C00
ENDCHAR
STARTCHAR five
ENCODING 53
SWIDTH 570 0
DWIDTH 18 0
BBX 15 23 2 0
BITMAP
7FF8
7FF8
7FF8
7FF8
F800
F800
F800
F800
FFE0
FFF0
FFF8
FFFC
00FC
007C
003E
003E
003C
007C
C0FC
FFF8
FFF8
FFE0
3F80
ENDCHAR
STARTCHAR six
ENCODING 54
SWIDTH 570 0
DWIDTH 18 0
BBX 16 23 1 0
BITMAP
01FC
07FC
0FFC
1FFC
3F00
7C00
7C00
7800
79F0
FBFC
FFFE
FFFE
FC3F
F81F
F81F
F81F
F81F
7C1F
7E3E
3FFE
3FFC
1FF8
07F0
ENDCHAR
STARTCHAR seven
ENCODING 55
SWIDTH 570 0
DWIDTH 18 0
BBX 16 23 1 0
BITMAP
FFFF
FFFF
FFFF
FFFF
001E
003E
003E
007C
007C
00F8
00F8
00F0
01F0
01F0
03E0
03E0
07C0
07C0
0F80
0F80
0F80
1F00
1F00
ENDCHAR
STARTCHAR eight
ENCODING 56
SWIDTH 570 0
DWIDTH 18 0
BBX 16 23 1 0
BITMAP
07E0
1FF8
3FFC
7C3E
7C3E
781E
7C3E
7C3E
3E7C
3FF8
0FF0
0FF0
3FFC
7E7E
7C3E
F81F
F81F
F81F
F81F
7C3E
7FFE
3FF8
0FE0
ENDCHAR
STARTCHAR nine
ENCODING 57
SWIDTH 570 0
DWIDTH 18 0
BBX 16 23 1 0
BITMAP
07E0
1FF8
3FFC
7FFC
7C7E
F83E
F81F
F81F
F81F
F81F
FC3F
7FFF
7FFF
3FDF
0F9E
001E
003E
003E
00FC
3FF8
3FF0
3FE0
3F80
ENDCHAR
STARTCHAR colon
ENCODING 58
SWIDTH 285 0
DWIDTH 9 0
BBX 5 17 2 0
BITMAP
70
F8
F8
F8
70
00
00
00
00
00
00
00
70
F8
F8
F8
70
ENDCHAR
STARTCHAR semicolon
ENCODING 59
SWIDTH 290 0
DWIDTH 9 0
BBX 6 21 1 -4
BITMAP
38
7C
7C
7C
38
00
00
00
00
00
00
00
00
7C
7C
7C
78
78
70
F0
F0
ENDCHAR
STARTCHAR less
ENCODING 60
SWIDTH 570 0
DWIDTH 18 0
BBX 16 17 1 3
BITMAP
0003
000F
003F
00FF
03FC
0FF0
3F80
FE00
F800
FF00
3FC0
0FF0
03FE
007F
001F
0007
0001
ENDCHAR
STARTCHAR equal
ENCODING 61
SWIDTH 570 0
DWIDTH 18 0
BBX 16 9 1 7
BITMAP
FFFF
FFFF
FFFF
0000
0000
0000
FFFF
FFFF
FFFF
ENDCHAR
STARTCHAR greater
ENCODING 62
SWIDTH 570 0
DWIDTH 18 0
BBX 16 17 1 3
BITMAP
C000
F000
FC00
FF00
3FC0
0FF0
01FC
007F
001F
00FF
03FC
0FF0
7FC0
FE00
F800
E000
8000
ENDCHAR
STARTCHAR question
ENCODING 63
SWIDTH 477 0
DWIDTH 15 0
BBX 14 23 0 0
BITMAP
0FE0
7FF0
FFF8
7FFC
707C
003C
003C
007C
00F8
01F0
03E0
07C0
0F80
0F80
0F00
0000
0000
0000
0700
0F80
0F80
0F80
0700
ENDCHAR
STARTCHAR at
ENCODING 64
SWIDTH 896 0
DWIDTH 29 0
BBX 25 25 2 -2
BITMAP
007F8000
01FFF000
07FFF800
0FC07E00
1E001E00
3C000F00
783FC780
78FFE780
F1FFE380
F3E1E380
E3C1E380
E381E380
E381E380
E381E380
E381E780
E3C3E780
E3FFFF00
F1FEFE00
707C3C00
78000000
3C000000
3F007000
0FFFF000
07FFF000
00FF8000
ENDCHAR
STARTCHAR A
ENCODING 65
SWIDTH 689 0
DWIDTH 22 0
BBX 22 23 0 0
BITMAP
00FC00
01FC00
01FE00
01FE00
03FF00
03CF00
03CF00
07CF80
078780
078780
0F87C0
0F87C0
0F03C0
1FFFE0
1FFFE0
1FFFE0
3FFFF0
3E01F0
3C00F0
7C00F8
7C00F8
7C00F8
F8007C
ENDCHAR
STARTCHAR B
ENCODING 66
SWIDTH 671 0
DWIDTH 22 0
BBX 17 23 3 0
BITMAP
FFF000
FFFE00
FFFF00
FFFF00
F81F80
F80F80
F80F80
F80F80
F81F00
FFFE00
FFFC00
FFFE00
FFFF00
F81F80
F80F80
F80F80
F80F80
F80F80
F81F80
FFFF00
FFFF00
FFFE00
FFF000
ENDCHAR
STARTCHAR C
ENCODING 67
SWIDTH 637 0
DWIDTH 20 0
BBX 17 23 2 0
BITMAP
01FC00
07FF80
1FFF80
3FFF00
3F0700
7E0000
7C0000
F80000
F80000
F80000
F80000
F80000
F80000
F80000
F80000
F80000
7C0000
7E0000
7F0300
3FFF00
1FFF00
0FFF00
03FC00
ENDCHAR
STARTCHAR D
ENCODING 68
SWIDTH 740 0
DWIDTH 24 0
BBX 19 23 3 0
BITMAP
FFE000
FFFC00
FFFE00
FFFF00
F83F80
F80FC0
F807C0
F807E0
F803E0
F803E0
F803E0
F803E0
F803E0
F803E0
F803E0
F807E0
F807C0
F80FC0
F83F80
FFFF00
FFFE00
FFFC00
FFE000
ENDCHAR
STARTCHAR E
ENCODING 69
SWIDTH 560 0
DWIDTH 18 0
BBX 13 23 3 0
BITMAP
FFF8
FFF8
FFF8
FFF8
F800
F800
F800
F800
F800
FFF8
FFF8
FFF8
FFF8
F800
F800
F800
F800
F800
F800
FFF8
FFF8
FFF8
FFF8
ENDCHAR
STARTCHAR F
ENCODING 70
SWIDTH 548 0
DWIDTH 18 0
BBX 13 23 3 0
BITMAP
FFF8
FFF8
FFF8
FFF8
F800
F800
F800
F800
F800
F800
FFF8
FFF8
FFF8
FFF8
F800
F800
F800
F800
F800
F800
F800
F800
F800
ENDCHAR
STARTCHAR G
ENCODING 71
SWIDTH 724 0
DWIDTH 23 0
BBX 18 23 2 0
BITMAP
00FF00
07FFC0
0FFFC0
1FFFC0
3F8180
7E0000
7C0000
FC0000
F80000
F80000
F87FC0
F87FC0
F87FC0
F87FC0
F803C0
F803C0
7C03C0
7E03C0
7F03C0
3FFFC0
1FFFC0
0FFFC0
03FE00
ENDCHAR
STARTCHAR H
ENCODING 72
SWIDTH 765 0
DWIDTH 24 0
BBX 18 23 3 0
BITMAP
F807C0
F807C0
F807C0
F807C0
F807C0
F807C0
F807C0
F807C0
F807C0
FFFFC0
FFFFC0
FFFFC0
FFFFC0
F807C0
F807C0
F807C0
F807C0
F807C0
F807C0
F807C0
F807C0
F807C0
F807C0
ENDCHAR
STARTCHAR I
ENCODING 73
SWIDTH 331 0
DWIDTH 11 0
BBX 5 23 3 0
BITMAP
F8
F8
F8
F8
F8
F8
F8
F8
F8
F8
F8
F8
F8
F8
F8
F8
F8
F8
F8
F8
F8
F8
F8
ENDCHAR
STARTCHAR J
ENCODING 74
SWIDTH 331 0
DWIDTH 11 0
BBX 10 30 -2 -7
BITMAP
07C0
07C0
07C0
07C0
07C0
07C0
07C0
07C0
07C0
07C0
07C0
07C0
07C0
07C0
07C0
07C0
07C0
07C0
07C0
07C0
07C0
07C0
07C0
07C0
0F80
0F80
FF80
FF00
FE00
FC00
ENDCHAR
STARTCHAR K
ENCODING 75
SWIDTH 664 0
DWIDTH 21 0
BBX 18 23 3 0
BITMAP
F80FC0
F81F80
F81F00
F83E00
F87E00
F8FC00
F8F800
F9F000
FBE000
FFE000
FFC000
FFE000
FFF000
FDF000
F9F800
F8F800
F87C00
F87E00
F83E00
F83F00
F81F00
F80F80
F80FC0
ENDCHAR
STARTCHAR L
ENCODING 76
SWIDTH 564 0
DWIDTH 18 0
BBX 14 23 3 0
BITMAP
F800
F800
F800
F800
F800
F800
F800
F800
F800
F800
F800
F800
F800
F800
F800
F800
F800
F800
F800
FFFC
FFFC
FFFC
FFFC
ENDCHAR
STARTCHAR M
ENCODING 77
SWIDTH 942 0
DWIDTH 30 0
BBX 24 23 3 0
BITMAP
FE007F
FE007F
FE007F
FF00FF
FF00FF
FF00FF
F701EF
F781EF
F781EF
F783CF
F3C3CF
F3C3CF
F3C38F
F1E78F
F1E78F
F1E70F
F0EF0F
F0FF0F
F0FE0F
F0FE0F
F07E0F
F07C0F
F07C0F
ENDCHAR
STARTCHAR N
ENCODING 78
SWIDTH 812 0
DWIDTH 26 0
BBX 20 23 3 0
BITMAP
FC00F0
FE00F0
FE00F0
FF00F0
FF80F0
FF80F0
F7C0F0
F7C0F0
F3E0F0
F3E0F0
F1F0F0
F1F8F0
F0F8F0
F07CF0
F07CF0
F03EF0
F03EF0
F01FF0
F01FF0
F00FF0
F007F0
F007F0
F003F0
ENDCHAR
STARTCHAR O
ENCODING 79
SWIDTH 795 0
DWIDTH 25 0
BBX 21 23 2 0
BITMAP
01FC00
0FFF80
1FFFC0
3FFFE0
7F07F0
7E03F0
7C01F0
FC01F8
F800F8
F800F8
F800F8
F800F8
F800F8
F800F8
F800F8
F801F8
7C01F0
7E03F0
7F07F0
3FFFE0
1FFFC0
0FFF80
01FC00
ENDCHAR
STARTCHAR P
ENCODING 80
SWIDTH 627 0
DWIDTH 20 0
BBX 16 23 3 0
BITMAP
FFE0
FFF8
FFFC
FFFE
F87E
F83E
F81F
F81F
F81E
F83E
F87E
FFFE
FFFC
FFF8
FFE0
F800
F800
F800
F800
F800
F800
F800
F800
ENDCHAR
STARTCHAR Q
ENCODING 81
SWIDTH 795 0
DWIDTH 25 0
BBX 21 28 2 -5
BITMAP
01FC00
0FFF80
1FFFC0
3FFFE0
7F07F0
7E03F0
7C01F0
FC01F8
F800F8
F800F8
F800F8
F800F8
F800F8
F800F8
F800F8
F801F8
7C01F0
7E03F0
7F07F0
3FFFE0
1FFFC0
0FFF80
01FF00
001F80
000FC0
0007E0
0003F0
0003F8
ENDCHAR
STARTCHAR R
ENCODING 82
SWIDTH 660 0
DWIDTH 21 0
BBX 18 23 3 0
BITMAP
FFE000
FFF800
FFFC00
FFFE00
F87E00
F83E00
F81F00
F81F00
F83E00
F87E00
FFFC00
FFF800
FFF000
FFF000
F8F000
F8F800
F87C00
F87C00
F83E00
F81F00
F81F00
F80F80
F80FC0
ENDCHAR
STARTCHAR S
ENCODING 83
SWIDTH 550 0
DWIDTH 18 0
BBX 16 23 1 0
BITMAP
07F0
1FFE
3FFE
7FFE
7E0C
7C00
7C00
7C00
7E00
3F80
3FE0
0FF8
07FC
01FE
007E
001F
001F
801F
F03E
FFFE
FFFC
FFF8
1FE0
ENDCHAR
STARTCHAR T
ENCODING 84
SWIDTH 579 0
DWIDTH 19 0
BBX 17 23 1 0
BITMAP
FFFF80
FFFF80
FFFF80
FFFF80
03E000
03E000
03E000
03E000
03E000
03E000
03E000
03E000
03E000
03E000
03E000
03E000
03E000
03E000
03E000
03E000
03E000
03E000
03E000
ENDCHAR
STARTCHAR U
ENCODING 85
SWIDTH 755 0
DWIDTH 24 0
BBX 18 23 3 0
BITMAP
F807C0
F807C0
F807C0
F807C0
F807C0
F807C0
F807C0
F807C0
F807C0
F807C0
F807C0
F807C0
F807C0
F807C0
F807C0
F807C0
F807C0
F807C0
FE1F80
7FFF80
3FFF00
1FFE00
07F800
ENDCHAR
STARTCHAR V
ENCODING 86
SWIDTH 649 0
DWIDTH 21 0
BBX 21 23 0 0
BITMAP
F800F8
7800F8
7C01F0
7C01F0
3C01E0
3E03E0
3E03E0
1E03C0
1F07C0
1F07C0
0F0780
0F8F80
0F8F80
078F00
07DF00
07DF00
03DE00
03DE00
03DE00
01FC00
01FC00
01FC00
00F800
ENDCHAR
STARTCHAR W
ENCODING 87
SWIDTH 966 0
DWIDTH 31 0
BBX 31 23 0 0
BITMAP
F807C03E
F807C03E
7807C03C
7C0FE07C
7C0FE07C
7C0FE07C
3C0EE078
3E1EF0F8
3E1EF0F8
3E1EF0F8
1E3EF8F0
1E3C78F0
1F3C79F0
1F3C79F0
0F7C79E0
0F783DE0
0F783FE0
0FF83FE0
07F83FC0
07F01FC0
07F01FC0
07F01FC0
03E00F80
ENDCHAR
STARTCHAR X
ENCODING 88
SWIDTH 666 0
DWIDTH 21 0
BBX 21 23 0 0
BITMAP
7C01F0
7E03F0
3E03E0
1F07C0
1F07C0
0F8F80
07CF00
07DF00
03FE00
03FE00
01FC00
01FC00
01FC00
03FE00
07FE00
07DF00
0F8F80
1F0F80
1F07C0
3E07E0
3E03E0
7C01F0
FC01F8
ENDCHAR
STARTCHAR Y
ENCODING 89
SWIDTH 624 0
DWIDTH 20 0
BBX 20 23 0 0
BITMAP
FC03F0
7C03E0
7E07E0
3E07C0
3F0FC0
1F0F80
1F9F00
0F9F00
07FE00
07FE00
03FC00
03FC00
01F800
01F800
00F000
00F000
00F000
00F000
00F000
00F000
00F000
00F000
00F000
ENDCHAR
STARTCHAR Z
ENCODING 90
SWIDTH 579 0
DWIDTH 19 0
BBX 17 23 1 0
BITMAP
FFFF80
FFFF80
FFFF80
FFFF80
001F00
003E00
007E00
007C00
00F800
01F000
03F000
03E000
07C000
0FC000
0F8000
1F0000
3E0000
7E0000
7C0000
FFFF80
FFFF80
FFFF80
FFFF80
ENDCHAR
STARTCHAR bracketleft
ENCODING 91
SWIDTH 331 0
DWIDTH 11 0
BBX 8 28 2 -5
BITMAP
FF
FF
FF
F0
F0
F0
F0
F0
F0
F0
F0
F0
F0
F0
F0
F0
F0
F0
F0
F0
F0
F0
F0
F0
F0
FF
FF
FF
ENDCHAR
STARTCHAR backslash
ENCODING 92
SWIDTH 413 0
DWIDTH 13 0
BBX 13 23 0 0
BITMAP
F800
7800
7800
7C00
3C00
3E00
1E00
1E00
1F00
0F00
0F00
0F80
0780
0780
07C0
03C0
03C0
03E0
01E0
01F0
00F0
00F0
00F8
ENDCHAR
STARTCHAR bracketright
ENCODING 93
SWIDTH 331 0
DWIDTH 11 0
BBX 8 28 1 -5
BITMAP
FF
FF
FF
0F
0F
0F
0F
0F
0F
0F
0F
0F
0F
0F
0F
0F
0F
0F
0F
0F
0F
0F
0F
0F
0F
FF
FF
FF
ENDCHAR
STARTCHAR asciicircum
ENCODING 94
SWIDTH 532 0
DWIDTH 17 0
BBX 17 15 0 8
BITMAP
018000
03C000
03C000
07E000
07F000
0F7000
0E7800
0E7800
1E3C00
1C3C00
3C1E00
381E00
780F00
700F00
F00780
ENDCHAR
STARTCHAR underscore
ENCODING 95
SWIDTH 411 0
DWIDTH 13 0
BBX 13 2 0 -5
BITMAP
FFF8
FFF8
ENDCHAR
STARTCHAR grave
ENCODING 96
SWIDTH 606 0
DWIDTH 19 0
BBX 9 5 5 19
BITMAP
FC00
7C00
3E00
0F00
0780
ENDCHAR
STARTCHAR a
ENCODING 97
SWIDTH 604 0
DWIDTH 19 0
BBX 16 17 1 0
BITMAP
07F0
3FFC
3FFE
1FFE
183E
001F
001F
0FFF
3FFF
7FFF
7C1F
F81F
FC3F
FFFF
7FEF
3FCF
1F0F
ENDCHAR
STARTCHAR b
ENCODING 98
SWIDTH 632 0
DWIDTH 20 0
BBX 17 24 2 0
BITMAP
F80000
F80000
F80000
F80000
F80000
F80000
F80000
F8F800
FBFC00
FFFE00
FFFF00
FE3F00
FC1F00
F81F00
F80F80
F80F80
F80F80
F81F00
FC1F00
FE3F00
FFFF00
FFFE00
FBFC00
F1F800
ENDCHAR
STARTCHAR c
ENCODING 99
SWIDTH 514 0
DWIDTH 16 0
BBX 14 17 1 0
BITMAP
07F0
1FFC
3FFC
3FF8
7E18
7C00
7C00
F800
F800
F800
7C00
7C00
7E08
7FF8
3FF8
1FF8
07F0
ENDCHAR
STARTCHAR d
ENCODING 100
SWIDTH 632 0
DWIDTH 20 0
BBX 17 24 1 0
BITMAP
000F80
000F80
000F80
000F80
000F80
000F80
000F80
0FCF80
1FEF80
3FFF80
7FFF80
7E1F80
7C1F80
7C0F80
F80F80
F80F80
F80F80
780F80
7C0F80
7E1F80
7FFF80
3FFF80
1FEF80
0F8780
ENDCHAR
STARTCHAR e
ENCODING 101
SWIDTH 590 0
DWIDTH 19 0
BBX 17 17 1 0
BITMAP
07F000
0FFC00
3FFE00
3E1F00
7C0F00
7C0F00
780F80
FFFF80
FFFF80
FFFF80
780000
7C0000
7E0300
3FFF00
3FFF00
0FFF00
03FC00
ENDCHAR
STARTCHAR f
ENCODING 102
SWIDTH 387 0
DWIDTH 12 0
BBX 12 24 1 0
BITMAP
07F0
1FF0
1FF0
3FF0
3E00
3E00
3E00
7FE0
FFE0
FFE0
FFE0
3E00
3E00
3E00
3E00
3E00
3E00
3E00
3E00
3E00
3E00
3E00
3E00
3E00
ENDCHAR
STARTCHAR g
ENCODING 103
SWIDTH 564 0
DWIDTH 18 0
BBX 18 25 0 -8
BITMAP
07FFC0
1FFFC0
3FFF80
3E3E00
7C1F00
7C1F00
7C1F00
3E3E00
3FFE00
1FFC00
0FF000
1C0000
3C0000
3FFC00
1FFF00
0FFF80
3FFF80
780F80
F00780
F00780
F00780
F81F80
7FFF00
3FFE00
0FF000
ENDCHAR
STARTCHAR h
ENCODING 104
SWIDTH 657 0
DWIDTH 21 0
BBX 17 24 2 0
BITMAP
F80000
F80000
F80000
F80000
F80000
F80000
F80000
F8F800
FBFE00
FFFF00
FFFF00
FE1F00
FC1F80
FC0F80
F80F80
F80F80
F80F80
F80F80
F80F80
F80F80
F80F80
F80F80
F80F80
F80F80
ENDCHAR
STARTCHAR i
ENCODING 105
SWIDTH 305 0
DWIDTH 10 0
BBX 5 24 2 0
BITMAP
78
F8
F8
F8
78
00
00
F8
F8
F8
F8
F8
F8
F8
F8
F8
F8
F8
F8
F8
F8
F8
F8
F8
ENDCHAR
STARTCHAR j
ENCODING 106
SWIDTH 305 0
DWIDTH 10 0
BBX 9 32 -2 -8
BITMAP
0780
0F80
0F80
0F80
0780
0000
0000
0F80
0F80
0F80
0F80
0F80
0F80
0F80
0F80
0F80
0F80
0F80
0F80
0F80
0F80
0F80
0F80
0F80
0F80
0F80
0F80
0F80
FF80
FF00
FF00
FC00
ENDCHAR
STARTCHAR k
ENCODING 107
SWIDTH 620 0
DWIDTH 20 0
BBX 18 24 2 0
BITMAP
F80000
F80000
F80000
F80000
F80000
F80000
F80000
F80F80
F81F00
F83E00
F87C00
F8F800
F9F000
FBE000
FFE000
FFE000
FFF000
FEF800
FCFC00
F87E00
F83E00
F81F00
F81F80
F80FC0
ENDCHAR
STARTCHAR l
ENCODING 108
SWIDTH 305 0
DWIDTH 10 0
BBX 5 24 2 0
BITMAP
F8
F8
F8
F8
F8
F8
F8
F8
F8
F8
F8
F8
F8
F8
F8
F8
F8
F8
F8
F8
F8
F8
F8
F8
ENDCHAR
STARTCHAR m
ENCODING 109
SWIDTH 981 0
DWIDTH 31 0
BBX 27 17 2 0
BITMAP
F1F83F00
FBFC7F80
FFFEFFC0
FFFFFFC0
FE3F87C0
FC1F83E0
FC1F03E0
F81F03E0
F81F03E0
F81F03E0
F81F03E0
F81F03E0
F81F03E0
F81F03E0
F81F03E0
F81F03E0
F81F03E0
ENDCHAR
STARTCHAR n
ENCODING 110
SWIDTH 657 0
DWIDTH 21 0
BBX 17 17 2 0
BITMAP
F0F800
FBFE00
FFFF00
FFFF00
FE1F00
FC1F80
FC0F80
F80F80
F80F80
F80F80
F80F80
F80F80
F80F80
F80F80
F80F80
F80F80
F80F80
ENDCHAR
STARTCHAR o
ENCODING 111
SWIDTH 619 0
DWIDTH 20 0
BBX 18 17 1 0
BITMAP
03F000
0FFC00
3FFE00
3FFF00
7E1F80
7C0F80
7C0F80
F80780
F807C0
F807C0
7C0F80
7C0F80
7E1F80
3FFF00
1FFF00
0FFC00
03F000
ENDCHAR
STARTCHAR p
ENCODING 112
SWIDTH 632 0
DWIDTH 20 0
BBX 17 25 2 -8
BITMAP
F0F800
FBFC00
FFFE00
FFFF00
FE3F00
FC1F00
F80F00
F80F80
F80F80
F80F80
F81F00
FC1F00
FE3F00
FFFF00
FFFE00
FBFC00
F9F000
F80000
F80000
F80000
F80000
F80000
F80000
F80000
F80000
ENDCHAR
STARTCHAR q
ENCODING 113
SWIDTH 632 0
DWIDTH 20 0
BBX 17 25 1 -8
BITMAP
0FCF80
1FEF80
3FFF80
7FFF80
7E1F80
7C1F80
7C0F80
F80F80
F80F80
F80F80
780F80
7C0F80
7E1F80
7FFF80
3FFF80
1FEF80
0F8F80
000F80
000F80
000F80
000F80
000F80
000F80
000F80
000F80
ENDCHAR
STARTCHAR r
ENCODING 114
SWIDTH 454 0
DWIDTH 15 0
BBX 12 17 2 0
BITMAP
F0F0
F1F0
FBF0
FFF0
FFD0
FE00
FC00
F800
F800
F800
F800
F800
F800
F800
F800
F800
F800
ENDCHAR
STARTCHAR s
ENCODING 115
SWIDTH 497 0
DWIDTH 16 0
BBX 14 17 1 0
BITMAP
0FE0
3FF8
7FF8
7FF8
F830
F800
7F00
7FE0
1FF0
07F8
00FC
007C
E07C
FFF8
FFF8
FFF0
3FC0
ENDCHAR
STARTCHAR t
ENCODING 116
SWIDTH 434 0
DWIDTH 14 0
BBX 12 21 1 0
BITMAP
0E00
1E00
1E00
1E00
3FF0
FFF0
FFF0
FFF0
3E00
3E00
3E00
3E00
3E00
3E00
3E00
3E00
3E00
3FF0
1FF0
1FF0
07E0
ENDCHAR
STARTCHAR u
ENCODING 117
SWIDTH 657 0
DWIDTH 21 0
BBX 17 17 2 0
BITMAP
F80F80
F80F80
F80F80
F80F80
F80F80
F80F80
F80F80
F80F80
F80F80
F80F80
F81F80
F81F80
7C3F80
7FFF80
7FFF80
3FEF80
0F8780
ENDCHAR
STARTCHAR v
ENCODING 118
SWIDTH 568 0
DWIDTH 18 0
BBX 18 17 0 0
BITMAP
F807C0
7C0F80
7C0F80
7C0F80
3E1F00
3E1F00
1E1F00
1F3E00
1F3E00
0F3C00
0FFC00
0FFC00
07F800
07F800
03F000
03F000
03F000
ENDCHAR
STARTCHAR w
ENCODING 119
SWIDTH 855 0
DWIDTH 27 0
BBX 27 17 0 0
BITMAP
F81F03E0
781F83C0
7C3F87C0
7C3F87C0
3C3B8780
3C3B8780
3E7BCF80
3E7BCF80
1E71CF00
1E71CF00
1FF1FF00
0FF1FE00
0FE0FE00
0FE0FE00
07E0FC00
07E0FC00
07C0FC00
ENDCHAR
STARTCHAR x
ENCODING 120
SWIDTH 578 0
DWIDTH 19 0
BBX 18 17 0 0
BITMAP
7C07C0
3E0FC0
3F1F80
1F1F00
0FBE00
0FFE00
07FC00
03F800
03F800
07FC00
07FC00
0FBE00
1FBF00
1F1F00
3E0F80
7E0FC0
FC07C0
ENDCHAR
STARTCHAR y
ENCODING 121
SWIDTH 568 0
DWIDTH 18 0
BBX 18 25 0 -8
BITMAP
F807C0
7C0F80
7C0F80
7C0F80
3E1F00
3E1F00
1E1F00
1F3E00
1F3E00
0F3C00
0FFC00
07FC00
07F800
07F800
03F800
03F000
01F000
01E000
03E000
03E000
07C000
7FC000
7F8000
7F0000
7C0000
ENDCHAR
STARTCHAR z
ENCODING 122
SWIDTH 487 0
DWIDTH 16 0
BBX 14 17 1 0
BITMAP
FFFC
FFFC
FFFC
FFFC
00F8
01F0
03E0
07C0
0F80
0F80
1F00
3E00
7C00
FFFC
FFFC
FFFC
FFFC
ENDCHAR
STARTCHAR braceleft
ENCODING 123
SWIDTH 394 0
DWIDTH 13 0
BBX 11 28 1 -5
BITMAP
03E0
07E0
0FE0
0FE0
0F00
0F00
0F00
0F00
0F00
0F00
0F00
1F00
FE00
FC00
FC00
FE00
3F00
0F00
0F00
0F00
0F00
0F00
0F00
0F00
0FE0
0FE0
07E0
03E0
ENDCHAR
STARTCHAR bar
ENCODING 124
SWIDTH 550 0
DWIDTH 18 0
BBX 4 31 7 -7
BITMAP
F0
F0
F0
F0
F0
F0
F0
F0
F0
F0
F0
F0
F0
F0
F0
F0
F0
F0
F0
F0
F0
F0
F0
F0
F0
F0
F0
F0
F0
F0
F0
ENDCHAR
STARTCHAR braceright
ENCODING 125
SWIDTH 394 0
DWIDTH 13 0
BBX 11 28 1 -5
BITMAP
F800
FC00
FE00
FE00
1E00
1E00
1E00
1E00
1E00
1E00
1E00
1F00
0FE0
07E0
07E0
0FE0
1F00
1E00
1E00
1E00
1E00
1E00
1E00
1E00
FE00
FE00
FC00
F800
ENDCHAR
STARTCHAR asciitilde
ENCODING 126
SWIDTH 570 0
DWIDTH 18 0
BBX 16 6 1 8
BITMAP
3E01
7F83
FFFF
FFFF
C1FE
807C
ENDCHAR
STARTCHAR nonbreakingspace
ENCODING 160
SWIDTH 259 0
DWIDTH 8 0
BBX 1 1 0 0
BITMAP
00
ENDCHAR
STARTCHAR exclamdown
ENCODING 161
SWIDTH 286 0
DWIDTH 9 0
BBX 5 23 2 -6
BITMAP
70
F8
F8
F8
70
00
00
00
F0
F0
F0
F8
F8
F8
F8
F8
F8
F8
F8
F8
F8
F8
F8
ENDCHAR
STARTCHAR cent
ENCODING 162
SWIDTH 570 0
DWIDTH 18 0
BBX 14 23 2 0
BITMAP
0180
0180
07F0
1FFC
3FFC
7FF8
7E18
7C00
F800
F800
F800
F800
F800
F800
7C00
7E08
7FF8
3FF8
1FF8
07F0
0180
0180
0180
ENDCHAR
STARTCHAR sterling
ENCODING 163
SWIDTH 570 0
DWIDTH 18 0
BBX 16 23 1 0
BITMAP
01F8
07FF
0FFE
1FFE
1F86
1F00
1F00
1F00
1F00
FFF8
FFF8
FFF8
1F00
1F00
1F00
1F00
1E00
3E00
7C00
FFFF
FFFF
FFFF
FFFF
ENDCHAR
STARTCHAR currency
ENCODING 164
SWIDTH 570 0
DWIDTH 18 0
BBX 14 14 2 4
BITMAP
6018
FFFC
FFFC
7FF8
7878
7838
7038
7038
7038
7878
7FF8
FFFC
FFFC
6018
ENDCHAR
STARTCHAR yen
ENCODING 165
SWIDTH 570 0
DWIDTH 18 0
BBX 18 23 0 0
BITMAP
F807C0
7C0F80
7C0F80
3C0F00
3E1F00
1E1E00
1F3E00
0F3C00
0FFC00
07F800
07F800
03F000
1FFE00
1FFE00
1FFE00
01E000
01E000
1FFE00
1FFE00
1FFE00
01E000
01E000
01E000
ENDCHAR
STARTCHAR brokenbar
ENCODING 166
SWIDTH 550 0
DWIDTH 18 0
BBX 4 31 7 -7
BITMAP
F0
F0
F0
F0
F0
F0
F0
F0
F0
F0
F0
F0
F0
00
00
00
00
00
F0
F0
F0
F0
F0
F0
F0
F0
F0
F0
F0
F0
F0
ENDCHAR
STARTCHAR section
ENCODING 167
SWIDTH 485 0
DWIDTH 16 0
BBX 12 24 2 0
BITMAP
1FC0
7FF0
FFF0
F060
F000
F000
FC00
7F80
7FE0
7FF0
F0F0
F070
F070
FCF0
7FF0
3FE0
07E0
01F0
00F0
00F0
C0F0
FFF0
FFE0
3F80
ENDCHAR
STARTCHAR dieresis
ENCODING 168
SWIDTH 606 0
DWIDTH 19 0
BBX 11 4 4 20
BITMAP
71C0
FBE0
FBE0
71C0
ENDCHAR
STARTCHAR copyright
ENCODING 169
SWIDTH 832 0
DWIDTH 27 0
BBX 23 23 2 0
BITMAP
00FE00
03FF80
0F83E0
1E00F0
387E38
71FF9C
61FF0C
E3C10E
C3C006
C78006
C78006
C78006
C78006
C78006
C38006
E3C10E
61FF0C
70FF1C
387E38
1E00F0
0F83E0
03FF80
00FE00
ENDCHAR
STARTCHAR ordfeminine
ENCODING 170
SWIDTH 382 0
DWIDTH 12 0
BBX 10 11 1 12
BITMAP
3F00
FF80
7780
01C0
1FC0
7FC0
E1C0
E3C0
F7C0
FFC0
7DC0
ENDCHAR
STARTCHAR guillemotleft
ENCODING 171
SWIDTH 615 0
DWIDTH 20 0
BBX 17 15 1 1
BITMAP
020200
078780
0F8F80
1F1F00
1F1F00
3E3E00
7C7C00
F8F800
7C7C00
3E3E00
1F1F00
0F1F00
0F8F80
078780
020200
ENDCHAR
STARTCHAR logicalnot
ENCODING 172
SWIDTH 570 0
DWIDTH 18 0
BBX 16 9 1 4
BITMAP
FFFF
FFFF
FFFF
000F
000F
000F
000F
000F
000F
ENDCHAR
STARTCHAR uni00AD
ENCODING 173
SWIDTH 321 0
DWIDTH 10 0
BBX 8 4 1 7
BITMAP
FF
FF
FF
FF
ENDCHAR
STARTCHAR registered
ENCODING 174
SWIDTH 832 0
DWIDTH 27 0
BBX 23 23 2 0
BITMAP
00FE00
03FF80
0F83E0
1E00F0
380038
71FC1C
61FE0C
E1FF0E
C1CF06
C1C706
C1CF06
C1FF06
C1FE06
C1FC06
C1DE06
E1CF0E
61CF0C
71C79C
39C3F8
1E00F0
0F83E0
03FF80
00FE00
ENDCHAR
STARTCHAR overscore
ENCODING 175
SWIDTH 500 0
DWIDTH 16 0
BBX 16 3 0 24
BITMAP
FFFF
FFFF
FFFF
ENDCHAR
STARTCHAR degree
ENCODING 176
SWIDTH 428 0
DWIDTH 14 0
BBX 10 11 2 12
BITMAP
1E00
7F80
FF80
E3C0
E1C0
E1C0
E1C0
E3C0
FF80
7F80
1E00
ENDCHAR
STARTCHAR plusminus
ENCODING 177
SWIDTH 570 0
DWIDTH 18 0
BBX 16 20 1 0
BITMAP
03C0
03C0
03C0
03C0
03C0
03C0
FFFF
FFFF
FFFF
03C0
03C0
03C0
03C0
03C0
03C0
0000
0000
FFFF
FFFF
FFFF
ENDCHAR
STARTCHAR twosuperior
ENCODING 178
SWIDTH 378 0
DWIDTH 12 0
BBX 10 14 1 9
BITMAP
3E00
FF80
FF80
6780
0380
0780
0780
0F00
1E00
3C00
7800
FFC0
FFC0
FFC0
ENDCHAR
STARTCHAR threesuperior
ENCODING 179
SWIDTH 378 0
DWIDTH 12 0
BBX 10 14 1 9
BITMAP
3E00
FF80
FF80
4380
0380
0780
3F00
3F00
3F80
03C0
83C0
FFC0
FF80
7E00
ENDCHAR
STARTCHAR acute
ENCODING 180
SWIDTH 606 0
DWIDTH 19 0
BBX 9 5 5 19
BITMAP
1F80
1F00
3E00
7800
F000
ENDCHAR
STARTCHAR mu
ENCODING 181
SWIDTH 660 0
DWIDTH 21 0
BBX 17 25 2 -8
BITMAP
F80F80
F80F80
F80F80
F80F80
F80F80
F80F80
F80F80
F80F80
F80F80
F80F80
F81F80
FC1F80
FC3F80
FFFF80
FFFF80
FFE780
FBC780
F80000
F80000
F80000
F80000
F80000
F80000
F80000
F80000
ENDCHAR
STARTCHAR paragraph
ENCODING 182
SWIDTH 654 0
DWIDTH 21 0
BBX 16 28 2 -4
BITMAP
0FFF
3FFF
7FFF
7FFF
FFE3
FFE3
FFE3
FFE3
FFE3
FFE3
FFE3
FFE3
FFE3
7FE3
3FE3
1FE3
0063
0063
0063
0063
0063
0063
0063
0063
0063
0063
0063
0063
ENDCHAR
STARTCHAR periodcentered
ENCODING 183
SWIDTH 285 0
DWIDTH 9 0
BBX 5 5 2 9
BITMAP
70
F8
F8
F8
70
ENDCHAR
STARTCHAR cedilla
ENCODING 184
SWIDTH 205 0
DWIDTH 7 0
BBX 7 8 0 -8
BITMAP
78
70
F8
1C
1E
FE
FC
F8
ENDCHAR
STARTCHAR onesuperior
ENCODING 185
SWIDTH 378 0
DWIDTH 12 0
BBX 7 14 2 9
BITMAP
1E
3E
7E
FE
FE
1E
1E
1E
1E
1E
1E
1E
1E
1E
ENDCHAR
STARTCHAR ordmasculine
ENCODING 186
SWIDTH 388 0
DWIDTH 12 0
BBX 10 11 1 12
BITMAP
1E00
7F80
FF80
E1C0
E1C0
E1C0
E1C0
E1C0
7F80
7F80
1E00
ENDCHAR
STARTCHAR guillemotright
ENCODING 187
SWIDTH 615 0
DWIDTH 20 0
BBX 17 15 2 1
BITMAP
202000
F0F000
F8F800
787800
7C7C00
3E3E00
1F1F00
0F8F80
1F1F00
3E3E00
7C7C00
7C7C00
F8F800
F0F000
202000
ENDCHAR
STARTCHAR onequarter
ENCODING 188
SWIDTH 880 0
DWIDTH 28 0
BBX 25 23 1 0
BITMAP
0E00F000
3E00F000
7E01E000
FE01C000
EE03C000
4E038000
0E078000
0E070000
0E0F0000
0E1E1E00
0E1E1E00
0E3C3E00
0E3C7E00
0E786E00
0070FE00
00F1DE00
00E19E00
01E39E00
03C3FF80
03C3FF80
0783FF80
07801E00
0F001E00
ENDCHAR
STARTCHAR onehalf
ENCODING 189
SWIDTH 880 0
DWIDTH 28 0
BBX 26 23 1 0
BITMAP
0E00F000
3E00F000
7E01E000
FE01C000
EE03C000
4E038000
0E078000
0E070000
0E0F0000
0E1E3E00
0E1EFF80
0E3CFF80
0E3C6780
0E780780
00700780
00F00780
00E00F00
01E01E00
03C03C00
03C07800
0780FFC0
0780FFC0
0F00FFC0
ENDCHAR
STARTCHAR threequarters
ENCODING 190
SWIDTH 880 0
DWIDTH 28 0
BBX 26 23 1 0
BITMAP
3F007800
7F807800
7FC0F000
23C0F000
03C1E000
0381C000
3F03C000
3F038000
3FC78000
01C70F00
81CF1F00
FFDE3F00
FF9E3F00
3F3C7F00
003CEF00
0078EF00
0071CF00
00F18F00
00E3FFC0
01E3FFC0
03C3FFC0
03C00F00
07800F00
ENDCHAR
STARTCHAR questiondown
ENCODING 191
SWIDTH 477 0
DWIDTH 15 0
BBX 14 23 1 -6
BITMAP
03C0
07C0
07C0
07C0
03C0
0000
0000
0000
03C0
03C0
07C0
0F80
1F00
3E00
7C00
F800
F800
F008
F838
FFF8
7FFC
3FF8
0FC0
ENDCHAR
STARTCHAR Agrave
ENCODING 192
SWIDTH 689 0
DWIDTH 22 0
BBX 22 30 0 0
BITMAP
07E000
03E000
00F000
007800
003C00
000000
000000
00FC00
01FC00
01FE00
01FE00
03FF00
03CF00
03CF00
07CF80
078780
078780
0F87C0
0F87C0
0F03C0
1FFFE0
1FFFE0
1FFFE0
3FFFF0
3E01F0
3C00F0
7C00F8
7C00F8
7C00F8
F8007C
ENDCHAR
STARTCHAR Aacute
ENCODING 193
SWIDTH 689 0
DWIDTH 22 0
BBX 22 30 0 0
BITMAP
000F80
001F00
003E00
007C00
00F000
000000
000000
00FC00
01FC00
01FE00
01FE00
03FF00
03CF00
03CF00
07CF80
078780
078780
0F87C0
0F87C0
0F03C0
1FFFE0
1FFFE0
1FFFE0
3FFFF0
3E01F0
3C00F0
7C00F8
7C00F8
7C00F8
F8007C
ENDCHAR
STARTCHAR Acircumflex
ENCODING 194
SWIDTH 689 0
DWIDTH 22 0
BBX 22 30 0 0
BITMAP
00FC00
01FE00
03FF00
078F80
0F03C0
000000
000000
00FC00
01FC00
01FE00
01FE00
03FF00
03CF00
03CF00
07CF80
078780
078780
0F87C0
0F87C0
0F03C0
1FFFE0
1FFFE0
1FFFE0
3FFFF0
3E01F0
3C00F0
7C00F8
7C00F8
7C00F8
F8007C
ENDCHAR
STARTCHAR Atilde
ENCODING 195
SWIDTH 689 0
DWIDTH 22 0
BBX 22 30 0 0
BITMAP
01C180
03F380
07FF80
073F00
0E1E00
000000
000000
00FC00
01FC00
01FE00
01FE00
03FF00
03CF00
03CF00
07CF80
078780
078780
0F87C0
0F87C0
0F03C0
1FFFE0
1FFFE0
1FFFE0
3FFFF0
3E01F0
3C00F0
7C00F8
7C00F8
7C00F8
F8007C
ENDCHAR
STARTCHAR Adieresis
ENCODING 196
SWIDTH 689 0
DWIDTH 22 0
BBX 22 29 0 0
BITMAP
038F00
03CF00
03CF00
038E00
000000
000000
00FC00
01FC00
01FE00
01FE00
03FF00
03CF00
03CF00
07CF80
078780
078780
0F87C0
0F87C0
0F03C0
1FFFE0
1FFFE0
1FFFE0
3FFFF0
3E01F0
3C00F0
7C00F8
7C00F8
7C00F8
F8007C
ENDCHAR
STARTCHAR Aring
ENCODING 197
SWIDTH 689 0
DWIDTH 22 0
BBX 22 28 0 0
BITMAP
007800
00FC00
01FE00
018E00
01CE00
01FC00
01FC00
01FE00
01FE00
03FF00
03CF00
03CF00
07CF80
078780
078780
0F87C0
0F87C0
0F03C0
1FFFE0
1FFFE0
1FFFE0
3FFFF0
3E01F0
3C00F0
7C00F8
7C00F8
7C00F8
F8007C
ENDCHAR
STARTCHAR AE
ENCODING 198
SWIDTH 952 0
DWIDTH 30 0
BBX 28 23 0 0
BITMAP
003FFFF0
007FFFF0
007FFFF0
00FFFFF0
00F9F000
00F1F000
01F1F000
01E1F000
03E1F000
03C1FFF0
07C1FFF0
07C1FFF0
0781FFF0
0FFFF000
0FFFF000
1FFFF000
1FFFF000
3E01F000
3E01F000
3C01FFF0
7C01FFF0
7C01FFF0
F801FFF0
ENDCHAR
STARTCHAR Ccedilla
ENCODING 199
SWIDTH 637 0
DWIDTH 20 0
BBX 17 31 2 -8
BITMAP
01FC00
07FF80
1FFF80
3FFF00
3F0700
7E0000
7C0000
F80000
F80000
F80000
F80000
F80000
F80000
F80000
F80000
F80000
7C0000
7E0000
7F0300
3FFF00
1FFF00
0FFF00
03FC00
00E000
01E000
01F000
007800
007800
03F800
03F800
03E000
ENDCHAR
STARTCHAR Egrave
ENCODING 200
SWIDTH 560 0
DWIDTH 18 0
BBX 13 30 3 0
BITMAP
7C00
3E00
1F00
0780
03C0
0000
0000
FFF8
FFF8
FFF8
FFF8
F800
F800
F800
F800
F800
FFF8
FFF8
FFF8
FFF8
F800
F800
F800
F800
F800
F800
FFF8
FFF8
FFF8
FFF8
ENDCHAR
STARTCHAR Eacute
ENCODING 201
SWIDTH 560 0
DWIDTH 18 0
BBX 13 30 3 0
BITMAP
01F0
03E0
07C0
0F80
0E00
0000
0000
FFF8
FFF8
FFF8
FFF8
F800
F800
F800
F800
F800
FFF8
FFF8
FFF8
FFF8
F800
F800
F800
F800
F800
F800
FFF8
FFF8
FFF8
FFF8
ENDCHAR
STARTCHAR Ecircumflex
ENCODING 202
SWIDTH 560 0
DWIDTH 18 0
BBX 13 30 3 0
BITMAP
1F80
3FC0
3FE0
78F0
E078
0000
0000
FFF8
FFF8
FFF8
FFF8
F800
F800
F800
F800
F800
FFF8
FFF8
FFF8
FFF8
F800
F800
F800
F800
F800
F800
FFF8
FFF8
FFF8
FFF8
ENDCHAR
STARTCHAR Edieresis
ENCODING 203
SWIDTH 560 0
DWIDTH 18 0
BBX 13 29 3 0
BITMAP
38E0
79F0
79F0
38E0
0000
0000
FFF8
FFF8
FFF8
FFF8
F800
F800
F800
F800
F800
FFF8
FFF8
FFF8
FFF8
F800
F800
F800
F800
F800
F800
FFF8
FFF8
FFF8
FFF8
ENDCHAR
STARTCHAR Igrave
ENCODING 204
SWIDTH 331 0
DWIDTH 11 0
BBX 9 30 -1 0
BITMAP
FC00
7C00
3E00
0F00
0780
0000
0000
0F80
0F80
0F80
0F80
0F80
0F80
0F80
0F80
0F80
0F80
0F80
0F80
0F80
0F80
0F80
0F80
0F80
0F80
0F80
0F80
0F80
0F80
0F80
ENDCHAR
STARTCHAR Iacute
ENCODING 205
SWIDTH 331 0
DWIDTH 11 0
BBX 8 30 3 0
BITMAP
1F
3E
7C
F8
E0
00
00
F8
F8
F8
F8
F8
F8
F8
F8
F8
F8
F8
F8
F8
F8
F8
F8
F8
F8
F8
F8
F8
F8
F8
ENDCHAR
STARTCHAR Icircumflex
ENCODING 206
SWIDTH 331 0
DWIDTH 11 0
BBX 14 30 -2 0
BITMAP
0FC0
1FE0
3FF0
7CF8
F03C
0000
0000
07C0
07C0
07C0
07C0
07C0
07C0
07C0
07C0
07C0
07C0
07C0
07C0
07C0
07C0
07C0
07C0
07C0
07C0
07C0
07C0
07C0
07C0
07C0
ENDCHAR
STARTCHAR Idieresis
ENCODING 207
SWIDTH 331 0
DWIDTH 11 0
BBX 10 29 0 0
BITMAP
F3C0
F3C0
F3C0
F3C0
0000
0000
1F00
1F00
1F00
1F00
1F00
1F00
1F00
1F00
1F00
1F00
1F00
1F00
1F00
1F00
1F00
1F00
1F00
1F00
1F00
1F00
1F00
1F00
1F00
ENDCHAR
STARTCHAR Eth
ENCODING 208
SWIDTH 740 0
DWIDTH 24 0
BBX 21 23 1 0
BITMAP
3FF800
3FFF00
3FFF80
3FFFC0
3E0FE0
3E03F0
3E01F0
3E01F8
3E00F8
3E00F8
FFC0F8
FFC0F8
FFC0F8
FFC0F8
3E00F8
3E01F8
3E01F0
3E03F0
3E0FE0
3FFFC0
3FFF80
3FFF00
3FF800
ENDCHAR
STARTCHAR Ntilde
ENCODING 209
SWIDTH 812 0
DWIDTH 26 0
BBX 20 30 3 0
BITMAP
038300
07E700
0FFF00
0E7E00
1C3C00
000000
000000
FC00F0
FE00F0
FE00F0
FF00F0
FF80F0
FF80F0
F7C0F0
F7C0F0
F3E0F0
F3E0F0
F1F0F0
F1F8F0
F0F8F0
F07CF0
F07CF0
F03EF0
F03EF0
F01FF0
F01FF0
F00FF0
F007F0
F007F0
F003F0
ENDCHAR
STARTCHAR Ograve
ENCODING 210
SWIDTH 795 0
DWIDTH 25 0
BBX 21 30 2 0
BITMAP
07C000
03E000
01F000
007800
003C00
000000
000000
01FC00
0FFF80
1FFFC0
3FFFE0
7F07F0
7E03F0
7C01F0
FC01F8
F800F8
F800F8
F800F8
F800F8
F800F8
F800F8
F800F8
F801F8
7C01F0
7E03F0
7F07F0
3FFFE0
1FFFC0
0FFF80
01FC00
ENDCHAR
STARTCHAR Oacute
ENCODING 211
SWIDTH 795 0
DWIDTH 25 0
BBX 21 30 2 0
BITMAP
001F80
001F00
003E00
007800
00F000
000000
000000
01FC00
0FFF80
1FFFC0
3FFFE0
7F07F0
7E03F0
7C01F0
FC01F8
F800F8
F800F8
F800F8
F800F8
F800F8
F800F8
F800F8
F801F8
7C01F0
7E03F0
7F07F0
3FFFE0
1FFFC0
0FFF80
01FC00
ENDCHAR
STARTCHAR Ocircumflex
ENCODING 212
SWIDTH 795 0
DWIDTH 25 0
BBX 21 30 2 0
BITMAP
01FC00
01FC00
03DE00
078F00
0F0780
000000
000000
01FC00
0FFF80
1FFFC0
3FFFE0
7F07F0
7E03F0
7C01F0
FC01F8
F800F8
F800F8
F800F8
F800F8
F800F8
F800F8
F800F8
F801F8
7C01F0
7E03F0
7F07F0
3FFFE0
1FFFC0
0FFF80
01FC00
ENDCHAR
STARTCHAR Otilde
ENCODING 213
SWIDTH 795 0
DWIDTH 25 0
BBX 21 30 2 0
BITMAP
03C180
07F380
07FF80
0E7F00
0E1E00
000000
000000
01FC00
0FFF80
1FFFC0
3FFFE0
7F07F0
7E03F0
7C01F0
FC01F8
F800F8
F800F8
F800F8
F800F8
F800F8
F800F8
F800F8
F801F8
7C01F0
7E03F0
7F07F0
3FFFE0
1FFFC0
0FFF80
01FC00
ENDCHAR
STARTCHAR Odieresis
ENCODING 214
SWIDTH 795 0
DWIDTH 25 0
BBX 21 29 2 0
BITMAP
038E00
07DF00
07DF00
038E00
000000
000000
01FC00
0FFF80
1FFFC0
3FFFE0
7F07F0
7E03F0
7C01F0
FC01F8
F800F8
F800F8
F800F8
F800F8
F800F8
F800F8
F800F8
F801F8
7C01F0
7E03F0
7F07F0
3FFFE0
1FFFC0
0FFF80
01FC00
ENDCHAR
STARTCHAR multiply
ENCODING 215
SWIDTH 570 0
DWIDTH 18 0
BBX 14 13 2 5
BITMAP
6018
F03C
7878
3CF0
1FE0
0FC0
0780
0FC0
1FE0
3CF0
7878
F03C
6018
ENDCHAR
STARTCHAR Oslash
ENCODING 216
SWIDTH 795 0
DWIDTH 25 0
BBX 21 25 2 -1
BITMAP
000040
01FCE0
0FFFE0
1FFFC0
3FFFE0
7F07F0
7E07F0
7C0FF0
F81EF8
F81CF8
F83CF8
F838F8
F870F8
F8F0F8
F8E0F8
F9C0F8
FBC1F8
7F81F0
7F03F0
7F07F0
3FFFE0
1FFFC0
3FFF80
39FC00
100000
ENDCHAR
STARTCHAR Ugrave
ENCODING 217
SWIDTH 755 0
DWIDTH 24 0
BBX 18 30 3 0
BITMAP
1F0000
0F8000
07C000
03E000
00F000
000000
000000
F807C0
F807C0
F807C0
F807C0
F807C0
F807C0
F807C0
F807C0
F807C0
F807C0
F807C0
F807C0
F807C0
F807C0
F807C0
F807C0
F807C0
F807C0
FE1F80
7FFF80
3FFF00
1FFE00
07F800
ENDCHAR
STARTCHAR Uacute
ENCODING 218
SWIDTH 755 0
DWIDTH 24 0
BBX 18 30 3 0
BITMAP
003E00
007C00
00F800
01F000
03C000
000000
000000
F807C0
F807C0
F807C0
F807C0
F807C0
F807C0
F807C0
F807C0
F807C0
F807C0
F807C0
F807C0
F807C0
F807C0
F807C0
F807C0
F807C0
F807C0
FE1F80
7FFF80
3FFF00
1FFE00
07F800
ENDCHAR
STARTCHAR Ucircumflex
ENCODING 219
SWIDTH 755 0
DWIDTH 24 0
BBX 18 30 3 0
BITMAP
03F000
07F800
0FFC00
1F3E00
3C0F00
000000
000000
F807C0
F807C0
F807C0
F807C0
F807C0
F807C0
F807C0
F807C0
F807C0
F807C0
F807C0
F807C0
F807C0
F807C0
F807C0
F807C0
F807C0
F807C0
FE1F80
7FFF80
3FFF00
1FFE00
07F800
ENDCHAR
STARTCHAR Udieresis
ENCODING 220
SWIDTH 755 0
DWIDTH 24 0
BBX 18 29 3 0
BITMAP
0F3C00
0F3C00
0F3C00
0E3800
000000
000000
F807C0
F807C0
F807C0
F807C0
F807C0
F807C0
F807C0
F807C0
F807C0
F807C0
F807C0
F807C0
F807C0
F807C0
F807C0
F807C0
F807C0
F807C0
FE1F80
7FFF80
3FFF00
1FFE00
07F800
ENDCHAR
STARTCHAR Yacute
ENCODING 221
SWIDTH 624 0
DWIDTH 20 0
BBX 20 30 0 0
BITMAP
003F00
003E00
007C00
00F000
01E000
000000
000000
FC03F0
7C03E0
7E07E0
3E07C0
3F0FC0
1F0F80
1F9F00
0F9F00
07FE00
07FE00
03FC00
03FC00
01F800
01F800
00F000
00F000
00F000
00F000
00F000
00F000
00F000
00F000
00F000
ENDCHAR
STARTCHAR Thorn
ENCODING 222
SWIDTH 627 0
DWIDTH 20 0
BBX 16 23 3 0
BITMAP
F800
F800
F800
F800
FFE0
FFF8
FFFC
FFFE
F87E
F83E
F81F
F81F
F83E
F87E
FFFE
FFFC
FFF8
FFE0
F800
F800
F800
F800
F800
ENDCHAR
STARTCHAR germandbls
ENCODING 223
SWIDTH 710 0
DWIDTH 23 0
BBX 20 24 2 0
BITMAP
07F800
1FFF00
3FFF80
7FFF80
7E0FC0
7C07C0
F807C0
F80F80
F81F00
F83E00
F87C00
F8F800
F8FC00
F87E00
F87F80
F81FC0
F80FE0
F803F0
F801F0
F801F0
F8C3F0
F8FFE0
F8FFC0
F87F80
ENDCHAR
STARTCHAR agrave
ENCODING 224
SWIDTH 604 0
DWIDTH 19 0
BBX 16 24 1 0
BITMAP
1F00
0F80
07C0
03E0
00E0
0000
0000
07F0
3FFC
3FFE
1FFE
183E
001F
001F
0FFF
3FFF
7FFF
7C1F
F81F
FC3F
FFFF
7FEF
3FCF
1F0F
ENDCHAR
STARTCHAR aacute
ENCODING 225
SWIDTH 604 0
DWIDTH 19 0
BBX 16 24 1 0
BITMAP
007E
00F8
00F0
01E0
03C0
0000
0000
07F0
3FFC
3FFE
1FFE
183E
001F
001F
0FFF
3FFF
7FFF
7C1F
F81F
FC3F
FFFF
7FEF
3FCF
1F0F
ENDCHAR
STARTCHAR acircumflex
ENCODING 226
SWIDTH 604 0
DWIDTH 19 0
BBX 16 24 1 0
BITMAP
07E0
0FF0
0FF8
1E3C
3C1E
0000
0000
07F0
3FFC
3FFE
1FFE
183E
001F
001F
0FFF
3FFF
7FFF
7C1F
F81F
FC3F
FFFF
7FEF
3FCF
1F0F
ENDCHAR
STARTCHAR atilde
ENCODING 227
SWIDTH 604 0
DWIDTH 19 0
BBX 16 24 1 0
BITMAP
0706
1FCE
1FFE
39FC
3878
0000
0000
07F0
3FFC
3FFE
1FFE
183E
001F
001F
0FFF
3FFF
7FFF
7C1F
F81F
FC3F
FFFF
7FEF
3FCF
1F0F
ENDCHAR
STARTCHAR adieresis
ENCODING 228
SWIDTH 604 0
DWIDTH 19 0
BBX 16 24 1 0
BITMAP
0E38
1F7C
1F7C
0E38
0000
0000
0000
07F0
3FFC
3FFE
1FFE
183E
001F
001F
0FFF
3FFF
7FFF
7C1F
F81F
FC3F
FFFF
7FEF
3FCF
1F0F
ENDCHAR
STARTCHAR aring
ENCODING 229
SWIDTH 604 0
DWIDTH 19 0
BBX 16 26 1 0
BITMAP
03E0
07F0
0730
0638
0730
07F0
03E0
0000
0000
07F0
3FFC
3FFE
1FFE
183E
001F
001F
0FFF
3FFF
7FFF
7C1F
F81F
FC3F
FFFF
7FEF
3FCF
1F0F
ENDCHAR
STARTCHAR ae
ENCODING 230
SWIDTH 916 0
DWIDTH 29 0
BBX 27 17 1 0
BITMAP
07F0FC00
3FFBFF00
3FFFFF80
1FFF87C0
183F03C0
001F03C0
001F03E0
0FFFFFE0
3FFFFFE0
7FFFFFE0
7C1F0000
F81F0000
FC3F80C0
7FFFFFC0
7FF7FFC0
3FE3FFC0
1F80FF00
ENDCHAR
STARTCHAR ccedilla
ENCODING 231
SWIDTH 514 0
DWIDTH 16 0
BBX 14 25 1 -8
BITMAP
07F0
1FFC
3FFC
3FF8
7E18
7C00
7C00
F800
F800
F800
7C00
7C00
7E08
7FF8
3FF8
1FF8
07F0
03C0
0380
07C0
00E0
00F0
07F0
07E0
07C0
ENDCHAR
STARTCHAR egrave
ENCODING 232
SWIDTH 590 0
DWIDTH 19 0
BBX 17 24 1 0
BITMAP
1F0000
0F8000
07C000
03E000
00F000
000000
000000
07F000
0FFC00
3FFE00
3E1F00
7C0F00
7C0F00
780F80
FFFF80
FFFF80
FFFF80
780000
7C0000
7E0300
3FFF00
3FFF00
0FFF00
03FC00
ENDCHAR
STARTCHAR eacute
ENCODING 233
SWIDTH 590 0
DWIDTH 19 0
BBX 17 24 1 0
BITMAP
007E00
00FC00
00F000
01E000
03C000
000000
000000
07F000
0FFC00
3FFE00
3E1F00
7C0F00
7C0F00
780F80
FFFF80
FFFF80
FFFF80
780000
7C0000
7E0300
3FFF00
3FFF00
0FFF00
03FC00
ENDCHAR
STARTCHAR ecircumflex
ENCODING 234
SWIDTH 590 0
DWIDTH 19 0
BBX 17 24 1 0
BITMAP
07F000
07F800
0F7800
1E3C00
3C1E00
000000
000000
07F000
0FFC00
3FFE00
3E1F00
7C0F00
7C0F00
780F80
FFFF80
FFFF80
FFFF80
780000
7C0000
7E0300
3FFF00
3FFF00
0FFF00
03FC00
ENDCHAR
STARTCHAR edieresis
ENCODING 235
SWIDTH 590 0
DWIDTH 19 0
BBX 17 24 1 0
BITMAP
0E3800
0F3C00
0F3C00
0E3800
000000
000000
000000
07F000
0FFC00
3FFE00
3E1F00
7C0F00
7C0F00
780F80
FFFF80
FFFF80
FFFF80
780000
7C0000
7E0300
3FFF00
3FFF00
0FFF00
03FC00
ENDCHAR
STARTCHAR igrave
ENCODING 236
SWIDTH 305 0
DWIDTH 10 0
BBX 9 24 -2 0
BITMAP
FC00
3E00
1E00
0F00
0780
0000
0000
0F80
0F80
0F80
0F80
0F80
0F80
0F80
0F80
0F80
0F80
0F80
0F80
0F80
0F80
0F80
0F80
0F80
ENDCHAR
STARTCHAR iacute
ENCODING 237
SWIDTH 305 0
DWIDTH 10 0
BBX 9 24 2 0
BITMAP
1F80
1F00
3E00
7800
F000
0000
0000
F800
F800
F800
F800
F800
F800
F800
F800
F800
F800
F800
F800
F800
F800
F800
F800
F800
ENDCHAR
STARTCHAR icircumflex
ENCODING 238
SWIDTH 305 0
DWIDTH 10 0
BBX 13 24 -2 0
BITMAP
0FC0
1FE0
3FE0
78F0
F078
0000
0000
0F80
0F80
0F80
0F80
0F80
0F80
0F80
0F80
0F80
0F80
0F80
0F80
0F80
0F80
0F80
0F80
0F80
ENDCHAR
STARTCHAR idieresis
ENCODING 239
SWIDTH 305 0
DWIDTH 10 0
BBX 11 24 -1 0
BITMAP
71C0
FBE0
79E0
71C0
0000
0000
0000
1F00
1F00
1F00
1F00
1F00
1F00
1F00
1F00
1F00
1F00
1F00
1F00
1F00
1F00
1F00
1F00
1F00
ENDCHAR
STARTCHAR eth
ENCODING 240
SWIDTH 619 0
DWIDTH 20 0
BBX 18 24 1 0
BITMAP
020400
078E00
07FE00
03FC00
01F800
07FC00
07BE00
071E00
001F00
07EF80
1FFF80
3FFF80
7FFF80
7E1F80
7C0FC0
F807C0
F807C0
F80780
7C0F80
7E1F80
7FFF00
3FFE00
1FFC00
07F000
ENDCHAR
STARTCHAR ntilde
ENCODING 241
SWIDTH 657 0
DWIDTH 21 0
BBX 17 24 2 0
BITMAP
0F0E00
1FCE00
3FFC00
39FC00
307800
000000
000000
F0F800
FBFE00
FFFF00
FFFF00
FE1F00
FC1F80
FC0F80
F80F80
F80F80
F80F80
F80F80
F80F80
F80F80
F80F80
F80F80
F80F80
F80F80
ENDCHAR
STARTCHAR ograve
ENCODING 242
SWIDTH 619 0
DWIDTH 20 0
BBX 18 24 1 0
BITMAP
1F0000
0F8000
07C000
03E000
00E000
000000
000000
03F000
0FFC00
3FFE00
3FFF00
7E1F80
7C0F80
7C0F80
F80780
F807C0
F807C0
7C0F80
7C0F80
7E1F80
3FFF00
1FFF00
0FFC00
03F000
ENDCHAR
STARTCHAR oacute
ENCODING 243
SWIDTH 619 0
DWIDTH 20 0
BBX 18 24 1 0
BITMAP
003E00
007C00
00F800
01E000
03C000
000000
000000
03F000
0FFC00
3FFE00
3FFF00
7E1F80
7C0F80
7C0F80
F80780
F807C0
F807C0
7C0F80
7C0F80
7E1F80
3FFF00
1FFF00
0FFC00
03F000
ENDCHAR
STARTCHAR ocircumflex
ENCODING 244
SWIDTH 619 0
DWIDTH 20 0
BBX 18 24 1 0
BITMAP
03F000
07F800
0FF800
1E3C00
3C1E00
000000
000000
03F000
0FFC00
3FFE00
3FFF00
7E1F80
7C0F80
7C0F80
F80780
F807C0
F807C0
7C0F80
7C0F80
7E1F80
3FFF00
1FFF00
0FFC00
03F000
ENDCHAR
STARTCHAR otilde
ENCODING 245
SWIDTH 619 0
DWIDTH 20 0
BBX 18 24 1 0
BITMAP
070600
1FCE00
1FFE00
1DFC00
387800
000000
000000
03F000
0FFC00
3FFE00
3FFF00
7E1F80
7C0F80
7C0F80
F80780
F807C0
F807C0
7C0F80
7C0F80
7E1F80
3FFF00
1FFF00
0FFC00
03F000
ENDCHAR
STARTCHAR odieresis
ENCODING 246
SWIDTH 619 0
DWIDTH 20 0
BBX 18 24 1 0
BITMAP
0E3800
1F7C00
0F3C00
0E3800
000000
000000
000000
03F000
0FFC00
3FFE00
3FFF00
7E1F80
7C0F80
7C0F80
F80780
F807C0
F807C0
7C0F80
7C0F80
7E1F80
3FFF00
1FFF00
0FFC00
03F000
ENDCHAR
STARTCHAR divide
ENCODING 247
SWIDTH 570 0
DWIDTH 18 0
BBX 16 16 1 3
BITMAP
0180
03C0
03C0
03C0
0180
0000
FFFF
FFFF
FFFF
0000
0000
01C0
03C0
03C0
03C0
0180
ENDCHAR
STARTCHAR oslash
ENCODING 248
SWIDTH 619 0
DWIDTH 20 0
BBX 18 17 1 0
BITMAP
03F600
0FFF00
3FFE00
3FFF00
7E1F80
7C3F80
7C7F80
F8F780
F9E7C0
F9C7C0
7F8F80
7F8F80
7F1F80
3FFF00
1FFE00
3FFC00
3BF000
ENDCHAR
STARTCHAR ugrave
ENCODING 249
SWIDTH 657 0
DWIDTH 21 0
BBX 17 24 2 0
BITMAP
3E0000
1F0000
0F8000
07C000
01E000
000000
000000
F80F80
F80F80
F80F80
F80F80
F80F80
F80F80
F80F80
F80F80
F80F80
F80F80
F81F80
F81F80
7C3F80
7FFF80
7FFF80
3FEF80
0F8780
ENDCHAR
STARTCHAR uacute
ENCODING 250
SWIDTH 657 0
DWIDTH 21 0
BBX 17 24 2 0
BITMAP
007C00
00F800
01F000
01E000
03C000
000000
000000
F80F80
F80F80
F80F80
F80F80
F80F80
F80F80
F80F80
F80F80
F80F80
F80F80
F81F80
F81F80
7C3F80
7FFF80
7FFF80
3FEF80
0F8780
ENDCHAR
STARTCHAR ucircumflex
ENCODING 251
SWIDTH 657 0
DWIDTH 21 0
BBX 17 24 2 0
BITMAP
07E000
0FF000
1FF800
1E3C00
381E00
000000
000000
F80F80
F80F80
F80F80
F80F80
F80F80
F80F80
F80F80
F80F80
F80F80
F80F80
F81F80
F81F80
7C3F80
7FFF80
7FFF80
3FEF80
0F8780
ENDCHAR
STARTCHAR udieresis
ENCODING 252
SWIDTH 657 0
DWIDTH 21 0
BBX 17 24 2 0
BITMAP
1E7800
1E7800
1E7800
0E3800
000000
000000
000000
F80F80
F80F80
F80F80
F80F80
F80F80
F80F80
F80F80
F80F80
F80F80
F80F80
F81F80
F81F80
7C3F80
7FFF80
7FFF80
3FEF80
0F8780
ENDCHAR
STARTCHAR yacute
ENCODING 253
SWIDTH 568 0
DWIDTH 18 0
BBX 18 32 0 -8
BITMAP
007E00
007C00
00F000
01E000
03C000
000000
000000
F807C0
7C0F80
7C0F80
7C0F80
3E1F00
3E1F00
1E1F00
1F3E00
1F3E00
0F3C00
0FFC00
07FC00
07F800
07F800
03F800
03F000
01F000
01E000
03E000
03E000
07C000
7FC000
7F8000
7F0000
7C0000
ENDCHAR
STARTCHAR thorn
ENCODING 254
SWIDTH 632 0
DWIDTH 20 0
BBX 17 32 2 -8
BITMAP
F80000
F80000
F80000
F80000
F80000
F80000
F80000
F8F800
FBFC00
FFFE00
FFFF00
FE3F00
FC1F00
F81F00
F80F80
F80F80
F80F80
F81F00
FC1F00
FE3F00
FFFF00
FFFE00
FBFC00
F9F800
F80000
F80000
F80000
F80000
F80000
F80000
F80000
F80000
ENDCHAR
STARTCHAR ydieresis
ENCODING 255
SWIDTH 568 0
DWIDTH 18 0
BBX 18 32 0 -8
BITMAP
0F3C00
0F3C00
0F3C00
0E3800
000000
000000
000000
F807C0
7C0F80
7C0F80
7C0F80
3E1F00
3E1F00
1E1F00
1F3E00
1F3E00
0F3C00
0FFC00
07FC00
07F800
07F800
03F800
03F000
01F000
01E000
03E000
03E000
07C000
7FC000
7F8000
7F0000
7C0000
ENDCHAR
STARTCHAR Amacron
ENCODING 256
SWIDTH 689 0
DWIDTH 22 0
BBX 22 28 0 0
BITMAP
03FF00
03FF00
03FF00
000000
000000
00FC00
01FC00
01FE00
01FE00
03FF00
03CF00
03CF00
07CF80
078780
078780
0F87C0
0F87C0
0F03C0
1FFFE0
1FFFE0
1FFFE0
3FFFF0
3E01F0
3C00F0
7C00F8
7C00F8
7C00F8
F8007C
ENDCHAR
STARTCHAR amacron
ENCODING 257
SWIDTH 604 0
DWIDTH 19 0
BBX 16 22 1 0
BITMAP
1FFC
1FFC
1FFC
0000
0000
07F0
3FFC
3FFE
1FFE
183E
001F
001F
0FFF
3FFF
7FFF
7C1F
F81F
FC3F
FFFF
7FEF
3FCF
1F0F
ENDCHAR
STARTCHAR Abreve
ENCODING 258
SWIDTH 689 0
DWIDTH 22 0
BBX 22 30 0 0
BITMAP
070380
078F80
07FF00
03FE00
00FC00
000000
000000
00FC00
01FC00
01FE00
01FE00
03FF00
03CF00
03CF00
07CF80
078780
078780
0F87C0
0F87C0
0F03C0
1FFFE0
1FFFE0
1FFFE0
3FFFF0
3E01F0
3C00F0
7C00F8
7C00F8
7C00F8
F8007C
ENDCHAR
STARTCHAR abreve
ENCODING 259
SWIDTH 604 0
DWIDTH 19 0
BBX 16 24 1 0
BITMAP
180E
1E3E
1FFC
0FF8
03E0
0000
0000
07F0
3FFC
3FFE
1FFE
183E
001F
001F
0FFF
3FFF
7FFF
7C1F
F81F
FC3F
FFFF
7FEF
3FCF
1F0F
ENDCHAR
STARTCHAR Aogonek
ENCODING 260
SWIDTH 689 0
DWIDTH 22 0
BBX 22 31 0 -8
BITMAP
00FC00
01FC00
01FE00
01FE00
03FF00
03CF00
03CF00
07CF80
078780
078780
0F87C0
0F87C0
0F03C0
1FFFE0
1FFFE0
1FFFE0
3FFFF0
3E01F0
3C00F0
7C00F8
7C00F8
7C00F8
F8007C
0000F0
0001E0
0001C0
0003C0
0003C0
0003F8
0001F8
0000F8
ENDCHAR
STARTCHAR aogonek
ENCODING 261
SWIDTH 604 0
DWIDTH 19 0
BBX 17 25 1 -8
BITMAP
07F000
3FFC00
3FFE00
1FFE00
183E00
001F00
001F00
0FFF00
3FFF00
7FFF00
7C1F00
F81F00
FC3F00
FFFF00
7FEF00
3FCF00
1F0F00
000E00
001C00
003C00
003800
003C00
003F80
001F80
000F80
ENDCHAR
STARTCHAR Cacute
ENCODING 262
SWIDTH 637 0
DWIDTH 20 0
BBX 17 30 2 0
BITMAP
001F00
003E00
007C00
00F000
01E000
000000
000000
01FC00
07FF80
1FFF80
3FFF00
3F0700
7E0000
7C0000
F80000
F80000
F80000
F80000
F80000
F80000
F80000
F80000
F80000
7C0000
7E0000
7F0300
3FFF00
1FFF00
0FFF00
03FC00
ENDCHAR
STARTCHAR cacute
ENCODING 263
SWIDTH 514 0
DWIDTH 16 0
BBX 15 24 1 0
BITMAP
007E
00F8
00F0
01E0
03C0
0000
0000
07F0
1FFC
3FFC
3FF8
7E18
7C00
7C00
F800
F800
F800
7C00
7C00
7E08
7FF8
3FF8
1FF8
07F0
ENDCHAR
STARTCHAR Ccircumflex
ENCODING 264
SWIDTH 637 0
DWIDTH 20 0
BBX 17 30 2 0
BITMAP
01F800
03FC00
07FE00
0F9F00
1E0780
000000
000000
01FC00
07FF80
1FFF80
3FFF00
3F0700
7E0000
7C0000
F80000
F80000
F80000
F80000
F80000
F80000
F80000
F80000
F80000
7C0000
7E0000
7F0300
3FFF00
1FFF00
0FFF00
03FC00
ENDCHAR
STARTCHAR ccircumflex
ENCODING 265
SWIDTH 514 0
DWIDTH 16 0
BBX 15 24 1 0
BITMAP
07E0
0FF0
1FF8
1E7C
381E
0000
0000
07F0
1FFC
3FFC
3FF8
7E18
7C00
7C00
F800
F800
F800
7C00
7C00
7E08
7FF8
3FF8
1FF8
07F0
ENDCHAR
STARTCHAR Cdot
ENCODING 266
SWIDTH 637 0
DWIDTH 20 0
BBX 17 30 2 0
BITMAP
007000
00F800
00F800
00F800
00F000
000000
000000
01FC00
07FF80
1FFF80
3FFF00
3F0700
7E0000
7C0000
F80000
F80000
F80000
F80000
F80000
F80000
F80000
F80000
F80000
7C0000
7E0000
7F0300
3FFF00
1FFF00
0FFF00
03FC00
ENDCHAR
STARTCHAR cdot
ENCODING 267
SWIDTH 514 0
DWIDTH 16 0
BBX 14 25 1 0
BITMAP
00C0
03E0
03E0
03E0
01E0
0000
0000
0000
07F0
1FFC
3FFC
3FF8
7E18
7C00
7C00
F800
F800
F800
7C00
7C00
7E08
7FF8
3FF8
1FF8
07F0
ENDCHAR
STARTCHAR Ccaron
ENCODING 268
SWIDTH 637 0
DWIDTH 20 0
BBX 17 30 2 0
BITMAP
1E0780
0F9F00
07FE00
03FC00
01F800
000000
000000
01FC00
07FF80
1FFF80
3FFF00
3F0700
7E0000
7C0000
F80000
F80000
F80000
F80000
F80000
F80000
F80000
F80000
F80000
7C0000
7E0000
7F0300
3FFF00
1FFF00
0FFF00
03FC00
ENDCHAR
STARTCHAR ccaron
ENCODING 269
SWIDTH 514 0
DWIDTH 16 0
BBX 15 24 1 0
BITMAP
3C1E
1E3C
0F78
07F0
07F0
0000
0000
07F0
1FFC
3FFC
3FF8
7E18
7C00
7C00
F800
F800
F800
7C00
7C00
7E08
7FF8
3FF8
1FF8
07F0
ENDCHAR
STARTCHAR Dcaron
ENCODING 270
SWIDTH 740 0
DWIDTH 24 0
BBX 19 30 3 0
BITMAP
781E00
3E7C00
1FF800
0FF000
07E000
000000
000000
FFE000
FFFC00
FFFE00
FFFF00
F83F80
F80FC0
F807C0
F807E0
F803E0
F803E0
F803E0
F803E0
F803E0
F803E0
F803E0
F807E0
F807C0
F80FC0
F83F80
FFFF00
FFFE00
FFFC00
FFE000
ENDCHAR
STARTCHAR dcaron
ENCODING 271
SWIDTH 632 0
DWIDTH 20 0
BBX 23 24 1 0
BITMAP
000F9E
000F9E
000F9E
000FBC
000FB8
000F80
000F80
0FCF80
1FEF80
3FFF80
7FFF80
7E1F80
7C1F80
7C0F80
F80F80
F80F80
F80F80
780F80
7C0F80
7E1F80
7FFF80
3FFF80
1FEF80
0F8780
ENDCHAR
STARTCHAR Dcroat
ENCODING 272
SWIDTH 740 0
DWIDTH 24 0
BBX 21 23 1 0
BITMAP
3FF800
3FFF00
3FFF80
3FFFC0
3E0FE0
3E03F0
3E01F0
3E01F8
3E00F8
3E00F8
FFC0F8
FFC0F8
FFC0F8
FFC0F8
3E00F8
3E01F8
3E01F0
3E03F0
3E0FE0
3FFFC0
3FFF80
3FFF00
3FF800
ENDCHAR
STARTCHAR dcroat
ENCODING 273
SWIDTH 648 0
DWIDTH 21 0
BBX 19 24 1 0
BITMAP
000F80
000F80
01FFE0
01FFE0
01FFE0
000F80
000F80
0FCF80
1FFF80
3FF780
7FFF80
7E1F80
7C0F80
7C0F80
FC0F80
FC0780
FC0780
7C0F80
7C0F80
7E1F80
7FFF80
3FFF80
1FE780
0F8780
ENDCHAR
STARTCHAR Emacron
ENCODING 274
SWIDTH 560 0
DWIDTH 18 0
BBX 13 28 3 0
BITMAP
7FF0
7FF0
7FF0
0000
0000
FFF8
FFF8
FFF8
FFF8
F800
F800
F800
F800
F800
FFF8
FFF8
FFF8
FFF8
F800
F800
F800
F800
F800
F800
FFF8
FFF8
FFF8
FFF8
ENDCHAR
STARTCHAR emacron
ENCODING 275
SWIDTH 590 0
DWIDTH 19 0
BBX 17 22 1 0
BITMAP
1FFC00
1FFC00
1FFC00
000000
000000
07F000
0FFC00
3FFE00
3E1F00
7C0F00
7C0F00
780F80
FFFF80
FFFF80
FFFF80
780000
7C0000
7E0300
3FFF00
3FFF00
0FFF00
03FC00
ENDCHAR
STARTCHAR Ebreve
ENCODING 276
SWIDTH 560 0
DWIDTH 18 0
BBX 13 30 3 0
BITMAP
E070
F1F0
7FF0
3FE0
1F80
0000
0000
FFF8
FFF8
FFF8
FFF8
F800
F800
F800
F800
F800
FFF8
FFF8
FFF8
FFF8
F800
F800
F800
F800
F800
F800
FFF8
FFF8
FFF8
FFF8
ENDCHAR
STARTCHAR ebreve
ENCODING 277
SWIDTH 590 0
DWIDTH 19 0
BBX 17 24 1 0
BITMAP
380E00
1E3C00
1FFC00
0FF800
03E000
000000
000000
07F000
0FFC00
3FFE00
3E1F00
7C0F00
7C0F00
780F80
FFFF80
FFFF80
FFFF80
780000
7C0000
7E0300
3FFF00
3FFF00
0FFF00
03FC00
ENDCHAR
STARTCHAR Edotaccent
ENCODING 278
SWIDTH 560 0
DWIDTH 18 0
BBX 13 30 3 0
BITMAP
0300
0F80
0F80
0F80
0700
0000
0000
FFF8
FFF8
FFF8
FFF8
F800
F800
F800
F800
F800
FFF8
FFF8
FFF8
FFF8
F800
F800
F800
F800
F800
F800
FFF8
FFF8
FFF8
FFF8
ENDCHAR
STARTCHAR edotaccent
ENCODING 279
SWIDTH 590 0
DWIDTH 19 0
BBX 17 25 1 0
BITMAP
00C000
01E000
03F000
03E000
01E000
000000
000000
000000
07F000
0FFC00
3FFE00
3E1F00
7C0F00
7C0F00
780F80
FFFF80
FFFF80
FFFF80
780000
7C0000
7E0300
3FFF00
3FFF00
0FFF00
03FC00
ENDCHAR
STARTCHAR Eogonek
ENCODING 280
SWIDTH 560 0
DWIDTH 18 0
BBX 13 31 3 -8
BITMAP
FFF8
FFF8
FFF8
FFF8
F800
F800
F800
F800
F800
FFF8
FFF8
FFF8
FFF8
F800
F800
F800
F800
F800
F800
FFF8
FFF8
FFF8
FFF8
00E0
01E0
03C0
03C0
03C0
03F8
01F8
00F8
ENDCHAR
STARTCHAR eogonek
ENCODING 281
SWIDTH 590 0
DWIDTH 19 0
BBX 17 25 1 -8
BITMAP
07F000
0FFC00
3FFE00
3E1F00
7C0F00
7C0F00
780F80
FFFF80
FFFF80
FFFF80
780000
7C0000
7E0300
3FFF00
3FFF00
0FFF00
03FC00
003C00
007800
007000
00F000
00F000
00FE00
007E00
003E00
ENDCHAR
STARTCHAR Ecaron
ENCODING 282
SWIDTH 560 0
DWIDTH 18 0
BBX 13 30 3 0
BITMAP
F078
78F0
3FE0
3FC0
1F80
0000
0000
FFF8
FFF8
FFF8
FFF8
F800
F800
F800
F800
F800
FFF8
FFF8
FFF8
FFF8
F800
F800
F800
F800
F800
F800
FFF8
FFF8
FFF8
FFF8
ENDCHAR
STARTCHAR ecaron
ENCODING 283
SWIDTH 590 0
DWIDTH 19 0
BBX 17 24 1 0
BITMAP
3C1E00
1E3C00
0F7800
07F000
07F000
000000
000000
07F000
0FFC00
3FFE00
3E1F00
7C0F00
7C0F00
780F80
FFFF80
FFFF80
FFFF80
780000
7C0000
7E0300
3FFF00
3FFF00
0FFF00
03FC00
ENDCHAR
STARTCHAR Gcircumflex
ENCODING 284
SWIDTH 724 0
DWIDTH 23 0
BBX 18 30 2 0
BITMAP
01F800
03FC00
03FE00
078F00
0F0780
000000
000000
00FF00
07FFC0
0FFFC0
1FFFC0
3F8180
7E0000
7C0000
FC0000
F80000
F80000
F87FC0
F87FC0
F87FC0
F87FC0
F803C0
F803C0
7C03C0
7E03C0
7F03C0
3FFFC0
1FFFC0
0FFFC0
03FE00
ENDCHAR
STARTCHAR gcircumflex
ENCODING 285
SWIDTH 564 0
DWIDTH 18 0
BBX 18 32 0 -8
BITMAP
03F000
07F800
0FFC00
1F3E00
3C0F00
000000
000000
07FFC0
1FFFC0
3FFF80
3E3E00
7C1F00
7C1F00
7C1F00
3E3E00
3FFE00
1FFC00
0FF000
1C0000
3C0000
3FFC00
1FFF00
0FFF80
3FFF80
780F80
F00780
F00780
F00780
F81F80
7FFF00
3FFE00
0FF000
ENDCHAR
STARTCHAR Gbreve
ENCODING 286
SWIDTH 724 0
DWIDTH 23 0
BBX 18 30 2 0
BITMAP
0E0380
070F00
07FF00
03FE00
00F800
000000
000000
00FF00
07FFC0
0FFFC0
1FFFC0
3F8180
7E0000
7C0000
FC0000
F80000
F80000
F87FC0
F87FC0
F87FC0
F87FC0
F803C0
F803C0
7C03C0
7E03C0
7F03C0
3FFFC0
1FFFC0
0FFFC0
03FE00
ENDCHAR
STARTCHAR gbreve
ENCODING 287
SWIDTH 564 0
DWIDTH 18 0
BBX 18 32 0 -8
BITMAP
1C0E00
1E3E00
0FFC00
0FFC00
03F000
000000
000000
07FFC0
1FFFC0
3FFF80
3E3E00
7C1F00
7C1F00
7C1F00
3E3E00
3FFE00
1FFC00
0FF000
1C0000
3C0000
3FFC00
1FFF00
0FFF80
3FFF80
780F80
F00780
F00780
F00780
F81F80
7FFF00
3FFE00
0FF000
ENDCHAR
STARTCHAR Gdot
ENCODING 288
SWIDTH 724 0
DWIDTH 23 0
BBX 18 30 2 0
BITMAP
003000
007800
00F800
00F800
007800
000000
000000
00FF00
07FFC0
0FFFC0
1FFFC0
3F8180
7E0000
7C0000
FC0000
F80000
F80000
F87FC0
F87FC0
F87FC0
F87FC0
F803C0
F803C0
7C03C0
7E03C0
7F03C0
3FFFC0
1FFFC0
0FFFC0
03FE00
ENDCHAR
STARTCHAR gdot
ENCODING 289
SWIDTH 564 0
DWIDTH 18 0
BBX 18 33 0 -8
BITMAP
00C000
01E000
03F000
01F000
01E000
000000
000000
000000
07FFC0
1FFFC0
3FFF80
3E3E00
7C1F00
7C1F00
7C1F00
3E3E00
3FFE00
1FFC00
0FF000
1C0000
3C0000
3FFC00
1FFF00
0FFF80
3FFF80
780F80
F00780
F00780
F00780
F81F80
7FFF00
3FFE00
0FF000
ENDCHAR
STARTCHAR Gcommaaccent
ENCODING 290
SWIDTH 724 0
DWIDTH 23 0
BBX 18 30 2 -7
BITMAP
00FF00
07FFC0
0FFFC0
1FFFC0
3F8180
7E0000
7C0000
FC0000
F80000
F80000
F87FC0
F87FC0
F87FC0
F87FC0
F803C0
F803C0
7C03C0
7E03C0
7F03C0
3FFFC0
1FFFC0
0FFFC0
03FE00
000000
000000
007800
007800
00F000
00F000
00E000
ENDCHAR
STARTCHAR gcommaaccent
ENCODING 291
SWIDTH 564 0
DWIDTH 18 0
BBX 18 32 0 -8
BITMAP
007000
00F000
00E000
01E000
01E000
000000
000000
07FFC0
1FFFC0
3FFF80
3E3E00
7C1F00
7C1F00
7C1F00
3E3E00
3FFE00
1FFC00
0FF000
1C0000
3C0000
3FFC00
1FFF00
0FFF80
3FFF80
780F80
F00780
F00780
F00780
F81F80
7FFF00
3FFE00
0FF000
ENDCHAR
STARTCHAR Hcircumflex
ENCODING 292
SWIDTH 765 0
DWIDTH 24 0
BBX 18 30 3 0
BITMAP
03F000
07F800
0FFC00
1F3E00
3C0F00
000000
000000
F807C0
F807C0
F807C0
F807C0
F807C0
F807C0
F807C0
F807C0
F807C0
FFFFC0
FFFFC0
FFFFC0
FFFFC0
F807C0
F807C0
F807C0
F807C0
F807C0
F807C0
F807C0
F807C0
F807C0
F807C0
ENDCHAR
STARTCHAR hcircumflex
ENCODING 293
SWIDTH 657 0
DWIDTH 21 0
BBX 17 30 2 0
BITMAP
07E000
0FF000
0FF800
1E3C00
381E00
000000
F80000
F80000
F80000
F80000
F80000
F80000
F80000
F8F800
FBFE00
FFFF00
FFFF00
FE1F00
FC1F80
FC0F80
F80F80
F80F80
F80F80
F80F80
F80F80
F80F80
F80F80
F80F80
F80F80
F80F80
ENDCHAR
STARTCHAR Hbar
ENCODING 294
SWIDTH 765 0
DWIDTH 24 0
BBX 24 23 0 0
BITMAP
1F00F8
1F00F8
1F00F8
FFFFFF
FFFFFF
FFFFFF
1F00F8
1F00F8
1F00F8
1FFFF8
1FFFF8
1FFFF8
1FFFF8
1F00F8
1F00F8
1F00F8
1F00F8
1F00F8
1F00F8
1F00F8
1F00F8
1F00F8
1F00F8
ENDCHAR
STARTCHAR hbar
ENCODING 295
SWIDTH 657 0
DWIDTH 21 0
BBX 19 24 0 0
BITMAP
3E0000
3E0000
FFF000
FFF000
FFF000
3E0000
3E0000
3E3E00
3EFF80
3FFFC0
3FFFC0
3F87C0
3F07E0
3F03E0
3E03E0
3E03E0
3E03E0
3E03E0
3E03E0
3E03E0
3E03E0
3E03E0
3E03E0
3E03E0
ENDCHAR
STARTCHAR Itilde
ENCODING 296
SWIDTH 331 0
DWIDTH 11 0
BBX 13 30 -1 0
BITMAP
3C38
7F70
FFF0
E7E0
C1C0
0000
0000
0F80
0F80
0F80
0F80
0F80
0F80
0F80
0F80
0F80
0F80
0F80
0F80
0F80
0F80
0F80
0F80
0F80
0F80
0F80
0F80
0F80
0F80
0F80
ENDCHAR
STARTCHAR itilde
ENCODING 297
SWIDTH 305 0
DWIDTH 10 0
BBX 13 24 -2 0
BITMAP
1C18
7F38
7FF8
77F0
E1E0
0000
0000
0F80
0F80
0F80
0F80
0F80
0F80
0F80
0F80
0F80
0F80
0F80
0F80
0F80
0F80
0F80
0F80
0F80
ENDCHAR
STARTCHAR Imacron
ENCODING 298
SWIDTH 331 0
DWIDTH 11 0
BBX 11 28 0 0
BITMAP
FFE0
FFE0
FFE0
0000
0000
1F00
1F00
1F00
1F00
1F00
1F00
1F00
1F00
1F00
1F00
1F00
1F00
1F00
1F00
1F00
1F00
1F00
1F00
1F00
1F00
1F00
1F00
1F00
ENDCHAR
STARTCHAR imacron
ENCODING 299
SWIDTH 305 0
DWIDTH 10 0
BBX 10 22 0 0
BITMAP
FFC0
FFC0
FFC0
0000
0000
3E00
3E00
3E00
3E00
3E00
3E00
3E00
3E00
3E00
3E00
3E00
3E00
3E00
3E00
3E00
3E00
3E00
ENDCHAR
STARTCHAR Ibreve
ENCODING 300
SWIDTH 331 0
DWIDTH 11 0
BBX 12 30 -1 0
BITMAP
E070
F1F0
7FE0
3FE0
1F80
0000
0000
0F80
0F80
0F80
0F80
0F80
0F80
0F80
0F80
0F80
0F80
0F80
0F80
0F80
0F80
0F80
0F80
0F80
0F80
0F80
0F80
0F80
0F80
0F80
ENDCHAR
STARTCHAR ibreve
ENCODING 301
SWIDTH 305 0
DWIDTH 10 0
BBX 12 24 -1 0
BITMAP
C070
F1F0
FFE0
7FC0
1F00
0000
0000
1F00
1F00
1F00
1F00
1F00
1F00
1F00
1F00
1F00
1F00
1F00
1F00
1F00
1F00
1F00
1F00
1F00
ENDCHAR
STARTCHAR Iogonek
ENCODING 302
SWIDTH 331 0
DWIDTH 11 0
BBX 6 31 2 -8
BITMAP
7C
7C
7C
7C
7C
7C
7C
7C
7C
7C
7C
7C
7C
7C
7C
7C
7C
7C
7C
7C
7C
7C
7C
38
70
F0
E0
F0
FC
FC
3C
ENDCHAR
STARTCHAR iogonek
ENCODING 303
SWIDTH 305 0
DWIDTH 10 0
BBX 6 32 1 -8
BITMAP
3C
7C
7C
7C
3C
00
00
7C
7C
7C
7C
7C
7C
7C
7C
7C
7C
7C
7C
7C
7C
7C
7C
7C
38
70
F0
E0
E0
FC
FC
3C
ENDCHAR
STARTCHAR Idotaccent
ENCODING 304
SWIDTH 331 0
DWIDTH 11 0
BBX 5 30 3 0
BITMAP
70
F8
F8
F8
F0
00
00
F8
F8
F8
F8
F8
F8
F8
F8
F8
F8
F8
F8
F8
F8
F8
F8
F8
F8
F8
F8
F8
F8
F8
ENDCHAR
STARTCHAR dotlessi
ENCODING 305
SWIDTH 305 0
DWIDTH 10 0
BBX 5 17 2 0
BITMAP
F8
F8
F8
F8
F8
F8
F8
F8
F8
F8
F8
F8
F8
F8
F8
F8
F8
ENDCHAR
STARTCHAR IJ
ENCODING 306
SWIDTH 720 0
DWIDTH 23 0
BBX 17 30 3 -7
BITMAP
F80F80
F80F80
F80F80
F80F80
F80F80
F80F80
F80F80
F80F80
F80F80
F80F80
F80F80
F80F80
F80F80
F80F80
F80F80
F80F80
F80F80
F80F80
F80F80
F80F80
F80F80
F80F80
F80F80
000F80
000F80
001F80
01FF00
01FF00
01FE00
01F800
ENDCHAR
STARTCHAR ij
ENCODING 307
SWIDTH 590 0
DWIDTH 19 0
BBX 15 32 2 -8
BITMAP
783C
F83C
F87E
F83C
783C
0000
0000
F83C
F83C
F83C
F83C
F83C
F83C
F83C
F83C
F83C
F83C
F83C
F83C
F83C
F83C
F83C
F83C
F83C
003C
003C
003C
007C
07FC
07FC
07F8
07E0
ENDCHAR
STARTCHAR Jcircumflex
ENCODING 308
SWIDTH 331 0
DWIDTH 11 0
BBX 14 37 -2 -7
BITMAP
0FC0
1FE0
3FF0
7CF8
F03C
0000
0000
07C0
07C0
07C0
07C0
07C0
07C0
07C0
07C0
07C0
07C0
07C0
07C0
07C0
07C0
07C0
07C0
07C0
07C0
07C0
07C0
07C0
07C0
07C0
07C0
0F80
0F80
FF80
FF00
FE00
FC00
ENDCHAR
STARTCHAR jcircumflex
ENCODING 309
SWIDTH 305 0
DWIDTH 10 0
BBX 13 32 -2 -8
BITMAP
1FC0
1FE0
3DE0
78F0
F078
0000
0000
0F80
0F80
0F80
0F80
0F80
0F80
0F80
0F80
0F80
0F80
0F80
0F80
0F80
0F80
0F80
0F80
0F80
0F80
0F80
0F80
0F80
FF80
FF00
FF00
FC00
ENDCHAR
STARTCHAR Kcommaaccent
ENCODING 310
SWIDTH 664 0
DWIDTH 21 0
BBX 18 30 3 -7
BITMAP
F80FC0
F81F80
F81F00
F83E00
F87E00
F8FC00
F8F800
F9F000
FBE000
FFE000
FFC000
FFE000
FFF000
FDF000
F9F800
F8F800
F87C00
F87E00
F83E00
F83F00
F81F00
F80F80
F80FC0
000000
000000
03C000
03C000
078000
078000
070000
ENDCHAR
STARTCHAR kcommaaccent
ENCODING 311
SWIDTH 620 0
DWIDTH 20 0
BBX 18 31 2 -7
BITMAP
F80000
F80000
F80000
F80000
F80000
F80000
F80000
F80F80
F81F00
F83E00
F87C00
F8F800
F9F000
FBE000
FFE000
FFE000
FFF000
FEF800
FCFC00
F87E00
F83E00
F81F00
F81F80
F80FC0
000000
000000
03E000
03C000
03C000
038000
070000
ENDCHAR
STARTCHAR kgreenlandic
ENCODING 312
SWIDTH 620 0
DWIDTH 20 0
BBX 18 17 2 0
BITMAP
F80F80
F81F00
F83E00
F87C00
F8FC00
F8F800
F9F000
FBE000
FFE000
FFF000
FFF800
FCFC00
F87C00
F83E00
F81F00
F81F80
F80FC0
ENDCHAR
STARTCHAR Lacute
ENCODING 313
SWIDTH 564 0
DWIDTH 18 0
BBX 14 30 3 0
BITMAP
0FC0
0F80
1F00
3C00
7800
0000
0000
F800
F800
F800
F800
F800
F800
F800
F800
F800
F800
F800
F800
F800
F800
F800
F800
F800
F800
F800
FFFC
FFFC
FFFC
FFFC
ENDCHAR
STARTCHAR lacute
ENCODING 314
SWIDTH 305 0
DWIDTH 10 0
BBX 10 30 2 0
BITMAP
0FC0
1F00
3E00
3C00
7800
0000
F800
F800
F800
F800
F800
F800
F800
F800
F800
F800
F800
F800
F800
F800
F800
F800
F800
F800
F800
F800
F800
F800
F800
F800
ENDCHAR
STARTCHAR Lcommaaccent
ENCODING 315
SWIDTH 564 0
DWIDTH 18 0
BBX 14 30 3 -7
BITMAP
F800
F800
F800
F800
F800
F800
F800
F800
F800
F800
F800
F800
F800
F800
F800
F800
F800
F800
F800
FFFC
FFFC
FFFC
FFFC
0000
0000
0780
0F00
0F00
0E00
0E00
ENDCHAR
STARTCHAR lcommaaccent
ENCODING 316
SWIDTH 305 0
DWIDTH 10 0
BBX 5 31 2 -7
BITMAP
F8
F8
F8
F8
F8
F8
F8
F8
F8
F8
F8
F8
F8
F8
F8
F8
F8
F8
F8
F8
F8
F8
F8
F8
00
00
F8
F0
F0
E0
E0
ENDCHAR
STARTCHAR Lcaron
ENCODING 317
SWIDTH 564 0
DWIDTH 18 0
BBX 14 23 3 0
BITMAP
F87C
F878
F878
F870
F8E0
F800
F800
F800
F800
F800
F800
F800
F800
F800
F800
F800
F800
F800
F800
FFFC
FFFC
FFFC
FFFC
ENDCHAR
STARTCHAR lcaron
ENCODING 318
SWIDTH 305 0
DWIDTH 10 0
BBX 12 24 2 0
BITMAP
F8F0
F9F0
F9E0
F9C0
F9C0
F800
F800
F800
F800
F800
F800
F800
F800
F800
F800
F800
F800
F800
F800
F800
F800
F800
F800
F800
ENDCHAR
STARTCHAR Ldot
ENCODING 319
SWIDTH 564 0
DWIDTH 18 0
BBX 14 23 3 0
BITMAP
F800
F800
F800
F800
F800
F800
F800
F800
F830
F8F8
F8F8
F8F8
F870
F800
F800
F800
F800
F800
F800
FFFC
FFFC
FFFC
FFFC
ENDCHAR
STARTCHAR ldot
ENCODING 320
SWIDTH 428 0
DWIDTH 14 0
BBX 12 24 2 0
BITMAP
F800
F800
F800
F800
F800
F800
F800
F800
F800
F800
F860
F9F0
F9F0
F9F0
F8F0
F800
F800
F800
F800
F800
F800
F800
F800
F800
ENDCHAR
STARTCHAR Lslash
ENCODING 321
SWIDTH 564 0
DWIDTH 18 0
BBX 17 23 0 0
BITMAP
1F0000
1F0000
1F0000
1F0000
1F0000
1F0000
1F0000
1F4000
1FE000
1FF000
1FE000
3F8000
7F0000
FF0000
7F0000
1F0000
1F0000
1F0000
1F0000
1FFF80
1FFF80
1FFF80
1FFF80
ENDCHAR
STARTCHAR lslash
ENCODING 322
SWIDTH 330 0
DWIDTH 11 0
BBX 10 24 0 0
BITMAP
1F00
1F00
1F00
1F00
1F00
1F00
1F00
1F00
1F00
1F80
1FC0
1FC0
1FC0
7F00
FF00
7F00
3F00
1F00
1F00
1F00
1F00
1F00
1F00
1F00
ENDCHAR
STARTCHAR Nacute
ENCODING 323
SWIDTH 812 0
DWIDTH 26 0
BBX 20 30 3 0
BITMAP
003F00
003E00
007C00
00F000
01E000
000000
000000
FC00F0
FE00F0
FE00F0
FF00F0
FF80F0
FF80F0
F7C0F0
F7C0F0
F3E0F0
F3E0F0
F1F0F0
F1F8F0
F0F8F0
F07CF0
F07CF0
F03EF0
F03EF0
F01FF0
F01FF0
F00FF0
F007F0
F007F0
F003F0
ENDCHAR
STARTCHAR nacute
ENCODING 324
SWIDTH 657 0
DWIDTH 21 0
BBX 17 24 2 0
BITMAP
007E00
00F800
00F000
01E000
03C000
000000
000000
F0F800
FBFE00
FFFF00
FFFF00
FE1F00
FC1F80
FC0F80
F80F80
F80F80
F80F80
F80F80
F80F80
F80F80
F80F80
F80F80
F80F80
F80F80
ENDCHAR
STARTCHAR Ncommaaccent
ENCODING 325
SWIDTH 812 0
DWIDTH 26 0
BBX 20 30 3 -7
BITMAP
FC00F0
FE00F0
FE00F0
FF00F0
FF80F0
FF80F0
F7C0F0
F7C0F0
F3E0F0
F3E0F0
F1F0F0
F1F8F0
F0F8F0
F07CF0
F07CF0
F03EF0
F03EF0
F01FF0
F01FF0
F00FF0
F007F0
F007F0
F003F0
000000
000000
01F000
01E000
01E000
01C000
038000
ENDCHAR
STARTCHAR ncommaaccent
ENCODING 326
SWIDTH 657 0
DWIDTH 21 0
BBX 17 24 2 -7
BITMAP
F0F800
FBFE00
FFFF00
FFFF00
FE1F00
FC1F80
FC0F80
F80F80
F80F80
F80F80
F80F80
F80F80
F80F80
F80F80
F80F80
F80F80
F80F80
000000
000000
03E000
03C000
03C000
038000
070000
ENDCHAR
STARTCHAR Ncaron
ENCODING 327
SWIDTH 812 0
DWIDTH 26 0
BBX 20 30 3 0
BITMAP
1E0780
0F9F00
07FE00
03FC00
01F800
000000
000000
FC00F0
FE00F0
FE00F0
FF00F0
FF80F0
FF80F0
F7C0F0
F7C0F0
F3E0F0
F3E0F0
F1F0F0
F1F8F0
F0F8F0
F07CF0
F07CF0
F03EF0
F03EF0
F01FF0
F01FF0
F00FF0
F007F0
F007F0
F003F0
ENDCHAR
STARTCHAR ncaron
ENCODING 328
SWIDTH 657 0
DWIDTH 21 0
BBX 17 24 2 0
BITMAP
3C1E00
1E3C00
0FFC00
07F800
03F000
000000
000000
F0F800
FBFE00
FFFF00
FFFF00
FE1F00
FC1F80
FC0F80
F80F80
F80F80
F80F80
F80F80
F80F80
F80F80
F80F80
F80F80
F80F80
F80F80
ENDCHAR
STARTCHAR napostrophe
ENCODING 329
SWIDTH 778 0
DWIDTH 25 0
BBX 23 23 0 0
BITMAP
3C0000
7C0000
7C0000
780000
780000
780000
F3C3E0
F3CFF8
03FFFC
03FFFC
03F87C
03F07C
03E03E
03E03E
03E03E
03E03E
03E03E
03E03E
03E03E
03E03E
03E03E
03E03E
03E03E
ENDCHAR
STARTCHAR Eng
ENCODING 330
SWIDTH 812 0
DWIDTH 26 0
BBX 20 30 3 -7
BITMAP
FC00F0
FE00F0
FF00F0
FF00F0
FF80F0
FFC0F0
F7E0F0
F7E0F0
F3F0F0
F1F8F0
F1F8F0
F0FCF0
F07EF0
F03FF0
F03FF0
F01FF0
F00FF0
F00FF0
F007F0
F003F0
F003F0
F001F0
F000F0
0000F0
0000F0
0001F0
003FE0
003FE0
003FC0
003F00
ENDCHAR
STARTCHAR eng
ENCODING 331
SWIDTH 657 0
DWIDTH 21 0
BBX 17 25 2 -8
BITMAP
F0F800
FBFE00
FFFF00
FFFF00
FE1F00
FC0F80
FC0F80
F80F80
F80F80
F80F80
F80F80
F80F80
F80F80
F80F80
F80F80
F80F80
F80F80
000F80
000F80
000F80
001F80
00FF00
00FF00
00FE00
00FC00
ENDCHAR
STARTCHAR Omacron
ENCODING 332
SWIDTH 795 0
DWIDTH 25 0
BBX 21 28 2 0
BITMAP
07FF00
07FF00
07FF00
000000
000000
01FC00
0FFF80
1FFFC0
3FFFE0
7F07F0
7E03F0
7C01F0
FC01F8
F800F8
F800F8
F800F8
F800F8
F800F8
F800F8
F800F8
F801F8
7C01F0
7E03F0
7F07F0
3FFFE0
1FFFC0
0FFF80
01FC00
ENDCHAR
STARTCHAR omacron
ENCODING 333
SWIDTH 619 0
DWIDTH 20 0
BBX 18 22 1 0
BITMAP
0FFC00
0FFC00
0FFC00
000000
000000
03F000
0FFC00
3FFE00
3FFF00
7E1F80
7C0F80
7C0F80
F80780
F807C0
F807C0
7C0F80
7C0F80
7E1F80
3FFF00
1FFF00
0FFC00
03F000
ENDCHAR
STARTCHAR Obreve
ENCODING 334
SWIDTH 795 0
DWIDTH 25 0
BBX 21 30 2 0
BITMAP
060380
078F00
07FF00
03FE00
00F800
000000
000000
01FC00
0FFF80
1FFFC0
3FFFE0
7F07F0
7E03F0
7C01F0
FC01F8
F800F8
F800F8
F800F8
F800F8
F800F8
F800F8
F800F8
F801F8
7C01F0
7E03F0
7F07F0
3FFFE0
1FFFC0
0FFF80
01FC00
ENDCHAR
STARTCHAR obreve
ENCODING 335
SWIDTH 619 0
DWIDTH 20 0
BBX 18 24 1 0
BITMAP
180E00
1E3E00
1FFC00
0FF800
03E000
000000
000000
03F000
0FFC00
3FFE00
3FFF00
7E1F80
7C0F80
7C0F80
F80780
F807C0
F807C0
7C0F80
7C0F80
7E1F80
3FFF00
1FFF00
0FFC00
03F000
ENDCHAR
STARTCHAR Ohungarumlaut
ENCODING 336
SWIDTH 795 0
DWIDTH 25 0
BBX 21 30 2 0
BITMAP
00FBE0
00F3C0
01E780
03CF00
038E00
000000
000000
01FC00
0FFF80
1FFFC0
3FFFE0
7F07F0
7E03F0
7C01F0
FC01F8
F800F8
F800F8
F800F8
F800F8
F800F8
F800F8
F800F8
F801F8
7C01F0
7E03F0
7F07F0
3FFFE0
1FFFC0
0FFF80
01FC00
ENDCHAR
STARTCHAR ohungarumlaut
ENCODING 337
SWIDTH 619 0
DWIDTH 20 0
BBX 18 24 1 0
BITMAP
03EF80
03CF00
079E00
0F3C00
1E7800
000000
000000
03F000
0FFC00
3FFE00
3FFF00
7E1F80
7C0F80
7C0F80
F80780
F807C0
F807C0
7C0F80
7C0F80
7E1F80
3FFF00
1FFF00
0FFC00
03F000
ENDCHAR
STARTCHAR OE
ENCODING 338
SWIDTH 973 0
DWIDTH 31 0
BBX 27 23 2 0
BITMAP
03FFFFE0
0FFFFFE0
1FFFFFE0
3FFFFFE0
7F07C000
7E03C000
7C03C000
F803C000
F803C000
F803FFE0
F803FFE0
F803FFE0
F803FFE0
F803C000
F803C000
F803C000
7C03C000
7C03C000
7F07C000
3FFFFFE0
1FFFFFE0
0FFFFFE0
03FFFFE0
ENDCHAR
STARTCHAR oe
ENCODING 339
SWIDTH 978 0
DWIDTH 31 0
BBX 29 17 1 0
BITMAP
07F03F00
1FFCFFC0
3FFFFFE0
3FFFE1F0
7E1FC1F0
7C0FC0F0
7C0F80F8
F80FFFF8
F80FFFF8
F80FFFF8
7C0F8000
7C0FC000
7E1FE030
3FFFFFF0
3FFFFFF0
0FFCFFF0
03F03FC0
ENDCHAR
STARTCHAR Racute
ENCODING 340
SWIDTH 660 0
DWIDTH 21 0
BBX 18 30 3 0
BITMAP
00F800
01F000
03E000
07C000
0F0000
000000
000000
FFE000
FFF800
FFFC00
FFFE00
F87E00
F83E00
F81F00
F81F00
F83E00
F87E00
FFFC00
FFF800
FFF000
FFF000
F8F000
F8F800
F87C00
F87C00
F83E00
F81F00
F81F00
F80F80
F80FC0
ENDCHAR
STARTCHAR racute
ENCODING 341
SWIDTH 454 0
DWIDTH 15 0
BBX 12 24 2 0
BITMAP
03F0
03E0
07C0
0F00
1E00
0000
0000
F0F0
F1F0
FBF0
FFF0
FFD0
FE00
FC00
F800
F800
F800
F800
F800
F800
F800
F800
F800
F800
ENDCHAR
STARTCHAR Rcommaaccent
ENCODING 342
SWIDTH 660 0
DWIDTH 21 0
BBX 18 30 3 -7
BITMAP
FFE000
FFF800
FFFC00
FFFE00
F87E00
F83E00
F81F00
F81F00
F83E00
F87E00
FFFC00
FFF800
FFF000
FFF000
F8F000
F8F800
F87C00
F87C00
F83E00
F81F00
F81F00
F80F80
F80FC0
000000
000000
03E000
03C000
03C000
038000
070000
ENDCHAR
STARTCHAR rcommaaccent
ENCODING 343
SWIDTH 454 0
DWIDTH 15 0
BBX 12 24 2 -7
BITMAP
F0F0
F1F0
FBF0
FFF0
FFD0
FE00
FC00
F800
F800
F800
F800
F800
F800
F800
F800
F800
F800
0000
0000
F800
F000
F000
E000
E000
ENDCHAR
STARTCHAR Rcaron
ENCODING 344
SWIDTH 660 0
DWIDTH 21 0
BBX 18 30 3 0
BITMAP
703C00
3C7800
3FF000
1FE000
0FC000
000000
000000
FFE000
FFF800
FFFC00
FFFE00
F87E00
F83E00
F81F00
F81F00
F83E00
F87E00
FFFC00
FFF800
FFF000
FFF000
F8F000
F8F800
F87C00
F87C00
F83E00
F81F00
F81F00
F80F80
F80FC0
ENDCHAR
STARTCHAR rcaron
ENCODING 345
SWIDTH 454 0
DWIDTH 15 0
BBX 14 24 1 0
BITMAP
F03C
7CF8
3FF0
1FE0
0FC0
0000
0000
7878
78F8
7DF8
7FF8
7FE8
7F00
7E00
7C00
7C00
7C00
7C00
7C00
7C00
7C00
7C00
7C00
7C00
ENDCHAR
STARTCHAR Sacute
ENCODING 346
SWIDTH 550 0
DWIDTH 18 0
BBX 16 30 1 0
BITMAP
007C
00F8
01F0
03E0
0780
0000
0000
07F0
1FFE
3FFE
7FFE
7E0C
7C00
7C00
7C00
7E00
3F80
3FE0
0FF8
07FC
01FE
007E
001F
001F
801F
F03E
FFFE
FFFC
FFF8
1FE0
ENDCHAR
STARTCHAR sacute
ENCODING 347
SWIDTH 497 0
DWIDTH 16 0
BBX 14 24 1 0
BITMAP
00F8
01F0
03E0
0780
0F00
0000
0000
0FE0
3FF8
7FF8
7FF8
F830
F800
7F00
7FE0
1FF0
07F8
00FC
007C
E07C
FFF8
FFF8
FFF0
3FC0
ENDCHAR
STARTCHAR Scircumflex
ENCODING 348
SWIDTH 550 0
DWIDTH 18 0
BBX 16 30 1 0
BITMAP
07E0
0FF0
1FF8
3E7C
781E
0000
0000
07F0
1FFE
3FFE
7FFE
7E0C
7C00
7C00
7C00
7E00
3F80
3FE0
0FF8
07FC
01FE
007E
001F
001F
801F
F03E
FFFE
FFFC
FFF8
1FE0
ENDCHAR
STARTCHAR scircumflex
ENCODING 349
SWIDTH 497 0
DWIDTH 16 0
BBX 14 24 1 0
BITMAP
0FC0
1FE0
3FF0
7CF8
F03C
0000
0000
0FE0
3FF8
7FF8
7FF8
F830
F800
7F00
7FE0
1FF0
07F8
00FC
007C
E07C
FFF8
FFF8
FFF0
3FC0
ENDCHAR
STARTCHAR Scedilla
ENCODING 350
SWIDTH 550 0
DWIDTH 18 0
BBX 16 31 1 -8
BITMAP
07F0
1FFE
3FFE
7FFE
7E0C
7C00
7C00
7C00
7E00
3F80
3FE0
0FF8
07FC
01FE
007E
001F
001F
801F
F03E
FFFE
FFFC
FFF8
1FE0
0380
0780
07C0
01E0
01E0
0FE0
0FE0
0F80
ENDCHAR
STARTCHAR scedilla
ENCODING 351
SWIDTH 497 0
DWIDTH 16 0
BBX 14 25 1 -8
BITMAP
0FE0
3FF8
7FF8
7FF8
F830
F800
7F00
7FE0
1FF0
07F8
00FC
007C
E07C
FFF8
FFF8
FFF0
3FC0
0700
0700
0F80
03C0
01C0
1FC0
1FC0
1F80
ENDCHAR
STARTCHAR Scaron
ENCODING 352
SWIDTH 550 0
DWIDTH 18 0
BBX 16 30 1 0
BITMAP
781E
3E7C
1FF8
0FF0
07E0
0000
0000
07F0
1FFE
3FFE
7FFE
7E0C
7C00
7C00
7C00
7E00
3F80
3FE0
0FF8
07FC
01FE
007E
001F
001F
801F
F03E
FFFE
FFFC
FFF8
1FE0
ENDCHAR
STARTCHAR scaron
ENCODING 353
SWIDTH 497 0
DWIDTH 16 0
BBX 14 24 1 0
BITMAP
F03C
7CF8
3FF0
1FE0
0FC0
0000
0000
0FE0
3FF8
7FF8
7FF8
F830
F800
7F00
7FE0
1FF0
07F8
00FC
007C
E07C
FFF8
FFF8
FFF0
3FC0
ENDCHAR
STARTCHAR Tcedilla
ENCODING 354
SWIDTH 579 0
DWIDTH 19 0
BBX 17 31 1 -8
BITMAP
FFFF80
FFFF80
FFFF80
FFFF80
03E000
03E000
03E000
03E000
03E000
03E000
03E000
03E000
03E000
03E000
03E000
03E000
03E000
03E000
03E000
03E000
03E000
03E000
03E000
01C000
03C000
03E000
00F000
00F000
07F000
07F000
07C000
ENDCHAR
STARTCHAR tcedilla
ENCODING 355
SWIDTH 434 0
DWIDTH 14 0
BBX 12 29 1 -8
BITMAP
0E00
1E00
1E00
1E00
3FF0
FFF0
FFF0
FFF0
3E00
3E00
3E00
3E00
3E00
3E00
3E00
3E00
3E00
3FF0
1FF0
1FF0
07E0
0780
0700
0F80
01C0
01E0
0FE0
0FC0
0F80
ENDCHAR
STARTCHAR Tcaron
ENCODING 356
SWIDTH 579 0
DWIDTH 19 0
BBX 17 30 1 0
BITMAP
781E00
3E7C00
1FF800
0FF000
07E000
000000
000000
FFFF80
FFFF80
FFFF80
FFFF80
03E000
03E000
03E000
03E000
03E000
03E000
03E000
03E000
03E000
03E000
03E000
03E000
03E000
03E000
03E000
03E000
03E000
03E000
03E000
ENDCHAR
STARTCHAR tcaron
ENCODING 357
SWIDTH 434 0
DWIDTH 14 0
BBX 14 24 1 0
BITMAP
003C
007C
0078
0E70
1E70
1E00
1E00
3FF0
FFF0
FFF0
FFF0
3E00
3E00
3E00
3E00
3E00
3E00
3E00
3E00
3E00
3FF0
1FF0
1FF0
07E0
ENDCHAR
STARTCHAR Tbar
ENCODING 358
SWIDTH 579 0
DWIDTH 19 0
BBX 17 23 1 0
BITMAP
FFFF80
FFFF80
FFFF80
FFFF80
03E000
03E000
03E000
03E000
03E000
03E000
3FFE00
3FFE00
3FFE00
3FFE00
03E000
03E000
03E000
03E000
03E000
03E000
03E000
03E000
03E000
ENDCHAR
STARTCHAR tbar
ENCODING 359
SWIDTH 434 0
DWIDTH 14 0
BBX 12 21 1 0
BITMAP
0E00
1E00
1E00
1E00
3FF0
FFF0
FFF0
FFF0
3E00
3E00
FFE0
FFE0
FFE0
3E00
3E00
3E00
3E00
3FF0
1FF0
1FF0
07E0
ENDCHAR
STARTCHAR Utilde
ENCODING 360
SWIDTH 755 0
DWIDTH 24 0
BBX 18 30 3 0
BITMAP
070600
0FCE00
1FFE00
1CFC00
183800
000000
000000
F807C0
F807C0
F807C0
F807C0
F807C0
F807C0
F807C0
F807C0
F807C0
F807C0
F807C0
F807C0
F807C0
F807C0
F807C0
F807C0
F807C0
F807C0
FE1F80
7FFF80
3FFF00
1FFE00
07F800
ENDCHAR
STARTCHAR utilde
ENCODING 361
SWIDTH 657 0
DWIDTH 21 0
BBX 17 24 2 0
BITMAP
0F0E00
1FCE00
3FFC00
39FC00
307000
000000
000000
F80F80
F80F80
F80F80
F80F80
F80F80
F80F80
F80F80
F80F80
F80F80
F80F80
F81F80
F81F80
7C3F80
7FFF80
7FFF80
3FEF80
0F8780
ENDCHAR
STARTCHAR Umacron
ENCODING 362
SWIDTH 755 0
DWIDTH 24 0
BBX 18 28 3 0
BITMAP
0FFC00
0FFC00
0FFC00
000000
000000
F807C0
F807C0
F807C0
F807C0
F807C0
F807C0
F807C0
F807C0
F807C0
F807C0
F807C0
F807C0
F807C0
F807C0
F807C0
F807C0
F807C0
F807C0
FE1F80
7FFF80
3FFF00
1FFE00
07F800
ENDCHAR
STARTCHAR umacron
ENCODING 363
SWIDTH 657 0
DWIDTH 21 0
BBX 17 22 2 0
BITMAP
1FFC00
1FFC00
1FFC00
000000
000000
F80F80
F80F80
F80F80
F80F80
F80F80
F80F80
F80F80
F80F80
F80F80
F80F80
F81F80
F81F80
7C3F80
7FFF80
7FFF80
3FEF80
0F8780
ENDCHAR
STARTCHAR Ubreve
ENCODING 364
SWIDTH 755 0
DWIDTH 24 0
BBX 18 30 3 0
BITMAP
1C0E00
1E3E00
0FFC00
0FF800
03F000
000000
000000
F807C0
F807C0
F807C0
F807C0
F807C0
F807C0
F807C0
F807C0
F807C0
F807C0
F807C0
F807C0
F807C0
F807C0
F807C0
F807C0
F807C0
F807C0
FE1F80
7FFF80
3FFF00
1FFE00
07F800
ENDCHAR
STARTCHAR ubreve
ENCODING 365
SWIDTH 657 0
DWIDTH 21 0
BBX 17 24 2 0
BITMAP
380C00
3C7C00
1FFC00
0FF800
07E000
000000
000000
F80F80
F80F80
F80F80
F80F80
F80F80
F80F80
F80F80
F80F80
F80F80
F80F80
F81F80
F81F80
7C3F80
7FFF80
7FFF80
3FEF80
0F8780
ENDCHAR
STARTCHAR Uring
ENCODING 366
SWIDTH 755 0
DWIDTH 24 0
BBX 18 32 3 0
BITMAP
01E000
03F000
073800
063800
073800
03F000
01E000
000000
000000
F807C0
F807C0
F807C0
F807C0
F807C0
F807C0
F807C0
F807C0
F807C0
F807C0
F807C0
F807C0
F807C0
F807C0
F807C0
F807C0
F807C0
F807C0
FE1F80
7FFF80
3FFF00
1FFE00
07F800
ENDCHAR
STARTCHAR uring
ENCODING 367
SWIDTH 657 0
DWIDTH 21 0
BBX 17 26 2 0
BITMAP
03C000
07F000
0E7000
0E3000
0E7000
07F000
03C000
000000
000000
F80F80
F80F80
F80F80
F80F80
F80F80
F80F80
F80F80
F80F80
F80F80
F80F80
F81F80
F81F80
7C3F80
7FFF80
7FFF80
3FEF80
0F8780
ENDCHAR
STARTCHAR Uhungarumlaut
ENCODING 368
SWIDTH 755 0
DWIDTH 24 0
BBX 18 30 3 0
BITMAP
01F7C0
03EF80
07DF00
071C00
0E3800
000000
000000
F807C0
F807C0
F807C0
F807C0
F807C0
F807C0
F807C0
F807C0
F807C0
F807C0
F807C0
F807C0
F807C0
F807C0
F807C0
F807C0
F807C0
F807C0
FE1F80
7FFF80
3FFF00
1FFE00
07F800
ENDCHAR
STARTCHAR uhungarumlaut
ENCODING 369
SWIDTH 657 0
DWIDTH 21 0
BBX 17 24 2 0
BITMAP
03EF80
03CF00
079E00
0F3C00
1E7800
000000
000000
F80F80
F80F80
F80F80
F80F80
F80F80
F80F80
F80F80
F80F80
F80F80
F80F80
F81F80
F81F80
7C3F80
7FFF80
7FFF80
3FEF80
0F8780
ENDCHAR
STARTCHAR Uogonek
ENCODING 370
SWIDTH 755 0
DWIDTH 24 0
BBX 18 31 3 -8
BITMAP
F807C0
F807C0
F807C0
F807C0
F807C0
F807C0
F807C0
F807C0
F807C0
F807C0
F807C0
F807C0
F807C0
F807C0
F807C0
F807C0
F807C0
F807C0
FE1F80
7FFF80
3FFF00
1FFE00
07F800
007000
00E000
01C000
03C000
03C000
03F800
01F800
00F800
ENDCHAR
STARTCHAR uogonek
ENCODING 371
SWIDTH 657 0
DWIDTH 21 0
BBX 17 25 2 -8
BITMAP
F80F80
F80F80
F80F80
F80F80
F80F80
F80F80
F80F80
F80F80
F80F80
F80F80
F81F80
F81F80
7C3F80
7FFF80
7FFF80
3FEF80
0F8780
000F00
001E00
003C00
003C00
003C00
003F80
001F80
000F80
ENDCHAR
STARTCHAR Wcircumflex
ENCODING 372
SWIDTH 966 0
DWIDTH 31 0
BBX 31 30 0 0
BITMAP
000FC000
001FE000
003FF000
003C7800
00703C00
00000000
00000000
F807C03E
F807C03E
7807C03C
7C0FE07C
7C0FE07C
7C0FE07C
3C0EE078
3E1EF0F8
3E1EF0F8
3E1EF0F8
1E3EF8F0
1E3C78F0
1F3C79F0
1F3C79F0
0F7C79E0
0F783DE0
0F783FE0
0FF83FE0
07F83FC0
07F01FC0
07F01FC0
07F01FC0
03E00F80
ENDCHAR
STARTCHAR wcircumflex
ENCODING 373
SWIDTH 855 0
DWIDTH 27 0
BBX 27 24 0 0
BITMAP
003F8000
003F8000
007BC000
00F1E000
01E0F000
00000000
00000000
F81F03E0
781F83C0
7C3F87C0
7C3F87C0
3C3B8780
3C3B8780
3E7BCF80
3E7BCF80
1E71CF00
1E71CF00
1FF1FF00
0FF1FE00
0FE0FE00
0FE0FE00
07E0FC00
07E0FC00
07C0FC00
ENDCHAR
STARTCHAR Ycircumflex
ENCODING 374
SWIDTH 624 0
DWIDTH 20 0
BBX 20 30 0 0
BITMAP
01F800
03FC00
07FE00
0F1E00
1E0780
000000
000000
FC03F0
7C03E0
7E07E0
3E07C0
3F0FC0
1F0F80
1F9F00
0F9F00
07FE00
07FE00
03FC00
03FC00
01F800
01F800
00F000
00F000
00F000
00F000
00F000
00F000
00F000
00F000
00F000
ENDCHAR
STARTCHAR ycircumflex
ENCODING 375
SWIDTH 568 0
DWIDTH 18 0
BBX 18 32 0 -8
BITMAP
03F000
07F800
0FFC00
1F3E00
3C0F00
000000
000000
F807C0
7C0F80
7C0F80
7C0F80
3E1F00
3E1F00
1E1F00
1F3E00
1F3E00
0F3C00
0FFC00
07FC00
07F800
07F800
03F800
03F000
01F000
01E000
03E000
03E000
07C000
7FC000
7F8000
7F0000
7C0000
ENDCHAR
STARTCHAR Ydieresis
ENCODING 376
SWIDTH 624 0
DWIDTH 20 0
BBX 20 29 0 0
BITMAP
071C00
079E00
079E00
071C00
000000
000000
FC03F0
7C03E0
7E07E0
3E07C0
3F0FC0
1F0F80
1F9F00
0F9F00
07FE00
07FE00
03FC00
03FC00
01F800
01F800
00F000
00F000
00F000
00F000
00F000
00F000
00F000
00F000
00F000
ENDCHAR
STARTCHAR Zacute
ENCODING 377
SWIDTH 579 0
DWIDTH 19 0
BBX 17 30 1 0
BITMAP
007C00
00F800
01F000
03E000
078000
000000
000000
FFFF80
FFFF80
FFFF80
FFFF80
001F00
003E00
007E00
007C00
00F800
01F000
03F000
03E000
07C000
0FC000
0F8000
1F0000
3E0000
7E0000
7C0000
FFFF80
FFFF80
FFFF80
FFFF80
ENDCHAR
STARTCHAR zacute
ENCODING 378
SWIDTH 487 0
DWIDTH 16 0
BBX 14 24 1 0
BITMAP
00F8
01F0
03E0
07C0
0F00
0000
0000
FFFC
FFFC
FFFC
FFFC
00F8
01F0
03E0
07C0
0F80
0F80
1F00
3E00
7C00
FFFC
FFFC
FFFC
FFFC
ENDCHAR
STARTCHAR Zdotaccent
ENCODING 379
SWIDTH 579 0
DWIDTH 19 0
BBX 17 30 1 0
BITMAP
01C000
03E000
03E000
03E000
01C000
000000
000000
FFFF80
FFFF80
FFFF80
FFFF80
001F00
003E00
007E00
007C00
00F800
01F000
03F000
03E000
07C000
0FC000
0F8000
1F0000
3E0000
7E0000
7C0000
FFFF80
FFFF80
FFFF80
FFFF80
ENDCHAR
STARTCHAR zdotaccent
ENCODING 380
SWIDTH 487 0
DWIDTH 16 0
BBX 14 25 1 0
BITMAP
0300
0F80
0F80
0F80
0780
0000
0000
0000
FFFC
FFFC
FFFC
FFFC
00F8
01F0
03E0
07C0
0F80
0F80
1F00
3E00
7C00
FFFC
FFFC
FFFC
FFFC
ENDCHAR
STARTCHAR Zcaron
ENCODING 381
SWIDTH 579 0
DWIDTH 19 0
BBX 17 30 1 0
BITMAP
381E00
1E3C00
1FF800
0FF000
07E000
000000
000000
FFFF80
FFFF80
FFFF80
FFFF80
001F00
003E00
007E00
007C00
00F800
01F000
03F000
03E000
07C000
0FC000
0F8000
1F0000
3E0000
7E0000
7C0000
FFFF80
FFFF80
FFFF80
FFFF80
ENDCHAR
STARTCHAR zcaron
ENCODING 382
SWIDTH 487 0
DWIDTH 16 0
BBX 14 24 1 0
BITMAP
F03C
7CF8
3FF0
1FE0
0FC0
0000
0000
FFFC
FFFC
FFFC
FFFC
00F8
01F0
03E0
07C0
0F80
0F80
1F00
3E00
7C00
FFFC
FFFC
FFFC
FFFC
ENDCHAR
STARTCHAR longs
ENCODING 383
SWIDTH 382 0
DWIDTH 12 0
BBX 11 24 2 0
BITMAP
1FC0
3FE0
7FC0
7FC0
7C00
F800
F800
F800
F800
F800
F800
F800
F800
F800
F800
F800
F800
F800
F800
F800
F800
F800
F800
F800
ENDCHAR
STARTCHAR florin
ENCODING 402
SWIDTH 570 0
DWIDTH 18 0
BBX 13 31 3 -8
BITMAP
01F8
07F8
0FF8
0FF8
0F80
0F80
0F80
1FF0
7FF0
7FF0
7FF0
0F80
0F80
0F80
0F80
0F80
0F80
0F80
0F80
0F80
0F80
0F80
0F80
0F80
0F80
0F80
1F00
FF00
FF00
FE00
FC00
ENDCHAR
STARTCHAR Ohorn
ENCODING 416
SWIDTH 825 0
DWIDTH 26 0
BBX 25 24 2 0
BITMAP
00000F80
01FC0F80
0FFF8F00
1FFFDF00
3FFFFE00
7F07FC00
7E03F800
7C01F000
FC01F800
F800F800
F800F800
F800F800
F800F800
F800F800
F800F800
F800F800
F801F800
7C01F000
7E03F000
7F07F000
3FFFE000
1FFFC000
0FFF8000
01FC0000
ENDCHAR
STARTCHAR ohorn
ENCODING 417
SWIDTH 679 0
DWIDTH 22 0
BBX 22 19 1 0
BITMAP
00007C
00007C
03F07C
0FFCF8
3FFFF0
3FFFE0
7E1F80
7C0F80
7C0F80
F807C0
F807C0
F807C0
7C0F80
7C0F80
7E1F80
3FFF00
1FFF00
0FFC00
03F000
ENDCHAR
STARTCHAR Uhorn
ENCODING 431
SWIDTH 884 0
DWIDTH 28 0
BBX 25 24 3 0
BITMAP
00000F80
F807CF80
F807CF80
F807DF00
F807FF00
F807FC00
F807F000
F807C000
F807C000
F807C000
F807C000
F807C000
F807C000
F807C000
F807C000
F807C000
F807C000
F807C000
F807C000
FE1F8000
7FFF8000
3FFF0000
1FFE0000
07F80000
ENDCHAR
STARTCHAR uhorn
ENCODING 432
SWIDTH 759 0
DWIDTH 24 0
BBX 24 20 2 0
BITMAP
00001F
00001F
00003E
F80FBE
F80FFC
F80FFC
F80FF8
F80FE0
F80F80
F80F80
F80F80
F80F80
F80F80
F81F80
F81F80
7C3F80
7FFF80
7FFF80
3FEF80
0F8780
ENDCHAR
STARTCHAR uni01F0
ENCODING 496
SWIDTH 305 0
DWIDTH 10 0
BBX 13 32 -2 -8
BITMAP
F078
78F0
3DE0
1FE0
0FC0
0000
0000
0F80
0F80
0F80
0F80
0F80
0F80
0F80
0F80
0F80
0F80
0F80
0F80
0F80
0F80
0F80
0F80
0F80
0F80
0F80
0F80
0F80
FF80
FF00
FF00
FC00
ENDCHAR
STARTCHAR Aringacute
ENCODING 506
SWIDTH 689 0
DWIDTH 22 0
BBX 22 30 0 0
BITMAP
001F80
003E00
007800
000000
00F800
00FC00
01CE00
018E00
01CE00
00FC00
01FC00
01FE00
01FE00
03FF00
03CF00
03CF00
07C780
078780
0F87C0
0F03C0
0F03C0
1FFFE0
1FFFE0
3FFFE0
3FFFF0
3E01F0
7C00F8
7C00F8
7C00F8
F8007C
ENDCHAR
STARTCHAR aringacute
ENCODING 507
SWIDTH 604 0
DWIDTH 19 0
BBX 16 30 1 0
BITMAP
007C
00F8
01E0
0000
0000
03E0
07F0
0738
0638
0738
07F0
03E0
0000
07F0
3FFC
3FFE
1FFE
183E
001F
001F
0FFF
3FFF
7FFF
7C1F
F81F
FC3F
FFFF
7FEF
3FCF
1F0F
ENDCHAR
STARTCHAR AEacute
ENCODING 508
SWIDTH 952 0
DWIDTH 30 0
BBX 28 30 0 0
BITMAP
00001F00
00003E00
00007C00
00007800
0000E000
00000000
00000000
003FFFF0
007FFFF0
007FFFF0
00FFFFF0
00F9F000
00F1F000
01F1F000
01E1F000
03E1F000
03C1FFF0
07C1FFF0
07C1FFF0
0781FFF0
0FFFF000
0FFFF000
1FFFF000
1FFFF000
3E01F000
3E01F000
3C01FFF0
7C01FFF0
7C01FFF0
F801FFF0
ENDCHAR
STARTCHAR aeacute
ENCODING 509
SWIDTH 916 0
DWIDTH 29 0
BBX 27 24 1 0
BITMAP
0001F000
0003E000
0007C000
000F8000
001E0000
00000000
00000000
07F0FC00
3FFBFF00
3FFFFF80
1FFF87C0
183F03C0
001F03C0
001F03E0
0FFFFFE0
3FFFFFE0
7FFFFFE0
7C1F0000
F81F0000
FC3F80C0
7FFFFFC0
7FF7FFC0
3FE3FFC0
1F80FF00
ENDCHAR
STARTCHAR Oslashacute
ENCODING 510
SWIDTH 795 0
DWIDTH 25 0
BBX 21 31 2 -1
BITMAP
001F80
003F00
003C00
007800
00F000
000000
000040
01FCE0
0FFFE0
1FFFC0
3FFFE0
7F07F0
7E07F0
7C0FF0
F81EF8
F81CF8
F83CF8
F838F8
F870F8
F8F0F8
F8E0F8
F9C0F8
FBC1F8
7F81F0
7F03F0
7F07F0
3FFFE0
1FFFC0
3FFF80
39FC00
100000
ENDCHAR
STARTCHAR oslashacute
ENCODING 511
SWIDTH 619 0
DWIDTH 20 0
BBX 18 24 1 0
BITMAP
007E00
007C00
00F000
01E000
03C000
000000
000000
03F600
0FFF00
3FFE00
3FFF00
7E1F80
7C3F80
7C7F80
F8F780
F9E7C0
F9C7C0
7F8F80
7F8F80
7F1F80
3FFF00
1FFE00
3FFC00
3BF000
ENDCHAR
STARTCHAR Scommaaccent
ENCODING 536
SWIDTH 550 0
DWIDTH 18 0
BBX 16 30 1 -7
BITMAP
07F0
1FFE
3FFE
7FFE
7E0C
7C00
7C00
7C00
7E00
3F80
3FE0
0FF8
07FC
01FE
007E
001F
001F
801F
F03E
FFFE
FFFC
FFF8
1FE0
0000
0000
07C0
0780
0780
0700
0F00
ENDCHAR
STARTCHAR scommaaccent
ENCODING 537
SWIDTH 497 0
DWIDTH 16 0
BBX 14 24 1 -7
BITMAP
0FE0
3FF8
7FF8
7FF8
F830
F800
7F00
7FE0
1FF0
07F8
00FC
007C
E07C
FFF8
FFF8
FFF0
3FC0
0000
0000
0F80
0F00
0F00
0E00
0E00
ENDCHAR
STARTCHAR Tcommaaccent
ENCODING 538
SWIDTH 579 0
DWIDTH 19 0
BBX 17 30 1 -7
BITMAP
FFFF80
FFFF80
FFFF80
FFFF80
03E000
03E000
03E000
03E000
03E000
03E000
03E000
03E000
03E000
03E000
03E000
03E000
03E000
03E000
03E000
03E000
03E000
03E000
03E000
000000
000000
03C000
03C000
038000
078000
070000
ENDCHAR
STARTCHAR tcommaaccent
ENCODING 539
SWIDTH 434 0
DWIDTH 14 0
BBX 12 28 1 -7
BITMAP
0E00
1E00
1E00
1E00
3FF0
FFF0
FFF0
FFF0
3E00
3E00
3E00
3E00
3E00
3E00
3E00
3E00
3E00
3FF0
1FF0
1FF0
07E0
0000
0000
0780
0F00
0F00
0E00
0E00
ENDCHAR
STARTCHAR dotlessj
ENCODING 567
SWIDTH 305 0
DWIDTH 10 0
BBX 9 25 -2 -8
BITMAP
0F80
0F80
0F80
0F80
0F80
0F80
0F80
0F80
0F80
0F80
0F80
0F80
0F80
0F80
0F80
0F80
0F80
0F80
0F80
0F80
0F80
FF80
FF00
FF00
FC00
ENDCHAR
STARTCHAR uni02BC
ENCODING 700
SWIDTH 216 0
DWIDTH 7 0
BBX 7 8 0 15
BITMAP
3E
3C
7C
7C
78
78
70
F0
ENDCHAR
STARTCHAR circumflex
ENCODING 710
SWIDTH 606 0
DWIDTH 19 0
BBX 13 5 3 19
BITMAP
1FC0
1FC0
3DE0
78F0
F078
ENDCHAR
STARTCHAR caron
ENCODING 711
SWIDTH 606 0
DWIDTH 19 0
BBX 13 5 3 19
BITMAP
F078
78F0
3DE0
1FC0
1FC0
ENDCHAR
STARTCHAR macron
ENCODING 713
SWIDTH 606 0
DWIDTH 19 0
BBX 11 3 4 19
BITMAP
FFE0
FFE0
FFE0
ENDCHAR
STARTCHAR breve
ENCODING 728
SWIDTH 606 0
DWIDTH 19 0
BBX 13 5 3 19
BITMAP
E038
78F0
7FF0
3FE0
0F80
ENDCHAR
STARTCHAR dotaccent
ENCODING 729
SWIDTH 305 0
DWIDTH 10 0
BBX 6 5 2 20
BITMAP
30
78
FC
F8
78
ENDCHAR
STARTCHAR ring
ENCODING 730
SWIDTH 577 0
DWIDTH 18 0
BBX 8 7 5 19
BITMAP
3C
7E
E7
E7
E7
7E
3C
ENDCHAR
STARTCHAR ogonek
ENCODING 731
SWIDTH 206 0
DWIDTH 7 0
BBX 7 8 0 -8
BITMAP
3C
78
70
F0
F0
FE
7E
3E
ENDCHAR
STARTCHAR tilde
ENCODING 732
SWIDTH 606 0
DWIDTH 19 0
BBX 13 5 3 19
BITMAP
3C18
7F38
7FF0
E7F0
E1E0
ENDCHAR
STARTCHAR hungarumlaut
ENCODING 733
SWIDTH 587 0
DWIDTH 19 0
BBX 13 5 3 19
BITMAP
3EF8
3CF0
79E0
F3C0
E380
ENDCHAR
STARTCHAR uni02F3
ENCODING 755
SWIDTH 333 0
DWIDTH 11 0
BBX 9 7 1 -9
BITMAP
3E00
7F00
6700
E380
6700
7F00
3E00
ENDCHAR
STARTCHAR uni0300
ENCODING 768
SWIDTH 0 0
DWIDTH 0 0
BBX 9 5 -16 19
BITMAP
FC00
7E00
1E00
0F00
0780
ENDCHAR
STARTCHAR uni0301
ENCODING 769
SWIDTH 0 0
DWIDTH 0 0
BBX 9 5 -13 19
BITMAP
1F80
1F00
3E00
7800
F000
ENDCHAR
STARTCHAR uni0303
ENCODING 771
SWIDTH 0 0
DWIDTH 0 0
BBX 13 5 -17 19
BITMAP
1C18
3F38
7FF8
77F0
E1E0
ENDCHAR
STARTCHAR hook
ENCODING 777
SWIDTH 0 0
DWIDTH 0 0
BBX 7 8 -13 19
BITMAP
FC
FE
FE
0E
0E
3E
3C
38
ENDCHAR
STARTCHAR uni030F
ENCODING 783
SWIDTH 0 0
DWIDTH 0 0
BBX 14 5 -18 19
BITMAP
FBE0
79F0
3CF0
1E78
0E3C
ENDCHAR
STARTCHAR dotbelow
ENCODING 803
SWIDTH 0 0
DWIDTH 0 0
BBX 6 5 -13 -7
BITMAP
78
F8
FC
78
30
ENDCHAR
STARTCHAR tonos
ENCODING 900
SWIDTH 577 0
DWIDTH 18 0
BBX 6 6 7 19
BITMAP
7C
78
78
70
F0
E0
ENDCHAR
STARTCHAR dieresistonos
ENCODING 901
SWIDTH 577 0
DWIDTH 18 0
BBX 12 7 3 20
BITMAP
0780
0780
0700
E770
FEF0
F0F0
E070
ENDCHAR
STARTCHAR Alphatonos
ENCODING 902
SWIDTH 689 0
DWIDTH 22 0
BBX 23 24 -1 0
BITMAP
7C0000
787E00
78FE00
F0FF00
F0FF00
E1FF80
01E780
01E780
03E7C0
03C3C0
03C3C0
07C3E0
07C3E0
0781E0
0FFFF0
0FFFF0
0FFFF0
1FFFF8
1F00F8
1E0078
3E007C
3E007C
3E007C
7C003E
ENDCHAR
STARTCHAR anoteleia
ENCODING 903
SWIDTH 285 0
DWIDTH 9 0
BBX 5 5 2 9
BITMAP
70
F8
F8
F8
70
ENDCHAR
STARTCHAR Epsilontonos
ENCODING 904
SWIDTH 629 0
DWIDTH 20 0
BBX 20 24 -2 0
BITMAP
7C0000
79FFF0
79FFF0
71FFF0
71FFF0
E1F000
01F000
01F000
01F000
01F000
01FFF0
01FFF0
01FFF0
01FFF0
01F000
01F000
01F000
01F000
01F000
01F000
01FFF0
01FFF0
01FFF0
01FFF0
ENDCHAR
STARTCHAR Etatonos
ENCODING 905
SWIDTH 834 0
DWIDTH 27 0
BBX 25 24 -2 0
BITMAP
7C000000
79F00780
79F00780
71F00780
71F00780
E1F00780
01F00780
01F00780
01F00780
01F00780
01FFFF80
01FFFF80
01FFFF80
01FFFF80
01F00780
01F00780
01F00780
01F00780
01F00780
01F00780
01F00780
01F00780
01F00780
01F00780
ENDCHAR
STARTCHAR Iotatonos
ENCODING 906
SWIDTH 512 0
DWIDTH 16 0
BBX 14 24 -2 0
BITMAP
7C00
787C
787C
707C
707C
E07C
007C
007C
007C
007C
007C
007C
007C
007C
007C
007C
007C
007C
007C
007C
007C
007C
007C
007C
ENDCHAR
STARTCHAR Omicrontonos
ENCODING 908
SWIDTH 835 0
DWIDTH 27 0
BBX 25 24 -1 0
BITMAP
7C000000
781FE000
787FF800
F1FFFC00
F3FFFE00
E3F07F00
07E01F00
07C01F80
07C00F80
0FC00F80
0F800F80
0F800F80
0F800F80
0F800F80
0F800F80
0F800F80
07C00F80
07C01F80
07E01F00
03F07F00
03FFFE00
01FFFC00
007FF800
001FE000
ENDCHAR
STARTCHAR Upsilontonos
ENCODING 910
SWIDTH 764 0
DWIDTH 24 0
BBX 26 24 -2 0
BITMAP
7C000000
79F007C0
79F80FC0
F0F80F80
F0FC1F80
E07C1F00
007E3F00
003E3E00
001F7C00
001F7C00
000FF800
000FF800
0007F000
0007F000
0003E000
0003E000
0003E000
0003E000
0003E000
0003E000
0003E000
0003E000
0003E000
0003E000
ENDCHAR
STARTCHAR Omegatonos
ENCODING 911
SWIDTH 786 0
DWIDTH 25 0
BBX 27 24 -1 0
BITMAP
7C000000
781FE000
787FF800
F1FFFE00
F3FFFF00
E7F07F00
07E01F80
07C00F80
0FC00FC0
0F8007C0
0F8007C0
0F8007C0
0F8007C0
0F800780
07800F80
07C00F80
03C00F00
03E01F00
01F03E00
00F87C00
1FF87FE0
1FF87FE0
1FF87FE0
1FF87FE0
ENDCHAR
STARTCHAR iotadieresistonos
ENCODING 912
SWIDTH 407 0
DWIDTH 13 0
BBX 13 27 -1 0
BITMAP
03C0
0780
0780
F770
F6F0
F0F0
6070
0000
0000
0000
1F00
1F00
1F00
1F00
1F00
1F00
1F00
1F00
1F00
1F00
1F00
1F00
0F80
0FF8
0FF8
07F8
03F8
ENDCHAR
STARTCHAR Alpha
ENCODING 913
SWIDTH 689 0
DWIDTH 22 0
BBX 22 23 0 0
BITMAP
00FC00
01FC00
01FE00
01FE00
03FF00
03CF00
03CF00
07CF80
078780
078780
0F87C0
0F87C0
0F03C0
1FFFE0
1FFFE0
1FFFE0
3FFFF0
3E01F0
3C00F0
7C00F8
7C00F8
7C00F8
F8007C
ENDCHAR
STARTCHAR Beta
ENCODING 914
SWIDTH 671 0
DWIDTH 22 0
BBX 17 23 3 0
BITMAP
FFF000
FFFE00
FFFF00
FFFF00
F81F80
F80F80
F80F80
F80F80
F81F00
FFFE00
FFFC00
FFFE00
FFFF00
F81F80
F80F80
F80F80
F80F80
F80F80
F81F80
FFFF00
FFFF00
FFFE00
FFF000
ENDCHAR
STARTCHAR Gamma
ENCODING 915
SWIDTH 561 0
DWIDTH 18 0
BBX 14 23 3 0
BITMAP
FFFC
FFFC
FFFC
FFFC
F800
F800
F800
F800
F800
F800
F800
F800
F800
F800
F800
F800
F800
F800
F800
F800
F800
F800
F800
ENDCHAR
STARTCHAR uni0394
ENCODING 916
SWIDTH 658 0
DWIDTH 21 0
BBX 19 23 1 0
BITMAP
01F000
03F800
03F800
03F800
07BC00
07BC00
07BC00
0FBE00
0F1E00
0F1E00
1F1F00
1E0F00
1E0F00
3E0F80
3C0780
7C0780
7C07C0
7803C0
F803E0
FFFFE0
FFFFE0
FFFFE0
FFFFE0
ENDCHAR
STARTCHAR Epsilon
ENCODING 917
SWIDTH 560 0
DWIDTH 18 0
BBX 13 23 3 0
BITMAP
FFF8
FFF8
FFF8
FFF8
F800
F800
F800
F800
F800
FFF8
FFF8
FFF8
FFF8
F800
F800
F800
F800
F800
F800
FFF8
FFF8
FFF8
FFF8
ENDCHAR
STARTCHAR Zeta
ENCODING 918
SWIDTH 579 0
DWIDTH 19 0
BBX 17 23 1 0
BITMAP
FFFF80
FFFF80
FFFF80
FFFF80
001F00
003E00
007E00
007C00
00F800
01F000
03F000
03E000
07C000
0FC000
0F8000
1F0000
3E0000
7E0000
7C0000
FFFF80
FFFF80
FFFF80
FFFF80
ENDCHAR
STARTCHAR Eta
ENCODING 919
SWIDTH 765 0
DWIDTH 24 0
BBX 18 23 3 0
BITMAP
F807C0
F807C0
F807C0
F807C0
F807C0
F807C0
F807C0
F807C0
F807C0
FFFFC0
FFFFC0
FFFFC0
FFFFC0
F807C0
F807C0
F807C0
F807C0
F807C0
F807C0
F807C0
F807C0
F807C0
F807C0
ENDCHAR
STARTCHAR Theta
ENCODING 920
SWIDTH 795 0
DWIDTH 25 0
BBX 21 23 2 0
BITMAP
01FC00
0FFF80
1FFFC0
3FFFE0
7F07F0
7E03F0
7C01F0
F800F8
F800F8
F9FCF8
F9FCF8
F9FCF8
F9FCF8
F800F8
F800F8
F800F8
7C01F0
7E03F0
7F07F0
3FFFE0
1FFFC0
0FFF80
01FC00
ENDCHAR
STARTCHAR Iota
ENCODING 921
SWIDTH 331 0
DWIDTH 11 0
BBX 5 23 3 0
BITMAP
F8
F8
F8
F8
F8
F8
F8
F8
F8
F8
F8
F8
F8
F8
F8
F8
F8
F8
F8
F8
F8
F8
F8
ENDCHAR
STARTCHAR Kappa
ENCODING 922
SWIDTH 664 0
DWIDTH 21 0
BBX 18 23 3 0
BITMAP
F80FC0
F81F80
F81F00
F83E00
F87E00
F8FC00
F8F800
F9F000
FBE000
FFE000
FFC000
FFE000
FFF000
FDF000
F9F800
F8F800
F87C00
F87E00
F83E00
F83F00
F81F00
F80F80
F80FC0
ENDCHAR
STARTCHAR Lambda
ENCODING 923
SWIDTH 649 0
DWIDTH 21 0
BBX 21 23 0 0
BITMAP
00F800
01FC00
01FC00
01FC00
03DE00
03DE00
03DE00
07DF00
078F00
078F00
0F8F80
0F8780
0F0780
1F07C0
1F07C0
1E03C0
3E03E0
3E03E0
3C01E0
7C01F0
7C01F0
F800F0
F800F8
ENDCHAR
STARTCHAR Mu
ENCODING 924
SWIDTH 942 0
DWIDTH 30 0
BBX 24 23 3 0
BITMAP
FE007F
FE007F
FE007F
FF00FF
FF00FF
FF00FF
F701EF
F781EF
F781EF
F783CF
F3C3CF
F3C3CF
F3C38F
F1E78F
F1E78F
F1E70F
F0EF0F
F0FF0F
F0FE0F
F0FE0F
F07E0F
F07C0F
F07C0F
ENDCHAR
STARTCHAR Nu
ENCODING 925
SWIDTH 812 0
DWIDTH 26 0
BBX 20 23 3 0
BITMAP
FC00F0
FE00F0
FE00F0
FF00F0
FF80F0
FF80F0
F7C0F0
F7C0F0
F3E0F0
F3E0F0
F1F0F0
F1F8F0
F0F8F0
F07CF0
F07CF0
F03EF0
F03EF0
F01FF0
F01FF0
F00FF0
F007F0
F007F0
F003F0
ENDCHAR
STARTCHAR Xi
ENCODING 926
SWIDTH 570 0
DWIDTH 18 0
BBX 16 23 1 0
BITMAP
7FFE
7FFE
7FFE
7FFE
0000
0000
0000
0000
0000
3FFC
3FFC
3FFC
3FFC
0000
0000
0000
0000
0000
0000
FFFF
FFFF
FFFF
FFFF
ENDCHAR
STARTCHAR Omicron
ENCODING 927
SWIDTH 795 0
DWIDTH 25 0
BBX 21 23 2 0
BITMAP
01FC00
0FFF80
1FFFC0
3FFFE0
7F07F0
7E03F0
7C01F0
FC01F8
F800F8
F800F8
F800F8
F800F8
F800F8
F800F8
F800F8
F801F8
7C01F0
7E03F0
7F07F0
3FFFE0
1FFFC0
0FFF80
01FC00
ENDCHAR
STARTCHAR Pi
ENCODING 928
SWIDTH 745 0
DWIDTH 24 0
BBX 18 23 3 0
BITMAP
FFFFC0
FFFFC0
FFFFC0
FFFFC0
F807C0
F807C0
F807C0
F807C0
F807C0
F807C0
F807C0
F807C0
F807C0
F807C0
F807C0
F807C0
F807C0
F807C0
F807C0
F807C0
F807C0
F807C0
F807C0
ENDCHAR
STARTCHAR Rho
ENCODING 929
SWIDTH 627 0
DWIDTH 20 0
BBX 16 23 3 0
BITMAP
FFE0
FFF8
FFFC
FFFE
F87E
F83E
F81F
F81F
F81E
F83E
F87E
FFFE
FFFC
FFF8
FFE0
F800
F800
F800
F800
F800
F800
F800
F800
ENDCHAR
STARTCHAR Sigma
ENCODING 931
SWIDTH 592 0
DWIDTH 19 0
BBX 17 23 1 0
BITMAP
FFFF00
FFFF00
FFFF00
FFFF00
7C0000
3E0000
1F0000
0F8000
07C000
03E000
01F000
01F000
03E000
07C000
0F8000
0F8000
1F0000
3E0000
7C0000
FFFF80
FFFF80
FFFF80
FFFF80
ENDCHAR
STARTCHAR Tau
ENCODING 932
SWIDTH 579 0
DWIDTH 19 0
BBX 17 23 1 0
BITMAP
FFFF80
FFFF80
FFFF80
FFFF80
03E000
03E000
03E000
03E000
03E000
03E000
03E000
03E000
03E000
03E000
03E000
03E000
03E000
03E000
03E000
03E000
03E000
03E000
03E000
ENDCHAR
STARTCHAR Upsilon
ENCODING 933
SWIDTH 624 0
DWIDTH 20 0
BBX 20 23 0 0
BITMAP
FC03F0
7C03E0
7E07E0
3E07C0
3F0FC0
1F0F80
1F9F00
0F9F00
07FE00
07FE00
03FC00
03FC00
01F800
01F800
00F000
00F000
00F000
00F000
00F000
00F000
00F000
00F000
00F000
ENDCHAR
STARTCHAR Phi
ENCODING 934
SWIDTH 859 0
DWIDTH 28 0
BBX 26 23 1 0
BITMAP
001E0000
001E0000
001E0000
03FFF000
0FFFFC00
1FFFFE00
3FFFFF00
7F1E3F80
7C1E0F80
781E0780
F81E0780
F81E07C0
F81E0780
781E0780
7C1E0F80
7F1E3F80
3FFFFF00
1FFFFE00
0FFFFC00
01FFE000
001E0000
001E0000
001E0000
ENDCHAR
STARTCHAR Chi
ENCODING 935
SWIDTH 666 0
DWIDTH 21 0
BBX 21 23 0 0
BITMAP
7C01F0
7E03F0
3E03E0
1F07C0
1F07C0
0F8F80
07CF00
07DF00
03FE00
03FE00
01FC00
01FC00
01FC00
03FE00
07FE00
07DF00
0F8F80
1F0F80
1F07C0
3E07E0
3E03E0
7C01F0
FC01F8
ENDCHAR
STARTCHAR Psi
ENCODING 936
SWIDTH 875 0
DWIDTH 28 0
BBX 24 23 2 0
BITMAP
F03C0F
F03C0F
F03C0F
F03C0F
F03C0F
F03C0F
F03C0F
F03C0F
F03C0F
F83C1F
F83C1F
FC3C3F
7FFFFE
3FFFFC
1FFFF8
07FFE0
003C00
003C00
003C00
003C00
003C00
003C00
003C00
ENDCHAR
STARTCHAR uni03A9
ENCODING 937
SWIDTH 786 0
DWIDTH 25 0
BBX 23 23 1 0
BITMAP
00FE00
07FFC0
0FFFE0
1FFFF0
3F83F8
7E00FC
7E00FC
7C007C
7C007C
7C007C
7C007C
7C007C
7C007C
7C007C
3C0078
3E00F8
1E00F0
0F01E0
0787C0
FFC7FE
FFC7FE
FFC7FE
FFC7FE
ENDCHAR
STARTCHAR Iotadieresis
ENCODING 938
SWIDTH 331 0
DWIDTH 11 0
BBX 10 29 0 0
BITMAP
F3C0
F3C0
F3C0
F3C0
0000
0000
1F00
1F00
1F00
1F00
1F00
1F00
1F00
1F00
1F00
1F00
1F00
1F00
1F00
1F00
1F00
1F00
1F00
1F00
1F00
1F00
1F00
1F00
1F00
ENDCHAR
STARTCHAR Upsilondieresis
ENCODING 939
SWIDTH 624 0
DWIDTH 20 0
BBX 20 29 0 0
BITMAP
071C00
079E00
079E00
071C00
000000
000000
FC03F0
7C03E0
7E07E0
3E07C0
3F0FC0
1F0F80
1F9F00
0F9F00
07FE00
07FE00
03FC00
03FC00
01F800
01F800
00F000
00F000
00F000
00F000
00F000
00F000
00F000
00F000
00F000
ENDCHAR
STARTCHAR alphatonos
ENCODING 940
SWIDTH 646 0
DWIDTH 21 0
BBX 19 25 1 0
BITMAP
00F800
00F000
00F000
01E000
01E000
01C000
000000
000000
07E3C0
1FF3C0
3FFFC0
7FFF80
7E1F80
7C0F80
7C0F80
F80780
F80780
F80780
7C0F80
7C0F80
7E1F80
7FFFE0
3FFFE0
1FF3E0
07C1E0
ENDCHAR
STARTCHAR epsilontonos
ENCODING 941
SWIDTH 555 0
DWIDTH 18 0
BBX 16 25 1 0
BITMAP
00F0
00F0
00E0
01E0
01C0
01C0
0000
0000
07F8
1FFF
3FFE
7FFE
7C0E
7800
3C00
3FF0
0FF0
3FF0
7C00
F800
FC03
FFFF
7FFF
3FFF
0FFC
ENDCHAR
STARTCHAR etatonos
ENCODING 942
SWIDTH 657 0
DWIDTH 21 0
BBX 17 33 2 -8
BITMAP
00F800
00F000
00F000
00E000
01E000
01C000
000000
000000
F0F800
FBFE00
FFFF00
FFFF00
FE1F00
FC1F80
FC0F80
F80F80
F80F80
F80F80
F80F80
F80F80
F80F80
F80F80
F80F80
F80F80
F80F80
000F80
000F80
000F80
000F80
000F80
000F80
000F80
000F80
ENDCHAR
STARTCHAR iotatonos
ENCODING 943
SWIDTH 407 0
DWIDTH 13 0
BBX 10 25 2 0
BITMAP
1E00
3E00
3C00
3C00
3800
7000
0000
0000
F800
F800
F800
F800
F800
F800
F800
F800
F800
F800
F800
F800
7C00
7FC0
7FC0
3FC0
1FC0
ENDCHAR
STARTCHAR upsilondieresistonos
ENCODING 944
SWIDTH 645 0
DWIDTH 21 0
BBX 17 27 2 0
BITMAP
01E000
01E000
01C000
39DC00
3DBC00
3C3C00
381C00
000000
000000
000000
F80F00
F80F80
F80F80
F80F80
F80F80
F80F80
F80780
F80780
F80F80
F80F80
F80F80
F80F80
7C1F00
7FFF00
3FFE00
1FFC00
07F000
ENDCHAR
STARTCHAR alpha
ENCODING 945
SWIDTH 646 0
DWIDTH 21 0
BBX 19 17 1 0
BITMAP
07E3C0
1FF3C0
3FFFC0
7FFF80
7E1F80
7C0F80
7C0F80
F80780
F80780
F80780
7C0F80
7C0F80
7E1F80
7FFFE0
3FFFE0
1FF3E0
07C1E0
ENDCHAR
STARTCHAR beta
ENCODING 946
SWIDTH 660 0
DWIDTH 21 0
BBX 18 32 2 -8
BITMAP
07F000
1FFC00
3FFE00
7FFF00
7E1F00
7C0F80
780F80
F80F80
F80F00
F81F00
F8FE00
F8F800
F8FE00
F8FF00
F81F80
F807C0
F807C0
F807C0
F807C0
FC0FC0
FFFF80
FFFF80
FFFF00
FBFC00
F80000
F80000
F80000
F80000
F80000
F80000
F80000
F80000
ENDCHAR
STARTCHAR gamma
ENCODING 947
SWIDTH 567 0
DWIDTH 18 0
BBX 18 25 0 -8
BITMAP
F807C0
780780
7C0F80
7C0F80
3E0F00
3E1F00
1E1F00
1F1E00
1F3E00
0F3C00
0F3C00
07FC00
07F800
07F800
03F800
03F000
03F000
03E000
03E000
03E000
03E000
07C000
07C000
07C000
07C000
ENDCHAR
STARTCHAR delta
ENCODING 948
SWIDTH 619 0
DWIDTH 20 0
BBX 18 24 1 0
BITMAP
01FC00
07FF80
0FFF80
1FFF80
1F0700
1F0000
1F0000
0FC000
07F000
03FC00
07FE00
1FFF00
3F1F80
7E0F80
7C0F80
7807C0
F807C0
F80780
7C0F80
7E1F80
7FFF00
3FFF00
1FFE00
07F000
ENDCHAR
STARTCHAR epsilon
ENCODING 949
SWIDTH 555 0
DWIDTH 18 0
BBX 16 17 1 0
BITMAP
07F8
1FFF
3FFE
7FFE
7C0E
7800
3C00
3FF0
0FF0
3FF0
7C00
F800
FC03
FFFF
7FFF
3FFF
0FFC
ENDCHAR
STARTCHAR zeta
ENCODING 950
SWIDTH 498 0
DWIDTH 16 0
BBX 15 30 1 -6
BITMAP
7FFE
7FFE
7FFE
7FFC
00F8
01F0
03E0
07C0
0F80
1F00
1F00
3E00
7C00
7C00
7C00
7800
F800
F800
7C00
7E00
7FC0
3FF8
1FFC
03FE
003E
003E
003E
007C
007C
00F8
ENDCHAR
STARTCHAR eta
ENCODING 951
SWIDTH 657 0
DWIDTH 21 0
BBX 17 25 2 -8
BITMAP
F0F800
FBFE00
FFFF00
FFFF00
FE1F00
FC1F80
FC0F80
F80F80
F80F80
F80F80
F80F80
F80F80
F80F80
F80F80
F80F80
F80F80
F80F80
000F80
000F80
000F80
000F80
000F80
000F80
000F80
000F80
ENDCHAR
STARTCHAR theta
ENCODING 952
SWIDTH 618 0
DWIDTH 20 0
BBX 18 24 1 0
BITMAP
03F000
0FFC00
1FFE00
3FFF00
3E1F00
7C0F80
7C0F80
7C0F80
780780
780780
FFFFC0
FFFFC0
FFFFC0
FFFFC0
780780
780780
7C0F80
7C0F80
7C0F80
3E1F00
3FFF00
1FFE00
0FFC00
03F000
ENDCHAR
STARTCHAR iota
ENCODING 953
SWIDTH 407 0
DWIDTH 13 0
BBX 10 17 2 0
BITMAP
F800
F800
F800
F800
F800
F800
F800
F800
F800
F800
F800
F800
7C00
7FC0
7FC0
3FC0
1FC0
ENDCHAR
STARTCHAR kappa
ENCODING 954
SWIDTH 620 0
DWIDTH 20 0
BBX 18 17 2 0
BITMAP
F80F80
F81F00
F83E00
F87C00
F8FC00
F8F800
F9F000
FBE000
FFE000
FFF000
FFF800
FCFC00
F87C00
F83E00
F81F00
F81F80
F80FC0
ENDCHAR
STARTCHAR lambda
ENCODING 955
SWIDTH 615 0
DWIDTH 20 0
BBX 20 24 0 0
BITMAP
3F0000
3F8000
3FC000
3FE000
03E000
01F000
01F000
00F000
01F800
01F800
03FC00
03FC00
07FC00
07FE00
07BE00
0FBE00
0F1F00
1F1F00
1F0F80
3E0F80
3E0FF0
7C07F0
7C07F0
F801F0
ENDCHAR
STARTCHAR uni03BC
ENCODING 956
SWIDTH 660 0
DWIDTH 21 0
BBX 17 25 2 -8
BITMAP
F80F80
F80F80
F80F80
F80F80
F80F80
F80F80
F80F80
F80F80
F80F80
F80F80
F81F80
FC1F80
FC3F80
FFFF80
FFFF80
FFE780
FBC780
F80000
F80000
F80000
F80000
F80000
F80000
F80000
F80000
ENDCHAR
STARTCHAR nu
ENCODING 957
SWIDTH 595 0
DWIDTH 19 0
BBX 18 17 0 0
BITMAP
F807C0
7C07C0
7C07C0
7C07C0
3E0780
3E0780
1E0F80
1F0F80
1F0F80
0F1F00
0F9F00
07BE00
07BE00
07FC00
03F800
03F000
03E000
ENDCHAR
STARTCHAR xi
ENCODING 958
SWIDTH 498 0
DWIDTH 16 0
BBX 15 30 1 -6
BITMAP
7FFC
7FFC
7FFC
0F80
1E00
3E00
7C00
7C00
3C00
3F00
1FF8
07F8
1FF8
3E00
7C00
7C00
F800
F800
7C00
7E00
7FC0
3FF8
1FFC
03FE
003E
003E
003E
007C
007C
00F8
ENDCHAR
STARTCHAR omicron
ENCODING 959
SWIDTH 619 0
DWIDTH 20 0
BBX 18 17 1 0
BITMAP
03F000
0FFC00
3FFE00
3FFF00
7E1F80
7C0F80
7C0F80
F80780
F807C0
F807C0
7C0F80
7C0F80
7E1F80
3FFF00
1FFF00
0FFC00
03F000
ENDCHAR
STARTCHAR pi
ENCODING 960
SWIDTH 738 0
DWIDTH 24 0
BBX 23 17 0 0
BITMAP
3FFFFE
7FFFFE
FFFFFE
FFFFFE
0F83E0
0F83E0
0F83E0
0F83E0
0F83E0
0F83E0
0F83E0
0F83E0
0F83E0
0F83FE
0F81FE
0F81FE
0F807C
ENDCHAR
STARTCHAR rho
ENCODING 961
SWIDTH 618 0
DWIDTH 20 0
BBX 17 25 2 -8
BITMAP
07E000
1FF800
3FFC00
7FFE00
7C3F00
F81F00
F81F00
F80F00
F80F80
F80F80
F81F00
F81F00
FC3F00
FFFE00
FFFE00
FFFC00
F3F000
F80000
F80000
F80000
F80000
F80000
F80000
F80000
F80000
ENDCHAR
STARTCHAR sigma1
ENCODING 962
SWIDTH 498 0
DWIDTH 16 0
BBX 15 23 1 -6
BITMAP
03F8
0FFE
3FFC
3FFC
7E0C
7C00
7C00
7800
F800
F800
F800
7C00
7E00
3FE0
1FF8
0FFC
01FE
003E
003E
003C
007C
007C
00F8
ENDCHAR
STARTCHAR sigma
ENCODING 963
SWIDTH 652 0
DWIDTH 21 0
BBX 19 17 1 0
BITMAP
03FFE0
0FFFE0
1FFFE0
3FFFE0
7E1E00
7C0F00
7C0F80
F80780
F807C0
F807C0
7C07C0
7C0FC0
7E1F80
3FFF80
3FFF00
0FFE00
03F800
ENDCHAR
STARTCHAR tau
ENCODING 964
SWIDTH 538 0
DWIDTH 17 0
BBX 15 17 1 0
BITMAP
3FFE
FFFE
FFFE
FFFE
0F80
0F80
0F80
0F80
0F80
0F80
0F80
0F80
0F84
0FFC
0FFC
07FC
01F8
ENDCHAR
STARTCHAR upsilon
ENCODING 965
SWIDTH 645 0
DWIDTH 21 0
BBX 17 17 2 0
BITMAP
F80F00
F80F80
F80F80
F80F80
F80F80
F80F80
F80780
F80780
F80F80
F80F80
F80F80
F80F80
7C1F00
7FFF00
3FFE00
1FFC00
07F000
ENDCHAR
STARTCHAR phi
ENCODING 966
SWIDTH 791 0
DWIDTH 25 0
BBX 23 25 1 -8
BITMAP
080FC0
1C1FF0
3E3FF8
3E7FFC
7C7C7C
78787C
78783C
F8783E
F8783E
F8783C
78787C
7C787C
7E79F8
3FFFF8
1FFFF0
0FFFC0
03FF00
007800
007800
007800
007800
007800
007800
007800
007800
ENDCHAR
STARTCHAR chi
ENCODING 967
SWIDTH 591 0
DWIDTH 19 0
BBX 19 25 0 -8
BITMAP
7C03E0
7E03C0
7F07C0
7F8F80
0F8F80
079F00
07DE00
03FE00
03FC00
03FC00
01F800
01F000
03F000
03F800
07F800
07FC00
0FBC00
0F3C00
1F3E00
3E1E00
3E1F00
7C1FE0
7C0FE0
F80FE0
F803E0
ENDCHAR
STARTCHAR psi
ENCODING 968
SWIDTH 836 0
DWIDTH 27 0
BBX 23 32 2 -8
BITMAP
007C00
007C00
007C00
007C00
007C00
007C00
007C00
F87C3C
F87C3C
F87C3E
F87C3E
F87C1E
F87C1E
F87C1E
F87C1E
F87C1E
F87C1E
F87C3E
7C7C3E
7E7CFC
3FFFFC
3FFFF8
0FFFF0
03FF80
007C00
007C00
007C00
007C00
007C00
007C00
007C00
007C00
ENDCHAR
STARTCHAR omega
ENCODING 969
SWIDTH 862 0
DWIDTH 28 0
BBX 24 17 2 0
BITMAP
7C003E
78001E
78001E
F8001F
F0000F
F03C0F
F03C0F
F03C0F
F03C0F
F03C0F
F03C0F
F87C1F
FC7E3F
7FFFFE
7FE7FE
3FE7FC
0F81F0
ENDCHAR
STARTCHAR iotadieresis
ENCODING 970
SWIDTH 407 0
DWIDTH 13 0
BBX 12 24 0 0
BITMAP
71C0
F3C0
F3C0
71C0
0000
0000
0000
3E00
3E00
3E00
3E00
3E00
3E00
3E00
3E00
3E00
3E00
3E00
3E00
1F00
1FF0
1FF0
0FF0
07F0
ENDCHAR
STARTCHAR upsilondieresis
ENCODING 971
SWIDTH 645 0
DWIDTH 21 0
BBX 17 24 2 0
BITMAP
1E7800
1E7800
1E7800
1E7800
000000
000000
000000
F80F00
F80F80
F80F80
F80F80
F80F80
F80F80
F80780
F80780
F80F80
F80F80
F80F80
F80F80
7C1F00
7FFF00
3FFE00
1FFC00
07F000
ENDCHAR
STARTCHAR omicrontonos
ENCODING 972
SWIDTH 619 0
DWIDTH 20 0
BBX 18 25 1 0
BITMAP
00F800
00F000
00F000
00E000
01E000
01C000
000000
000000
03F000
0FFC00
3FFE00
3FFF00
7E1F80
7C0F80
7C0F80
F80780
F807C0
F807C0
7C0F80
7C0F80
7E1F80
3FFF00
1FFF00
0FFC00
03F000
ENDCHAR
STARTCHAR upsilontonos
ENCODING 973
SWIDTH 645 0
DWIDTH 21 0
BBX 17 25 2 0
BITMAP
00F000
01F000
01E000
01E000
01C000
038000
000000
000000
F80F00
F80F80
F80F80
F80F80
F80F80
F80F80
F80780
F80780
F80F80
F80F80
F80F80
F80F80
7C1F00
7FFF00
3FFE00
1FFC00
07F000
ENDCHAR
STARTCHAR omegatonos
ENCODING 974
SWIDTH 862 0
DWIDTH 28 0
BBX 24 25 2 0
BITMAP
001F00
001E00
001E00
001C00
003C00
003800
000000
000000
7C003E
78001E
78001E
F8001F
F0000F
F03C0F
F03C0F
F03C0F
F03C0F
F03C0F
F03C0F
F87C1F
FC7E3F
7FFFFE
7FE7FE
3FE7FC
0F81F0
ENDCHAR
STARTCHAR uni03D1
ENCODING 977
SWIDTH 731 0
DWIDTH 23 0
BBX 21 24 1 0
BITMAP
01F800
07FE00
0FFF00
0FFF80
0F8F80
0F07C0
0F07C0
0F83E0
0FE3E0
07FFF8
03FFF8
01FFF8
3C3FF8
FE03E0
FE03E0
FE03E0
1E03E0
1E03E0
1E07C0
1F0FC0
1FFFC0
1FFF80
0FFE00
03F800
ENDCHAR
STARTCHAR uni03D2
ENCODING 978
SWIDTH 630 0
DWIDTH 20 0
BBX 20 23 0 0
BITMAP
F801F0
7C03F0
7C07F0
3E07F0
3E0FC0
1F0F80
1F1F00
0F9F00
07BE00
07FC00
03FC00
03F800
01F800
01F800
00F000
00F000
00F000
00F000
00F000
00F000
00F000
00F000
00F000
ENDCHAR
STARTCHAR uni03D6
ENCODING 982
SWIDTH 999 0
DWIDTH 32 0
BBX 30 17 1 0
BITMAP
3FFFFFFC
FFFFFFFC
FFFFFFFC
FFFFFFFC
0F0003C0
1F0003E0
1F0003E0
1E0001E0
1E0781E0
1E0781E0
1E0781E0
1F0783E0
1F0FC3E0
0FFFFFC0
0FFCFFC0
07FCFF80
01F03E00
ENDCHAR
STARTCHAR uni0400
ENCODING 1024
SWIDTH 560 0
DWIDTH 18 0
BBX 13 30 3 0
BITMAP
FC00
7C00
3E00
0F00
0780
0000
0000
FFF8
FFF8
FFF8
FFF8
F800
F800
F800
F800
F800
FFF8
FFF8
FFF8
FFF8
F800
F800
F800
F800
F800
F800
FFF8
FFF8
FFF8
FFF8
ENDCHAR
STARTCHAR afii10023
ENCODING 1025
SWIDTH 560 0
DWIDTH 18 0
BBX 13 29 3 0
BITMAP
79E0
79E0
79E0
38E0
0000
0000
FFF8
FFF8
FFF8
FFF8
F800
F800
F800
F800
F800
FFF8
FFF8
FFF8
FFF8
F800
F800
F800
F800
F800
F800
FFF8
FFF8
FFF8
FFF8
ENDCHAR
STARTCHAR afii10051
ENCODING 1026
SWIDTH 805 0
DWIDTH 26 0
BBX 23 23 1 0
BITMAP
FFFF80
FFFF80
FFFF80
FFFF80
07C000
07C000
07C000
07C000
07FFE0
07FFF8
07FFFC
07FFFE
07C03E
07C03E
07C03E
07C03E
07C03E
07C03E
07C03E
07C3FE
07C3FC
07C3F8
07C3F0
ENDCHAR
STARTCHAR afii10052
ENCODING 1027
SWIDTH 561 0
DWIDTH 18 0
BBX 14 30 3 0
BITMAP
01F8
01F0
03E0
0780
0F00
0000
0000
FFFC
FFFC
FFFC
FFFC
F800
F800
F800
F800
F800
F800
F800
F800
F800
F800
F800
F800
F800
F800
F800
F800
F800
F800
F800
ENDCHAR
STARTCHAR afii10053
ENCODING 1028
SWIDTH 676 0
DWIDTH 22 0
BBX 19 23 2 0
BITMAP
00FF00
07FFE0
0FFFC0
1FFFC0
3F03C0
7E0000
7C0000
F80000
F80000
FFFE00
FFFE00
FFFE00
FFFE00
F80000
F80000
F80000
7C0000
7E0000
3F01C0
3FFFC0
1FFFC0
07FFC0
01FF00
ENDCHAR
STARTCHAR afii10054
ENCODING 1029
SWIDTH 550 0
DWIDTH 18 0
BBX 16 23 1 0
BITMAP
07F0
1FFE
3FFE
7FFE
7E0C
7C00
7C00
7C00
7E00
3F80
3FE0
0FF8
07FC
01FE
007E
001F
001F
801F
F03E
FFFE
FFFC
FFF8
1FE0
ENDCHAR
STARTCHAR afii10055
ENCODING 1030
SWIDTH 331 0
DWIDTH 11 0
BBX 5 23 3 0
BITMAP
F8
F8
F8
F8
F8
F8
F8
F8
F8
F8
F8
F8
F8
F8
F8
F8
F8
F8
F8
F8
F8
F8
F8
ENDCHAR
STARTCHAR afii10056
ENCODING 1031
SWIDTH 331 0
DWIDTH 11 0
BBX 10 29 0 0
BITMAP
F3C0
F3C0
F3C0
F3C0
0000
0000
1F00
1F00
1F00
1F00
1F00
1F00
1F00
1F00
1F00
1F00
1F00
1F00
1F00
1F00
1F00
1F00
1F00
1F00
1F00
1F00
1F00
1F00
1F00
ENDCHAR
STARTCHAR afii10057
ENCODING 1032
SWIDTH 331 0
DWIDTH 11 0
BBX 10 30 -2 -7
BITMAP
07C0
07C0
07C0
07C0
07C0
07C0
07C0
07C0
07C0
07C0
07C0
07C0
07C0
07C0
07C0
07C0
07C0
07C0
07C0
07C0
07C0
07C0
07C0
07C0
0F80
0F80
FF80
FF00
FE00
FC00
ENDCHAR
STARTCHAR afii10058
ENCODING 1033
SWIDTH 999 0
DWIDTH 32 0
BBX 31 23 0 0
BITMAP
03FFF000
03FFF000
03FFF000
03FFF000
03C1F000
03C1F000
03C1F000
07C1F000
07C1F000
07C1FFC0
07C1FFF0
07C1FFF8
0781FFFC
0781F0FC
0F81F07C
0F81F03E
0F81F03E
0F01F07C
1F01F0FC
FF01FFFC
FE01FFF8
FE01FFF0
F801FFC0
ENDCHAR
STARTCHAR afii10059
ENCODING 1034
SWIDTH 1001 0
DWIDTH 32 0
BBX 28 23 3 0
BITMAP
F80F8000
F80F8000
F80F8000
F80F8000
F80F8000
F80F8000
F80F8000
F80F8000
F80F8000
FFFFFE00
FFFFFF80
FFFFFFC0
FFFFFFE0
F80F87E0
F80F83E0
F80F81F0
F80F81F0
F80F83E0
F80F87E0
F80FFFE0
F80FFFC0
F80FFF80
F80FFE00
ENDCHAR
STARTCHAR afii10060
ENCODING 1035
SWIDTH 805 0
DWIDTH 26 0
BBX 23 23 1 0
BITMAP
FFFF80
FFFF80
FFFF80
FFFF80
07C000
07C000
07C000
07C000
07FFF0
07FFF8
07FFFC
07FFFE
07C03E
07C03E
07C03E
07C03E
07C03E
07C03E
07C03E
07C03E
07C03E
07C03E
07C03E
ENDCHAR
STARTCHAR afii10061
ENCODING 1036
SWIDTH 671 0
DWIDTH 22 0
BBX 19 30 3 0
BITMAP
007E00
007C00
00F000
01E000
03C000
000000
000000
F807C0
F80F80
F81F80
F81F00
F83E00
F87C00
F8F800
F8F800
F9F000
FBE000
FFC000
FFC000
FBE000
FBF000
F9F000
F8F800
F87C00
F87E00
F83F00
F81F00
F80F80
F80FC0
F807E0
ENDCHAR
STARTCHAR uni040D
ENCODING 1037
SWIDTH 823 0
DWIDTH 26 0
BBX 20 30 3 0
BITMAP
1F8000
07C000
03C000
01E000
00F000
000000
000000
F003F0
F007F0
F007F0
F00FF0
F00FF0
F01FF0
F01EF0
F03EF0
F07CF0
F07CF0
F0F8F0
F0F0F0
F1F0F0
F3E0F0
F3E0F0
F7C0F0
F780F0
FF80F0
FF00F0
FF00F0
FE00F0
FE00F0
FC00F0
ENDCHAR
STARTCHAR afii10062
ENCODING 1038
SWIDTH 652 0
DWIDTH 21 0
BBX 21 31 0 0
BITMAP
1E03C0
1E07C0
1F07C0
0FFF80
07FF00
01FC00
000000
000000
F800F8
7C01F0
7C01F0
3E01E0
3E03E0
1F03E0
1F07C0
0F87C0
0F8780
078F80
07CF00
03DF00
03FE00
01FE00
01FE00
00FC00
00FC00
01F800
03F800
7FF000
7FE000
7FC000
7F0000
ENDCHAR
STARTCHAR afii10145
ENCODING 1039
SWIDTH 745 0
DWIDTH 24 0
BBX 18 30 3 -7
BITMAP
F807C0
F807C0
F807C0
F807C0
F807C0
F807C0
F807C0
F807C0
F807C0
F807C0
F807C0
F807C0
F807C0
F807C0
F807C0
F807C0
F807C0
F807C0
F807C0
FFFFC0
FFFFC0
FFFFC0
FFFFC0
01E000
01E000
01E000
01E000
01E000
01E000
01E000
ENDCHAR
STARTCHAR afii10017
ENCODING 1040
SWIDTH 689 0
DWIDTH 22 0
BBX 22 23 0 0
BITMAP
00FC00
01FC00
01FE00
01FE00
03FF00
03CF00
03CF00
07CF80
078780
078780
0F87C0
0F87C0
0F03C0
1FFFE0
1FFFE0
1FFFE0
3FFFF0
3E01F0
3C00F0
7C00F8
7C00F8
7C00F8
F8007C
ENDCHAR
STARTCHAR afii10018
ENCODING 1041
SWIDTH 638 0
DWIDTH 20 0
BBX 16 23 3 0
BITMAP
FFFC
FFFC
FFFC
FFFC
F800
F800
F800
F800
F800
FFE0
FFF8
FFFC
FFFE
F87E
F83E
F81F
F81F
F83E
F87E
FFFE
FFFC
FFF8
FFE0
ENDCHAR
STARTCHAR afii10019
ENCODING 1042
SWIDTH 671 0
DWIDTH 22 0
BBX 17 23 3 0
BITMAP
FFF000
FFFE00
FFFF00
FFFF00
F81F80
F80F80
F80F80
F80F80
F81F00
FFFE00
FFFC00
FFFE00
FFFF00
F81F80
F80F80
F80F80
F80F80
F80F80
F81F80
FFFF00
FFFF00
FFFE00
FFF000
ENDCHAR
STARTCHAR afii10020
ENCODING 1043
SWIDTH 561 0
DWIDTH 18 0
BBX 14 23 3 0
BITMAP
FFFC
FFFC
FFFC
FFFC
F800
F800
F800
F800
F800
F800
F800
F800
F800
F800
F800
F800
F800
F800
F800
F800
F800
F800
F800
ENDCHAR
STARTCHAR afii10021
ENCODING 1044
SWIDTH 764 0
DWIDTH 24 0
BBX 23 30 0 -7
BITMAP
01FFF0
01FFF0
01FFF0
01FFF0
01E0F0
03E0F0
03E0F0
03C0F0
03C0F0
07C0F0
07C0F0
07C0F0
0F80F0
0F80F0
0F80F0
1F00F0
1F00F0
1F00F0
3E00F0
FFFFFE
FFFFFE
FFFFFE
FFFFFE
F8001E
F8001E
F8001E
F8001E
F8001E
F8001E
F8001E
ENDCHAR
STARTCHAR afii10022
ENCODING 1045
SWIDTH 560 0
DWIDTH 18 0
BBX 13 23 3 0
BITMAP
FFF8
FFF8
FFF8
FFF8
F800
F800
F800
F800
F800
FFF8
FFF8
FFF8
FFF8
F800
F800
F800
F800
F800
F800
FFF8
FFF8
FFF8
FFF8
ENDCHAR
STARTCHAR afii10024
ENCODING 1046
SWIDTH 942 0
DWIDTH 30 0
BBX 30 23 0 0
BITMAP
7C0780F8
7C0780F8
3E0781F0
1F0783E0
0F0783C0
0F8787C0
07C78F80
03C78F00
03E79F00
01F7BE00
00F7BC00
00FFFC00
01F7BE00
03E79F00
03E79F00
07C78F80
0F8787C0
0F8787C0
1F0783E0
3E0781F0
3E0781F0
7C0780F8
FC0780FC
ENDCHAR
STARTCHAR afii10025
ENCODING 1047
SWIDTH 647 0
DWIDTH 21 0
BBX 18 23 2 0
BITMAP
0FF000
7FFE00
FFFF00
FFFF00
781F80
400F80
000F80
000F80
003F00
1FFE00
1FF800
1FFC00
1FFF00
003F80
000F80
0007C0
0007C0
000FC0
E01F80
FFFF80
FFFF00
FFFE00
3FF000
ENDCHAR
STARTCHAR afii10026
ENCODING 1048
SWIDTH 823 0
DWIDTH 26 0
BBX 20 23 3 0
BITMAP
F003F0
F007F0
F007F0
F00FF0
F00FF0
F01FF0
F01EF0
F03EF0
F07CF0
F07CF0
F0F8F0
F0F0F0
F1F0F0
F3E0F0
F3E0F0
F7C0F0
F780F0
FF80F0
FF00F0
FF00F0
FE00F0
FE00F0
FC00F0
ENDCHAR
STARTCHAR afii10027
ENCODING 1049
SWIDTH 823 0
DWIDTH 26 0
BBX 20 31 3 0
BITMAP
3E07C0
1E0780
1E0F80
1FFF00
0FFE00
03F800
000000
000000
F003F0
F007F0
F007F0
F00FF0
F00FF0
F01FF0
F01EF0
F03EF0
F07CF0
F07CF0
F0F8F0
F0F0F0
F1F0F0
F3E0F0
F3E0F0
F7C0F0
F780F0
FF80F0
FF00F0
FF00F0
FE00F0
FE00F0
FC00F0
ENDCHAR
STARTCHAR afii10028
ENCODING 1050
SWIDTH 671 0
DWIDTH 22 0
BBX 19 23 3 0
BITMAP
F807C0
F80F80
F81F80
F81F00
F83E00
F87C00
F8F800
F8F800
F9F000
FBE000
FFC000
FFC000
FBE000
FBF000
F9F000
F8F800
F87C00
F87E00
F83F00
F81F00
F80F80
F80FC0
F807E0
ENDCHAR
STARTCHAR afii10029
ENCODING 1051
SWIDTH 745 0
DWIDTH 24 0
BBX 21 23 0 0
BITMAP
01FFF8
03FFF8
03FFF8
03FFF8
03E0F8
03C0F8
03C0F8
03C0F8
07C0F8
07C0F8
07C0F8
07C0F8
0780F8
0780F8
0F80F8
0F80F8
0F80F8
0F80F8
1F00F8
FF00F8
FE00F8
FE00F8
F800F8
ENDCHAR
STARTCHAR afii10030
ENCODING 1052
SWIDTH 942 0
DWIDTH 30 0
BBX 24 23 3 0
BITMAP
FE007F
FE007F
FE007F
FF00FF
FF00FF
FF00FF
F701EF
F781EF
F781EF
F783CF
F3C3CF
F3C3CF
F3C38F
F1E78F
F1E78F
F1E70F
F0EF0F
F0FF0F
F0FE0F
F0FE0F
F07E0F
F07C0F
F07C0F
ENDCHAR
STARTCHAR afii10031
ENCODING 1053
SWIDTH 765 0
DWIDTH 24 0
BBX 18 23 3 0
BITMAP
F807C0
F807C0
F807C0
F807C0
F807C0
F807C0
F807C0
F807C0
F807C0
FFFFC0
FFFFC0
FFFFC0
FFFFC0
F807C0
F807C0
F807C0
F807C0
F807C0
F807C0
F807C0
F807C0
F807C0
F807C0
ENDCHAR
STARTCHAR afii10032
ENCODING 1054
SWIDTH 795 0
DWIDTH 25 0
BBX 21 23 2 0
BITMAP
01FC00
0FFF80
1FFFC0
3FFFE0
7F07F0
7E03F0
7C01F0
FC01F8
F800F8
F800F8
F800F8
F800F8
F800F8
F800F8
F800F8
F801F8
7C01F0
7E03F0
7F07F0
3FFFE0
1FFFC0
0FFF80
01FC00
ENDCHAR
STARTCHAR afii10033
ENCODING 1055
SWIDTH 745 0
DWIDTH 24 0
BBX 18 23 3 0
BITMAP
FFFFC0
FFFFC0
FFFFC0
FFFFC0
F807C0
F807C0
F807C0
F807C0
F807C0
F807C0
F807C0
F807C0
F807C0
F807C0
F807C0
F807C0
F807C0
F807C0
F807C0
F807C0
F807C0
F807C0
F807C0
ENDCHAR
STARTCHAR afii10034
ENCODING 1056
SWIDTH 627 0
DWIDTH 20 0
BBX 16 23 3 0
BITMAP
FFE0
FFF8
FFFC
FFFE
F87E
F83E
F81F
F81F
F81E
F83E
F87E
FFFE
FFFC
FFF8
FFE0
F800
F800
F800
F800
F800
F800
F800
F800
ENDCHAR
STARTCHAR afii10035
ENCODING 1057
SWIDTH 637 0
DWIDTH 20 0
BBX 17 23 2 0
BITMAP
01FC00
07FF80
1FFF80
3FFF00
3F0700
7E0000
7C0000
F80000
F80000
F80000
F80000
F80000
F80000
F80000
F80000
F80000
7C0000
7E0000
7F0300
3FFF00
1FFF00
0FFF00
03FC00
ENDCHAR
STARTCHAR afii10036
ENCODING 1058
SWIDTH 579 0
DWIDTH 19 0
BBX 17 23 1 0
BITMAP
FFFF80
FFFF80
FFFF80
FFFF80
03E000
03E000
03E000
03E000
03E000
03E000
03E000
03E000
03E000
03E000
03E000
03E000
03E000
03E000
03E000
03E000
03E000
03E000
03E000
ENDCHAR
STARTCHAR afii10037
ENCODING 1059
SWIDTH 652 0
DWIDTH 21 0
BBX 21 23 0 0
BITMAP
F800F8
7C01F0
7C01F0
3E01E0
3E03E0
1F03E0
1F07C0
0F87C0
0F8780
078F80
07CF00
03DF00
03FE00
01FE00
01FE00
00FC00
00FC00
01F800
03F800
7FF000
7FE000
7FC000
7F0000
ENDCHAR
STARTCHAR afii10038
ENCODING 1060
SWIDTH 859 0
DWIDTH 28 0
BBX 26 23 1 0
BITMAP
001E0000
001E0000
001E0000
03FFF000
0FFFFC00
1FFFFE00
3FFFFF00
7F1E3F80
7C1E0F80
781E0780
F81E0780
F81E07C0
F81E0780
781E0780
7C1E0F80
7F1E3F80
3FFFFF00
1FFFFE00
0FFFFC00
01FFE000
001E0000
001E0000
001E0000
ENDCHAR
STARTCHAR afii10039
ENCODING 1061
SWIDTH 666 0
DWIDTH 21 0
BBX 21 23 0 0
BITMAP
7C01F0
7E03F0
3E03E0
1F07C0
1F07C0
0F8F80
07CF00
07DF00
03FE00
03FE00
01FC00
01FC00
01FC00
03FE00
07FE00
07DF00
0F8F80
1F0F80
1F07C0
3E07E0
3E03E0
7C01F0
FC01F8
ENDCHAR
STARTCHAR afii10040
ENCODING 1062
SWIDTH 780 0
DWIDTH 25 0
BBX 21 30 3 -7
BITMAP
F807C0
F807C0
F807C0
F807C0
F807C0
F807C0
F807C0
F807C0
F807C0
F807C0
F807C0
F807C0
F807C0
F807C0
F807C0
F807C0
F807C0
F807C0
F807C0
FFFFF8
FFFFF8
FFFFF8
FFFFF8
000078
000078
000078
000078
000078
000078
000078
ENDCHAR
STARTCHAR afii10041
ENCODING 1063
SWIDTH 728 0
DWIDTH 23 0
BBX 18 23 2 0
BITMAP
F807C0
F807C0
F807C0
F807C0
F807C0
F807C0
F807C0
F807C0
F807C0
F807C0
F807C0
FC1FC0
FFFFC0
7FFFC0
3FFFC0
1FC7C0
0007C0
0007C0
0007C0
0007C0
0007C0
0007C0
0007C0
ENDCHAR
STARTCHAR afii10042
ENCODING 1064
SWIDTH 1078 0
DWIDTH 35 0
BBX 29 23 3 0
BITMAP
F80F80F8
F80F80F8
F80F80F8
F80F80F8
F80F80F8
F80F80F8
F80F80F8
F80F80F8
F80F80F8
F80F80F8
F80F80F8
F80F80F8
F80F80F8
F80F80F8
F80F80F8
F80F80F8
F80F80F8
F80F80F8
F80F80F8
FFFFFFF8
FFFFFFF8
FFFFFFF8
FFFFFFF8
ENDCHAR
STARTCHAR afii10043
ENCODING 1065
SWIDTH 1113 0
DWIDTH 36 0
BBX 33 30 3 -7
BITMAP
F80F80F800
F80F80F800
F80F80F800
F80F80F800
F80F80F800
F80F80F800
F80F80F800
F80F80F800
F80F80F800
F80F80F800
F80F80F800
F80F80F800
F80F80F800
F80F80F800
F80F80F800
F80F80F800
F80F80F800
F80F80F800
F80F80F800
FFFFFFFF80
FFFFFFFF80
FFFFFFFF80
FFFFFFFF80
0000000F80
0000000F80
0000000F80
0000000F80
0000000F80
0000000F80
0000000F80
ENDCHAR
STARTCHAR afii10044
ENCODING 1066
SWIDTH 727 0
DWIDTH 23 0
BBX 22 23 0 0
BITMAP
FFC000
FFC000
FFC000
FFC000
03C000
03C000
03C000
03C000
03C000
03FF00
03FFE0
03FFF0
03FFF8
03C1F8
03C0F8
03C07C
03C07C
03C0F8
03C1F8
03FFF8
03FFF0
03FFE0
03FF80
ENDCHAR
STARTCHAR afii10045
ENCODING 1067
SWIDTH 905 0
DWIDTH 29 0
BBX 23 23 3 0
BITMAP
F8003E
F8003E
F8003E
F8003E
F8003E
F8003E
F8003E
F8003E
F8003E
FFC03E
FFF83E
FFFC3E
FFFE3E
F87E3E
F83E3E
F81F3E
F81F3E
F83E3E
F87E3E
FFFE3E
FFFC3E
FFF83E
FFC03E
ENDCHAR
STARTCHAR afii10046
ENCODING 1068
SWIDTH 638 0
DWIDTH 20 0
BBX 16 23 3 0
BITMAP
F800
F800
F800
F800
F800
F800
F800
F800
F800
FFE0
FFF8
FFFC
FFFE
F87E
F83E
F81F
F81F
F83E
F87E
FFFE
FFFC
FFF8
FFE0
ENDCHAR
STARTCHAR afii10047
ENCODING 1069
SWIDTH 663 0
DWIDTH 21 0
BBX 18 23 1 0
BITMAP
1FE000
FFFC00
FFFE00
7FFF00
703F00
000F80
000F80
0007C0
0007C0
1FFFC0
1FFFC0
1FFFC0
1FFFC0
0007C0
0007C0
0007C0
000F80
001F80
603F80
7FFF00
7FFE00
7FF800
1FE000
ENDCHAR
STARTCHAR afii10048
ENCODING 1070
SWIDTH 1069 0
DWIDTH 34 0
BBX 29 23 3 0
BITMAP
F801FE00
F807FF80
F80FFFC0
F81FFFE0
F83F87F0
F83F01F0
F83E01F0
F87E00F8
F87C00F8
FFFC00F8
FFFC00F8
FFFC00F8
FFFC00F8
F87C00F8
F87C00F8
F87C00F8
F83E01F0
F83F01F0
F81F87F0
F81FFFE0
F80FFFC0
F807FF80
F800FE00
ENDCHAR
STARTCHAR afii10049
ENCODING 1071
SWIDTH 665 0
DWIDTH 21 0
BBX 18 23 0 0
BITMAP
01FFC0
07FFC0
0FFFC0
1FFFC0
1F07C0
3E07C0
3E07C0
3E07C0
1F07C0
1F87C0
1FFFC0
0FFFC0
03FFC0
03FFC0
07C7C0
0FC7C0
0F87C0
1F07C0
1F07C0
3E07C0
7E07C0
7C07C0
FC07C0
ENDCHAR
STARTCHAR afii10065
ENCODING 1072
SWIDTH 604 0
DWIDTH 19 0
BBX 16 17 1 0
BITMAP
07F0
3FFC
3FFE
1FFE
183E
001F
001F
0FFF
3FFF
7FFF
7C1F
F81F
FC3F
FFFF
7FEF
3FCF
1F0F
ENDCHAR
STARTCHAR afii10066
ENCODING 1073
SWIDTH 622 0
DWIDTH 20 0
BBX 18 24 1 0
BITMAP
000780
00FF80
07FF80
0FFF80
1FFC00
3F0000
3E0000
7C0000
7CFC00
79FE00
7BFF00
FFFF80
FF1F80
FC0F80
F807C0
7807C0
7807C0
7C0780
7C0F80
3E1F80
3FFF00
1FFF00
0FFC00
03F000
ENDCHAR
STARTCHAR afii10067
ENCODING 1074
SWIDTH 639 0
DWIDTH 20 0
BBX 17 17 2 0
BITMAP
FFF800
FFFE00
FFFF00
F81F00
F81F00
F81F00
F81F00
FFFE00
FFF800
FFFE00
F81F00
F80F80
F80F80
F81F80
FFFF00
FFFE00
FFF800
ENDCHAR
STARTCHAR afii10068
ENCODING 1075
SWIDTH 478 0
DWIDTH 15 0
BBX 12 17 2 0
BITMAP
FFF0
FFF0
FFF0
FFF0
F800
F800
F800
F800
F800
F800
F800
F800
F800
F800
F800
F800
F800
ENDCHAR
STARTCHAR afii10069
ENCODING 1076
SWIDTH 664 0
DWIDTH 21 0
BBX 21 23 0 -6
BITMAP
03FFC0
03FFC0
07FFC0
07FFC0
07C7C0
0787C0
0787C0
0F87C0
0F87C0
0F07C0
1F07C0
1F07C0
3E07C0
FFFFF8
FFFFF8
FFFFF8
FFFFF8
F800F8
F800F8
F800F8
F800F8
F800F8
F800F8
ENDCHAR
STARTCHAR afii10070
ENCODING 1077
SWIDTH 590 0
DWIDTH 19 0
BBX 17 17 1 0
BITMAP
07F000
0FFC00
3FFE00
3E1F00
7C0F00
7C0F00
780F80
FFFF80
FFFF80
FFFF80
780000
7C0000
7E0300
3FFF00
3FFF00
0FFF00
03FC00
ENDCHAR
STARTCHAR afii10072
ENCODING 1078
SWIDTH 873 0
DWIDTH 28 0
BBX 28 17 0 0
BITMAP
7C0F03E0
3E0F07C0
1E0F0780
1F0F0F80
0F8F1F00
07CF3E00
03CF3C00
01EF7800
01FFF800
03EF7C00
07CF3E00
0F8F1F00
0F8F1F00
1F0F0F80
3E0F07C0
7C0F03E0
FC0F01F0
ENDCHAR
STARTCHAR afii10073
ENCODING 1079
SWIDTH 555 0
DWIDTH 18 0
BBX 16 17 1 0
BITMAP
1FF0
FFFC
7FFE
7FFE
303E
001E
003E
0FFC
0FF0
0FFC
003E
001F
E03F
FFFF
FFFE
FFFC
3FE0
ENDCHAR
STARTCHAR afii10074
ENCODING 1080
SWIDTH 720 0
DWIDTH 23 0
BBX 19 17 2 0
BITMAP
F80FE0
F80FE0
F81FE0
F83FE0
F83FE0
F87FE0
F8FBE0
F8FBE0
F9F3E0
FBE3E0
FBE3E0
FFC3E0
FF83E0
FF83E0
FF03E0
FE03E0
FE03E0
ENDCHAR
STARTCHAR afii10075
ENCODING 1081
SWIDTH 720 0
DWIDTH 23 0
BBX 19 25 2 0
BITMAP
3C0780
3C0F80
3E0F00
1FFF00
0FFE00
07F800
000000
000000
F80FE0
F80FE0
F81FE0
F83FE0
F83FE0
F87FE0
F8FBE0
F8FBE0
F9F3E0
FBE3E0
FBE3E0
FFC3E0
FF83E0
FF83E0
FF03E0
FE03E0
FE03E0
ENDCHAR
STARTCHAR afii10076
ENCODING 1082
SWIDTH 619 0
DWIDTH 20 0
BBX 18 17 2 0
BITMAP
F80F80
F81F00
F83E00
F87C00
F8F800
F8F800
F9F000
FBE000
FFE000
FBE000
F9F000
F8F800
F87C00
F83E00
F83F00
F81F80
F80FC0
ENDCHAR
STARTCHAR afii10077
ENCODING 1083
SWIDTH 645 0
DWIDTH 21 0
BBX 19 17 0 0
BITMAP
07FFE0
07FFE0
07FFE0
07FFE0
0783E0
0F83E0
0F83E0
0F83E0
0F83E0
0F03E0
0F03E0
1F03E0
1F03E0
FE03E0
FE03E0
FC03E0
F803E0
ENDCHAR
STARTCHAR afii10078
ENCODING 1084
SWIDTH 844 0
DWIDTH 27 0
BBX 23 17 2 0
BITMAP
FE00FE
FF01FE
FF01FE
FF81FE
FF83FE
FF83FE
FBC7BE
FBC7BE
FBEFBE
F9EF3E
F9EF3E
F8EE3E
F8FE3E
F8FE3E
F87C3E
F87C3E
F8383E
ENDCHAR
STARTCHAR afii10079
ENCODING 1085
SWIDTH 662 0
DWIDTH 21 0
BBX 17 17 2 0
BITMAP
F80F80
F80F80
F80F80
F80F80
F80F80
F80F80
F80F80
FFFF80
FFFF80
FFFF80
FFFF80
F80F80
F80F80
F80F80
F80F80
F80F80
F80F80
ENDCHAR
STARTCHAR afii10080
ENCODING 1086
SWIDTH 619 0
DWIDTH 20 0
BBX 18 17 1 0
BITMAP
03F000
0FFC00
3FFE00
3FFF00
7E1F80
7C0F80
7C0F80
F80780
F807C0
F807C0
7C0F80
7C0F80
7E1F80
3FFF00
1FFF00
0FFC00
03F000
ENDCHAR
STARTCHAR afii10081
ENCODING 1087
SWIDTH 651 0
DWIDTH 21 0
BBX 17 17 2 0
BITMAP
FFFF80
FFFF80
FFFF80
FFFF80
F80F80
F80F80
F80F80
F80F80
F80F80
F80F80
F80F80
F80F80
F80F80
F80F80
F80F80
F80F80
F80F80
ENDCHAR
STARTCHAR afii10082
ENCODING 1088
SWIDTH 632 0
DWIDTH 20 0
BBX 17 25 2 -8
BITMAP
F0F800
FBFC00
FFFE00
FFFF00
FE3F00
FC1F00
F80F00
F80F80
F80F80
F80F80
F81F00
FC1F00
FE3F00
FFFF00
FFFE00
FBFC00
F9F000
F80000
F80000
F80000
F80000
F80000
F80000
F80000
F80000
ENDCHAR
STARTCHAR afii10083
ENCODING 1089
SWIDTH 514 0
DWIDTH 16 0
BBX 14 17 1 0
BITMAP
07F0
1FFC
3FFC
3FF8
7E18
7C00
7C00
F800
F800
F800
7C00
7C00
7E08
7FF8
3FF8
1FF8
07F0
ENDCHAR
STARTCHAR afii10084
ENCODING 1090
SWIDTH 553 0
DWIDTH 18 0
BBX 16 17 1 0
BITMAP
FFFF
FFFF
FFFF
FFFF
03C0
03C0
03C0
03C0
03C0
03C0
03C0
03C0
03C0
03C0
03C0
03C0
03C0
ENDCHAR
STARTCHAR afii10085
ENCODING 1091
SWIDTH 568 0
DWIDTH 18 0
BBX 18 25 0 -8
BITMAP
F807C0
7C0F80
7C0F80
7C0F80
3E1F00
3E1F00
1E1F00
1F3E00
1F3E00
0F3C00
0FFC00
07FC00
07F800
07F800
03F800
03F000
01F000
01E000
03E000
03E000
07C000
7FC000
7F8000
7F0000
7C0000
ENDCHAR
STARTCHAR afii10086
ENCODING 1092
SWIDTH 813 0
DWIDTH 26 0
BBX 24 32 1 -8
BITMAP
003C00
003C00
003C00
003C00
003C00
003C00
003C00
01FF80
0FFFF0
1FFFF8
3FFFFC
7F3CFE
7E3C7E
7C3C3E
F83C1F
F83C1F
F83C3F
7C3C3E
7C3C3E
7F3CFE
3FFFFC
1FFFF8
0FFFF0
01FF80
003C00
003C00
003C00
003C00
003C00
003C00
003C00
003C00
ENDCHAR
STARTCHAR afii10087
ENCODING 1093
SWIDTH 578 0
DWIDTH 19 0
BBX 18 17 0 0
BITMAP
7C07C0
3E0FC0
3F1F80
1F1F00
0FBE00
0FFE00
07FC00
03F800
03F800
07FC00
07FC00
0FBE00
1FBF00
1F1F00
3E0F80
7E0FC0
FC07C0
ENDCHAR
STARTCHAR afii10088
ENCODING 1094
SWIDTH 687 0
DWIDTH 22 0
BBX 20 23 2 -6
BITMAP
F80F80
F80F80
F80F80
F80F80
F80F80
F80F80
F80F80
F80F80
F80F80
F80F80
F80F80
F80F80
F80F80
FFFFF0
FFFFF0
FFFFF0
FFFFF0
0001F0
0001F0
0001F0
0001F0
0001F0
0001F0
ENDCHAR
STARTCHAR afii10089
ENCODING 1095
SWIDTH 655 0
DWIDTH 21 0
BBX 17 17 2 0
BITMAP
F80F80
F80F80
F80F80
F80F80
F80F80
F80F80
F80F80
F83F80
FFFF80
7FFF80
7FFF80
1F8F80
000F80
000F80
000F80
000F80
000F80
ENDCHAR
STARTCHAR afii10090
ENCODING 1096
SWIDTH 969 0
DWIDTH 31 0
BBX 27 17 2 0
BITMAP
F81F03E0
F81F03E0
F81F03E0
F81F03E0
F81F03E0
F81F03E0
F81F03E0
F81F03E0
F81F03E0
F81F03E0
F81F03E0
F81F03E0
F81F03E0
FFFFFFE0
FFFFFFE0
FFFFFFE0
FFFFFFE0
ENDCHAR
STARTCHAR afii10091
ENCODING 1097
SWIDTH 984 0
DWIDTH 32 0
BBX 29 23 2 -6
BITMAP
F81F03E0
F81F03E0
F81F03E0
F81F03E0
F81F03E0
F81F03E0
F81F03E0
F81F03E0
F81F03E0
F81F03E0
F81F03E0
F81F03E0
F81F03E0
FFFFFFF8
FFFFFFF8
FFFFFFF8
FFFFFFF8
00000078
00000078
00000078
00000078
00000078
00000078
ENDCHAR
STARTCHAR afii10092
ENCODING 1098
SWIDTH 709 0
DWIDTH 23 0
BBX 22 17 0 0
BITMAP
FFC000
FFC000
FFC000
FFC000
03C000
03C000
03C000
03FFC0
03FFF0
03FFF8
03C0FC
03C07C
03C07C
03C0FC
03FFF8
03FFF0
03FFC0
ENDCHAR
STARTCHAR afii10093
ENCODING 1099
SWIDTH 850 0
DWIDTH 27 0
BBX 23 17 2 0
BITMAP
F8003E
F8003E
F8003E
F8003E
F8003E
F8003E
F8003E
FFF03E
FFFC3E
FFFE3E
F83E3E
F83E3E
F83E3E
F83E3E
FFFE3E
FFFC3E
FFF03E
ENDCHAR
STARTCHAR afii10094
ENCODING 1100
SWIDTH 613 0
DWIDTH 20 0
BBX 17 17 2 0
BITMAP
F80000
F80000
F80000
F80000
F80000
F80000
F80000
FFF800
FFFE00
FFFF00
F81F80
F80F80
F80F80
F81F80
FFFF00
FFFE00
FFF800
ENDCHAR
STARTCHAR afii10095
ENCODING 1101
SWIDTH 512 0
DWIDTH 16 0
BBX 14 17 1 0
BITMAP
1F80
FFE0
7FF0
7FF8
61F8
00F8
0078
3FFC
3FFC
3FFC
0078
00F8
C1F8
FFF0
FFF0
FFE0
3F80
ENDCHAR
STARTCHAR afii10096
ENCODING 1102
SWIDTH 876 0
DWIDTH 28 0
BBX 25 17 2 0
BITMAP
F807F000
F81FF800
F83FFE00
F83FFE00
F87E3F00
F87C1F00
F8781F00
FFF80F80
FFF80F80
FFF80F80
FFF81F00
F8FC1F00
F87E3F00
F87FFE00
F83FFE00
F81FFC00
F807F000
ENDCHAR
STARTCHAR afii10097
ENCODING 1103
SWIDTH 592 0
DWIDTH 19 0
BBX 17 17 0 0
BITMAP
07FF80
1FFF80
3FFF80
3E0F80
7C0F80
7C0F80
7C0F80
3E0F80
3FFF80
1FFF80
0FFF80
0F8F80
1F0F80
1E0F80
3E0F80
7C0F80
FC0F80
ENDCHAR
STARTCHAR uni0450
ENCODING 1104
SWIDTH 590 0
DWIDTH 19 0
BBX 17 24 1 0
BITMAP
1F0000
0F8000
07C000
03E000
00F000
000000
000000
07F000
0FFC00
3FFE00
3E1F00
7C0F00
7C0F00
780F80
FFFF80
FFFF80
FFFF80
780000
7C0000
7E0300
3FFF00
3FFF00
0FFF00
03FC00
ENDCHAR
STARTCHAR afii10071
ENCODING 1105
SWIDTH 590 0
DWIDTH 19 0
BBX 17 24 1 0
BITMAP
0E3800
1F7C00
1F7C00
0E3800
000000
000000
000000
07F000
0FFC00
3FFE00
3E1F00
7C0F00
7C0F00
780F80
FFFF80
FFFF80
FFFF80
780000
7C0000
7E0300
3FFF00
3FFF00
0FFF00
03FC00
ENDCHAR
STARTCHAR afii10099
ENCODING 1106
SWIDTH 657 0
DWIDTH 21 0
BBX 19 32 0 -8
BITMAP
3E0000
3E0000
FFF000
FFF000
FFF000
3E0000
3E0000
3E3E00
3EFF80
3FFFC0
3FFFC0
3F87C0
3F07E0
3F03E0
3E03E0
3E03E0
3E03E0
3E03E0
3E03E0
3E03E0
3E03E0
3E03E0
3E03E0
3E03E0
0003E0
0003E0
0003E0
0007C0
003FC0
003FC0
003F80
003F00
ENDCHAR
STARTCHAR afii10100
ENCODING 1107
SWIDTH 478 0
DWIDTH 15 0
BBX 12 24 2 0
BITMAP
01F0
03E0
07C0
0F80
0E00
0000
0000
FFF0
FFF0
FFF0
FFF0
F800
F800
F800
F800
F800
F800
F800
F800
F800
F800
F800
F800
F800
ENDCHAR
STARTCHAR afii10101
ENCODING 1108
SWIDTH 523 0
DWIDTH 17 0
BBX 15 17 1 0
BITMAP
07F8
1FFE
3FFE
3FFC
7E0C
7C00
7800
FFF0
FFF0
FFF0
7800
7C00
7E0C
3FFC
3FFC
1FFC
03F8
ENDCHAR
STARTCHAR afii10102
ENCODING 1109
SWIDTH 497 0
DWIDTH 16 0
BBX 14 17 1 0
BITMAP
0FE0
3FF8
7FF8
7FF8
F830
F800
7F00
7FE0
1FF0
07F8
00FC
007C
E07C
FFF8
FFF8
FFF0
3FC0
ENDCHAR
STARTCHAR afii10103
ENCODING 1110
SWIDTH 305 0
DWIDTH 10 0
BBX 5 24 2 0
BITMAP
78
F8
F8
F8
78
00
00
F8
F8
F8
F8
F8
F8
F8
F8
F8
F8
F8
F8
F8
F8
F8
F8
F8
ENDCHAR
STARTCHAR afii10104
ENCODING 1111
SWIDTH 305 0
DWIDTH 10 0
BBX 11 24 -1 0
BITMAP
71C0
FBE0
79E0
71C0
0000
0000
0000
1F00
1F00
1F00
1F00
1F00
1F00
1F00
1F00
1F00
1F00
1F00
1F00
1F00
1F00
1F00
1F00
1F00
ENDCHAR
STARTCHAR afii10105
ENCODING 1112
SWIDTH 305 0
DWIDTH 10 0
BBX 9 32 -2 -8
BITMAP
0780
0F80
0F80
0F80
0780
0000
0000
0F80
0F80
0F80
0F80
0F80
0F80
0F80
0F80
0F80
0F80
0F80
0F80
0F80
0F80
0F80
0F80
0F80
0F80
0F80
0F80
0F80
FF80
FF00
FF00
FC00
ENDCHAR
STARTCHAR afii10106
ENCODING 1113
SWIDTH 888 0
DWIDTH 28 0
BBX 27 17 0 0
BITMAP
07FF8000
07FF8000
07FF8000
07FF8000
0F8F8000
0F8F8000
0F8F8000
0F0FFE00
0F0FFF80
0F0FFFC0
1F0F87E0
1F0F83E0
3F0F83E0
FE0F87E0
FE0FFFC0
FC0FFF80
F80FFE00
ENDCHAR
STARTCHAR afii10107
ENCODING 1114
SWIDTH 888 0
DWIDTH 28 0
BBX 25 17 2 0
BITMAP
F83E0000
F83E0000
F83E0000
F83E0000
F83E0000
F83E0000
F83E0000
FFFFF800
FFFFFE00
FFFFFF00
FFFE1F80
F83E0F80
F83E0F80
F83E1F80
F83FFF00
F83FFE00
F83FF800
ENDCHAR
STARTCHAR afii10108
ENCODING 1115
SWIDTH 657 0
DWIDTH 21 0
BBX 19 24 0 0
BITMAP
3E0000
3E0000
FFF000
FFF000
FFF000
3E0000
3E0000
3E3E00
3EFF80
3FFFC0
3FFFC0
3F87C0
3F07E0
3F03E0
3E03E0
3E03E0
3E03E0
3E03E0
3E03E0
3E03E0
3E03E0
3E03E0
3E03E0
3E03E0
ENDCHAR
STARTCHAR afii10109
ENCODING 1116
SWIDTH 619 0
DWIDTH 20 0
BBX 18 24 2 0
BITMAP
007E00
00FC00
00F000
01E000
03C000
000000
000000
F80F80
F81F00
F83E00
F87C00
F8F800
F8F800
F9F000
FBE000
FFE000
FBE000
F9F000
F8F800
F87C00
F83E00
F83F00
F81F80
F80FC0
ENDCHAR
STARTCHAR uni045D
ENCODING 1117
SWIDTH 720 0
DWIDTH 23 0
BBX 19 24 2 0
BITMAP
1F8000
0FC000
03C000
01E000
00F000
000000
000000
F80FE0
F80FE0
F81FE0
F83FE0
F83FE0
F87FE0
F8FBE0
F8FBE0
F9F3E0
FBE3E0
FBE3E0
FFC3E0
FF83E0
FF83E0
FF03E0
FE03E0
FE03E0
ENDCHAR
STARTCHAR afii10110
ENCODING 1118
SWIDTH 568 0
DWIDTH 18 0
BBX 18 33 0 -8
BITMAP
7C0F00
3C0F00
3C1F00
3FFE00
1FFC00
07F000
000000
000000
F807C0
7C0F80
7C0F80
7C0F80
3E1F00
3E1F00
1E1F00
1F3E00
1F3E00
0F3C00
0FFC00
07FC00
07F800
07F800
03F800
03F000
01F000
01E000
03E000
03E000
07C000
7FC000
7F8000
7F0000
7C0000
ENDCHAR
STARTCHAR afii10193
ENCODING 1119
SWIDTH 671 0
DWIDTH 22 0
BBX 18 23 2 -6
BITMAP
F807C0
F807C0
F807C0
F807C0
F807C0
F807C0
F807C0
F807C0
F807C0
F807C0
F807C0
F807C0
F807C0
FFFFC0
FFFFC0
FFFFC0
FFFFC0
01E000
01E000
01E000
01E000
01E000
01E000
ENDCHAR
STARTCHAR uni0460
ENCODING 1120
SWIDTH 1087 0
DWIDTH 35 0
BBX 31 23 2 0
BITMAP
03E00F80
0FF83FE0
3FF83FF0
3FF83FF8
7E1010FC
7C00007C
F800003E
F800003E
F800003E
F800003E
F800003E
F800003E
F807C03E
F807C03E
F807C03E
F807C03E
7C07C07C
7E07C0FC
7F0FE1F8
3FFFFFF8
1FFFFFF0
0FFEFFE0
03F83F80
ENDCHAR
STARTCHAR uni0461
ENCODING 1121
SWIDTH 884 0
DWIDTH 28 0
BBX 27 17 0 0
BITMAP
F83E03E0
7C3F03E0
7C1F03E0
7C1F03E0
3C1F03C0
3E0F83C0
3E1F87C0
1E1F87C0
1F3FC7C0
1F3FC780
0F3FCF80
0FFFCF00
07FBFF00
07F9FE00
07F1FE00
03F0FC00
03E0F800
ENDCHAR
STARTCHAR uni0462
ENCODING 1122
SWIDTH 672 0
DWIDTH 22 0
BBX 21 24 0 0
BITMAP
0F8000
0F8000
0F8000
FFFE00
FFFE00
FFFE00
FFFE00
0F8000
0F8000
0F8000
0FFE00
0FFFC0
0FFFE0
0FFFF0
0F83F0
0F81F0
0F80F8
0F80F8
0F81F0
0F83F0
0FFFF0
0FFFE0
0FFFC0
0FFE00
ENDCHAR
STARTCHAR uni0463
ENCODING 1123
SWIDTH 662 0
DWIDTH 21 0
BBX 20 20 0 0
BITMAP
0F8000
0F8000
0F8000
FFFC00
FFFC00
FFFC00
FFFC00
0F8000
0F8000
0F8000
0FFF00
0FFFC0
0FFFE0
0F83F0
0F81F0
0F81F0
0F83F0
0FFFE0
0FFFC0
0FFF00
ENDCHAR
STARTCHAR uni0464
ENCODING 1124
SWIDTH 950 0
DWIDTH 30 0
BBX 26 23 3 0
BITMAP
F801FE00
F807FFC0
F81FFFC0
F83FFF80
F83F0380
F87E0000
F87C0000
F8F80000
F8F80000
FFFFFC00
FFFFFC00
FFFFFC00
FFFFFC00
F8F80000
F8F80000
F8F80000
F87C0000
F87E0000
F87F0180
F83FFF80
F81FFF80
F80FFF80
F801FE00
ENDCHAR
STARTCHAR uni0465
ENCODING 1125
SWIDTH 799 0
DWIDTH 26 0
BBX 23 17 2 0
BITMAP
F803F0
F80FFE
F83FFC
F83FFC
F87E0C
F87C00
F87C00
FFFFF8
FFFFF8
FFFFF8
FFFFF8
F87C00
F87E06
F83FFE
F83FFE
F81FFE
F803F8
ENDCHAR
STARTCHAR uni0466
ENCODING 1126
SWIDTH 729 0
DWIDTH 23 0
BBX 23 23 0 0
BITMAP
00FE00
00FE00
00FF00
01EF00
01EF00
01E780
03C780
03C780
0783C0
07FFC0
07FFC0
0FFFE0
0FFFE0
0F3DF0
1F3CF0
1E3CF0
3E3CF8
3E3C78
3C3C78
7C3C7C
7C3C3C
783C3C
F83C3E
ENDCHAR
STARTCHAR uni0467
ENCODING 1127
SWIDTH 640 0
DWIDTH 20 0
BBX 20 17 0 0
BITMAP
01F800
03F800
03FC00
03FC00
079E00
079E00
0F0F00
0FFF00
0FFF00
1FFF80
1EF780
3CF3C0
3CF3C0
7CF3E0
78F1E0
78F1E0
F8F1F0
ENDCHAR
STARTCHAR uni0468
ENCODING 1128
SWIDTH 1004 0
DWIDTH 32 0
BBX 29 23 3 0
BITMAP
F803F800
F803F800
F803F800
F807BC00
F807BC00
F80FBE00
F80F1E00
F80F1E00
F81E0F00
FFFFFF00
FFFFFF00
FFFFFF80
FFFFFF80
F87DF780
F879F3C0
F879F3C0
F8F9F3E0
F8F1F1E0
F8F1F1E0
F9F1F1F0
F9F1F0F0
F9E1F0F0
FBE1F0F8
ENDCHAR
STARTCHAR uni0469
ENCODING 1129
SWIDTH 901 0
DWIDTH 29 0
BBX 27 17 2 0
BITMAP
F807F000
F807F000
F807F000
F80F7800
F80F7800
F81E3C00
F81E3C00
FFFFFE00
FFFFFE00
FFFFFF00
FFFFFF00
F87BEF80
F8FBEF80
F8F3E780
F9F3E7C0
F9E3E3C0
FBE3E3E0
ENDCHAR
STARTCHAR uni046A
ENCODING 1130
SWIDTH 804 0
DWIDTH 26 0
BBX 24 23 1 0
BITMAP
3FFFFC
3FFFFC
3FFFFC
1FFFF8
0F00F8
0F81F0
07C3E0
03E7C0
01E780
01FF80
03FFC0
07FFE0
0FFFF0
1FFFF8
1F3CF8
3E3C7C
3E3C7C
3C3C3C
7C3C3E
7C3C3E
783C1E
F83C1F
F83C1F
ENDCHAR
STARTCHAR uni046B
ENCODING 1131
SWIDTH 623 0
DWIDTH 20 0
BBX 19 17 0 0
BITMAP
3FFFE0
3FFFE0
3FFFC0
1F0F80
0F0F00
079E00
03FC00
07FE00
0FFF00
1FFF80
1EF780
3CF3C0
3CF3C0
7CF1C0
78F1E0
78F1E0
F8F1E0
ENDCHAR
STARTCHAR uni046C
ENCODING 1132
SWIDTH 1073 0
DWIDTH 34 0
BBX 30 23 3 0
BITMAP
F8FFFFF0
F8FFFFF0
F8FFFFF0
F87FFFE0
F83C03E0
F83E07C0
F81F0F80
F80F9F00
F8079E00
FFFFFE00
FFFFFF00
FFFFFF80
FFFFFFC0
F87FFFE0
F87CF3E0
F8F8F1F0
F8F8F1F0
F8F0F0F0
F9F0F0F8
F9F0F0F8
F9E0F078
FBE0F07C
FBE0F07C
ENDCHAR
STARTCHAR uni046D
ENCODING 1133
SWIDTH 879 0
DWIDTH 28 0
BBX 26 17 2 0
BITMAP
F8FFFF80
F8FFFF80
F8FFFF00
F87C3E00
F83E7C00
F81F7800
FFFFF000
FFFFF800
FFFFFC00
FFFFFE00
F87BDE00
F8F3CF00
F8F3CF00
F9F3C700
F9E3C780
F9E3C780
FBE3C7C0
ENDCHAR
STARTCHAR uni046E
ENCODING 1134
SWIDTH 631 0
DWIDTH 20 0
BBX 18 36 1 -8
BITMAP
3C0F00
1E1F00
0F3D00
07F800
07F000
0FF800
3FFE00
FFFF00
7FFF80
781F80
200F80
000F80
000F80
003F00
0FFE00
0FF800
0FFC00
0FFF00
003F80
000F80
0007C0
0007C0
000FC0
001F80
0FFF80
7FFF00
FFFE00
FFF000
F80000
F00000
F80000
FFFC00
FFFE00
7FFE00
1FFE00
000200
ENDCHAR
STARTCHAR uni046F
ENCODING 1135
SWIDTH 555 0
DWIDTH 18 0
BBX 17 28 0 -7
BITMAP
1C0F00
1E1F00
0F3F00
07F800
1FF800
3FFE00
3FFF00
381F00
000F00
001F00
07FE00
07F800
07FE00
001F00
000F80
000F80
001F80
0FFF00
3FFF00
7FFE00
7FF000
780000
F80000
780000
7FFC00
7FFC00
3FFC00
1FFC00
ENDCHAR
STARTCHAR uni0470
ENCODING 1136
SWIDTH 875 0
DWIDTH 28 0
BBX 24 23 2 0
BITMAP
F03C0F
F03C0F
F03C0F
F03C0F
F03C0F
F03C0F
F03C0F
F03C0F
F03C0F
F83C1F
F83C1F
FC3C3F
7FFFFE
3FFFFC
1FFFF8
07FFE0
003C00
003C00
003C00
003C00
003C00
003C00
003C00
ENDCHAR
STARTCHAR uni0471
ENCODING 1137
SWIDTH 836 0
DWIDTH 27 0
BBX 23 32 2 -8
BITMAP
007C00
007C00
007C00
007C00
007C00
007C00
007C00
F87C3C
F87C3C
F87C3E
F87C3E
F87C1E
F87C1E
F87C1E
F87C1E
F87C1E
F87C1E
F87C3E
7C7C3E
7E7CFC
3FFFFC
3FFFF8
0FFFF0
03FF80
007C00
007C00
007C00
007C00
007C00
007C00
007C00
007C00
ENDCHAR
STARTCHAR uni0472
ENCODING 1138
SWIDTH 795 0
DWIDTH 25 0
BBX 21 23 2 0
BITMAP
01FC00
0FFF80
1FFFC0
3FFFE0
7F07F0
7E03F0
7C01F0
F800F8
F800F8
FFFFF8
FFFFF8
FFFFF8
FFFFF8
F800F8
F800F8
F800F8
7C01F0
7E03F0
7F07F0
3FFFE0
1FFFC0
0FFF80
01FC00
ENDCHAR
STARTCHAR uni0473
ENCODING 1139
SWIDTH 619 0
DWIDTH 20 0
BBX 18 17 1 0
BITMAP
03F000
0FFC00
3FFE00
3FFF00
7E1F80
7C0F80
780F80
FFFF80
FFFFC0
FFFFC0
780F80
7C0F80
7E1F80
3FFF00
1FFF00
0FFC00
03F000
ENDCHAR
STARTCHAR uni0474
ENCODING 1140
SWIDTH 716 0
DWIDTH 23 0
BBX 23 23 0 0
BITMAP
F8003C
7800FE
7C00FE
7C01FE
3C01F0
3E03E0
3E03E0
1E03E0
1F07C0
1F07C0
0F0780
0F8F80
0F8F80
078F00
079F00
07DF00
03DE00
03DE00
03FE00
01FC00
01FC00
01FC00
00F800
ENDCHAR
STARTCHAR uni0475
ENCODING 1141
SWIDTH 604 0
DWIDTH 19 0
BBX 19 17 0 0
BITMAP
F803E0
7807E0
7C07E0
7C0FE0
3C0F80
3E1F00
3E1F00
1E1E00
1F3E00
0F3C00
0F3C00
0FFC00
07F800
07F800
03F000
03F000
03F000
ENDCHAR
STARTCHAR uni0476
ENCODING 1142
SWIDTH 716 0
DWIDTH 23 0
BBX 23 30 0 0
BITMAP
1F7C00
0F3C00
079E00
038E00
01C700
000000
000000
F8003C
7800FE
7C00FE
7C01FE
3C01F0
3E03E0
3E03E0
1E03E0
1F07C0
1F07C0
0F0780
0F8F80
0F8F80
078F00
079F00
07DF00
03DE00
03DE00
03FE00
01FC00
01FC00
01FC00
00F800
ENDCHAR
STARTCHAR uni0477
ENCODING 1143
SWIDTH 604 0
DWIDTH 19 0
BBX 19 24 0 0
BITMAP
7DF000
3EF800
1E7800
0F3C00
078E00
000000
000000
F803E0
7807E0
7C07E0
7C0FE0
3C0F80
3E1F00
3E1F00
1E1E00
1F3E00
0F3C00
0F3C00
0FFC00
07F800
07F800
03F000
03F000
03F000
ENDCHAR
STARTCHAR uni0478
ENCODING 1144
SWIDTH 1318 0
DWIDTH 42 0
BBX 40 31 2 -8
BITMAP
03FC000000
0FFF000000
1FFF800000
3FFFC00000
7F07E00000
7C03E00000
FC03F3E01F
F801F1F03E
F801F1F03E
F801F1F03E
F801F0F87C
F801F0F87C
F801F0787C
F801F07CF8
F801F07CF8
F801F03CF0
FC03F03FF0
7C03E01FF0
7F07E01FE0
3FFFC01FE0
1FFF800FE0
0FFF000FC0
03FC0007C0
0000000780
0000000F80
0000000F80
0000001F00
000001FF00
000001FE00
000001FC00
000001F000
ENDCHAR
STARTCHAR uni0479
ENCODING 1145
SWIDTH 1145 0
DWIDTH 37 0
BBX 36 25 1 -8
BITMAP
03F83E01F0
0FFE1F03E0
3FFF1F03E0
3FFF9F03E0
7E1F8F87C0
7C0FCF87C0
7C07C787C0
F807C7CF80
F807C7CF80
F807C3CF00
7C07C3FF00
7C0FC1FF00
7E1F81FE00
3FFF81FE00
1FFF00FE00
0FFE00FC00
03F8007C00
0000007800
000000F800
000000F800
000001F000
00001FF000
00001FE000
00001FC000
00001F0000
ENDCHAR
STARTCHAR uni047A
ENCODING 1146
SWIDTH 835 0
DWIDTH 27 0
BBX 23 27 2 -2
BITMAP
001000
007C00
01FF00
07FFC0
1FFFF0
3FFFF8
3F39F8
7E00FC
7C007C
F8003E
F8003E
F8003E
F8003E
F8003E
F8003E
F8003E
F8003E
F8003E
7C007C
7E00FC
3F39F8
3FFFF8
1FFFF0
07FFC0
01FF00
007C00
001000
ENDCHAR
STARTCHAR uni047B
ENCODING 1147
SWIDTH 679 0
DWIDTH 22 0
BBX 20 20 1 -2
BITMAP
00F000
03FC00
0FFF00
1FFF80
3FFFC0
7EF7E0
7C03E0
7C03E0
F801E0
F801F0
F801F0
7C03E0
7C03E0
7EF7E0
3FFFC0
1FFF80
0FFF00
03FC00
00F000
006000
ENDCHAR
STARTCHAR uni047C
ENCODING 1148
SWIDTH 1087 0
DWIDTH 35 0
BBX 31 34 2 0
BITMAP
001F0000
003FE000
003FFC00
0079FC00
00703C00
00038000
0007C000
0003C000
0001C000
00038000
00070000
03E00F80
0FF83FE0
3FF83FF0
3FF83FF8
7E1010FC
7C00007C
F800003E
F800003E
F800003E
F800003E
F800003E
F800003E
F800003E
F800003E
F800003E
F800003E
7C01007C
7C03807C
7F0FE1F8
3FFFFFF8
1FFFFFF0
0FFEFFE0
03F83F80
ENDCHAR
STARTCHAR uni047D
ENCODING 1149
SWIDTH 890 0
DWIDTH 28 0
BBX 26 28 1 0
BITMAP
007C0000
01FF8000
01FFF000
01EFF000
01C1F000
001E0000
001E0000
000E0000
001E0000
00180000
00000000
07E1F800
1FF3FE00
3FE1FF00
7FE1FF80
7E211F80
7C000F80
7C000F80
F80007C0
F80007C0
FC0007C0
7C000F80
7C0C0F80
7E1E1F80
3FFFFF00
3FFFFF00
1FFFFE00
07E1F800
ENDCHAR
STARTCHAR uni047E
ENCODING 1150
SWIDTH 1087 0
DWIDTH 35 0
BBX 31 29 2 0
BITMAP
007FFC00
007FFC00
00739800
00210800
00000000
00000000
03E00F80
0FF83FE0
3FF83FF0
3FF83FF8
7E1010FC
7C00007C
F800003E
F800003E
F800003E
F800003E
F800003E
F800003E
F807C03E
F807C03E
F807C03E
F807C03E
7C07C07C
7E07C0FC
7F0FE1F8
3FFFFFF8
1FFFFFF0
0FFEFFE0
03F83F80
ENDCHAR
STARTCHAR uni047F
ENCODING 1151
SWIDTH 884 0
DWIDTH 28 0
BBX 27 22 0 0
BITMAP
01FFF000
01FFF000
00CE7000
00842000
00000000
F83E03E0
7C3E03E0
7C1E03E0
7C1F03E0
3C1F03C0
3E0F03C0
1E1F87C0
1E1F87C0
1F1F87C0
0F3FC780
0F3FCF80
0FFFCF00
07FBFF00
07F9FE00
07F1FC00
03F1FC00
03F0F800
ENDCHAR
STARTCHAR uni0480
ENCODING 1152
SWIDTH 676 0
DWIDTH 22 0
BBX 19 31 2 -8
BITMAP
00FF00
07FFE0
0FFFE0
1FFFC0
3F83C0
7E0000
7C0000
FC0000
F80000
F80000
F80000
F80000
F80000
F80000
F80000
F80000
7C0000
7E0000
3F0080
3FFF80
1FFF80
07FF80
01FF80
000F80
000F80
000F80
000F80
000F80
000F80
000F80
000F80
ENDCHAR
STARTCHAR uni0481
ENCODING 1153
SWIDTH 523 0
DWIDTH 17 0
BBX 15 25 1 -8
BITMAP
07F8
1FFE
3FFE
3FFC
7E0C
7C00
7C00
F800
F800
F800
7C00
7C00
7E00
3FF8
3FF8
0FF8
03F8
0078
0078
0078
0078
0078
0078
0078
0078
ENDCHAR
STARTCHAR uni0482
ENCODING 1154
SWIDTH 608 0
DWIDTH 19 0
BBX 15 20 2 0
BITMAP
0008
001C
0038
0E38
0FF0
03E0
00F0
00FC
01DE
0386
C380
F700
7E00
1E00
0F80
1FE0
38E0
3800
7000
2000
ENDCHAR
STARTCHAR uni0483
ENCODING 1155
SWIDTH 557 0
DWIDTH 18 0
BBX 12 5 3 18
BITMAP
0070
0070
FFF0
FFF0
E000
ENDCHAR
STARTCHAR uni0484
ENCODING 1156
SWIDTH 577 0
DWIDTH 18 0
BBX 12 5 4 19
BITMAP
07C0
1FE0
FFF0
FCF0
F070
ENDCHAR
STARTCHAR uni0485
ENCODING 1157
SWIDTH 577 0
DWIDTH 18 0
BBX 5 6 7 19
BITMAP
70
F8
F0
E0
70
38
ENDCHAR
STARTCHAR uni0486
ENCODING 1158
SWIDTH 577 0
DWIDTH 18 0
BBX 5 6 7 19
BITMAP
F0
F8
78
38
F0
C0
ENDCHAR
STARTCHAR uni0488
ENCODING 1160
SWIDTH 988 0
DWIDTH 32 0
BBX 30 28 1 -5
BITMAP
00030000
000F8000
0008C000
00000000
06000180
1F0007E0
11800420
00000000
00000000
00000000
00000000
00000000
30000030
FC0000FC
84000084
00000000
00000000
00000000
00000000
00000000
06000180
1F0007E0
11800420
00000000
00000000
00030000
000F8000
0008C000
ENDCHAR
STARTCHAR uni0489
ENCODING 1161
SWIDTH 956 0
DWIDTH 31 0
BBX 29 29 1 -6
BITMAP
00030000
00030000
00030000
00060000
0C060000
060001C0
06000780
03000E00
03000400
00000000
00000000
00000000
00000000
E00000C0
F80000F8
18000038
00000000
00000000
00000000
00000000
00000000
01000600
03800600
0F000300
1C030300
00030180
00070000
00060000
00060000
ENDCHAR
STARTCHAR uni048A
ENCODING 1162
SWIDTH 916 0
DWIDTH 29 0
BBX 25 38 3 -7
BITMAP
3E07C000
1E078000
1E0F8000
1FFF0000
0FFE0000
03F80000
00000000
00000000
F003F000
F007F000
F007F000
F00FF000
F00FF000
F01FF000
F01EF000
F03EF000
F07CF000
F07CF000
F0F8F000
F0F0F000
F1F0F000
F3E0F000
F3E0F000
F7C0F000
F780F000
FF80F000
FF00F000
FF00FF80
FE00FF80
FE00FF80
FC00FF00
00000F00
00001F00
00001F00
00001E00
00003E00
00003E00
00007E00
ENDCHAR
STARTCHAR uni048B
ENCODING 1163
SWIDTH 801 0
DWIDTH 26 0
BBX 23 31 2 -6
BITMAP
3C0780
3C0F80
3E0F00
1FFF00
0FFE00
03F800
000000
000000
F80FE0
F80FE0
F81FE0
F83FE0
F83FE0
F87FE0
F8FBE0
F8FBE0
F9F3E0
FBE3E0
FBE3E0
FFC3E0
FF83E0
FF83FE
FF03FE
FE03FE
FE03FC
00003C
00003C
00003C
000078
000078
000078
ENDCHAR
STARTCHAR uni048C
ENCODING 1164
SWIDTH 616 0
DWIDTH 20 0
BBX 18 23 1 0
BITMAP
3E0000
3E0000
FFF000
FFF000
FFF000
FFF000
3E0000
3E0000
3E0000
3FF800
3FFE00
3FFF80
3FFF80
3E0FC0
3E07C0
3E07C0
3E07C0
3E07C0
3E0FC0
3FFF80
3FFF80
3FFF00
3FF800
ENDCHAR
STARTCHAR uni048D
ENCODING 1165
SWIDTH 613 0
DWIDTH 20 0
BBX 19 24 0 0
BITMAP
3E0000
3E0000
3E0000
FFF800
FFF800
FFF800
3E0000
3E0000
3E0000
3E0000
3E0000
3E0000
3E0000
3FFE00
3FFF80
3FFFC0
3E07E0
3E03E0
3E03E0
3E03E0
3E07E0
3FFFC0
3FFF80
3FFE00
ENDCHAR
STARTCHAR uni048E
ENCODING 1166
SWIDTH 627 0
DWIDTH 20 0
BBX 16 23 3 0
BITMAP
FFE0
FFF8
FFFC
FFFE
F87E
F83E
F81F
F81F
F89E
F9FE
F9FE
FFFE
FFFC
FFF8
FFF8
F83C
F818
F800
F800
F800
F800
F800
F800
ENDCHAR
STARTCHAR uni048F
ENCODING 1167
SWIDTH 632 0
DWIDTH 20 0
BBX 17 25 2 -8
BITMAP
F8F800
FBFC00
FFFE00
FFFF00
FE3F00
FC1F00
F81F00
F80F80
F80F80
F80F80
F87F00
FCFF00
FE7F00
FFFF00
FFFE00
FBFE00
F9FE00
F80E00
F80400
F80000
F80000
F80000
F80000
F80000
F80000
ENDCHAR
STARTCHAR afii10050
ENCODING 1168
SWIDTH 581 0
DWIDTH 19 0
BBX 15 28 3 0
BITMAP
001E
001E
001E
001E
001E
FFFE
FFFE
FFFE
FFFE
F800
F800
F800
F800
F800
F800
F800
F800
F800
F800
F800
F800
F800
F800
F800
F800
F800
F800
F800
ENDCHAR
STARTCHAR afii10098
ENCODING 1169
SWIDTH 512 0
DWIDTH 16 0
BBX 13 22 2 0
BITMAP
0078
0078
0078
0078
0078
FFF8
FFF8
FFF8
FFF8
F800
F800
F800
F800
F800
F800
F800
F800
F800
F800
F800
F800
F800
ENDCHAR
STARTCHAR uni0492
ENCODING 1170
SWIDTH 559 0
DWIDTH 18 0
BBX 16 23 1 0
BITMAP
3FFF
3FFF
3FFF
3FFF
3E00
3E00
3E00
3E00
3E00
3E00
FFF8
FFF8
FFF8
FFF8
3E00
3E00
3E00
3E00
3E00
3E00
3E00
3E00
3E00
ENDCHAR
STARTCHAR uni0493
ENCODING 1171
SWIDTH 491 0
DWIDTH 16 0
BBX 15 17 0 0
BITMAP
3FFE
3FFE
3FFE
3FFE
3E00
3E00
3E00
FFF0
FFF0
FFF0
FFF0
3E00
3E00
3E00
3E00
3E00
3E00
ENDCHAR
STARTCHAR uni0494
ENCODING 1172
SWIDTH 733 0
DWIDTH 23 0
BBX 18 31 3 -8
BITMAP
FFFC00
FFFC00
FFFC00
FFFC00
F80000
F80000
F80000
F80000
F80000
F80000
FFF000
FFFC00
FFFE00
FFFF00
F83F80
F80F80
F807C0
F807C0
F807C0
F803C0
F803C0
F803C0
F807C0
0007C0
0007C0
000FC0
041F80
07FF80
07FF00
07FE00
03F800
ENDCHAR
STARTCHAR uni0495
ENCODING 1173
SWIDTH 602 0
DWIDTH 19 0
BBX 16 25 2 -8
BITMAP
FFF8
FFF8
FFF8
FFF8
F800
F800
F800
FFE0
FFF0
FFFC
FFFC
F87E
F83E
F81F
F81F
F81F
F81F
001F
001F
003E
087E
0FFE
0FFC
0FF8
07E0
ENDCHAR
STARTCHAR uni0496
ENCODING 1174
SWIDTH 1028 0
DWIDTH 33 0
BBX 32 30 0 -7
BITMAP
7C0780F8
7C0780F8
3E0781F0
1F0783E0
0F0783C0
0F8787C0
07C78F80
03C78F00
03E79F00
01F7BE00
00F7BC00
00FFFC00
01F7BE00
03E79F00
03E79F00
07C78F80
0F8787C0
0F8787C0
1F0783E0
3E0781FF
3E0781FF
7C0780FF
FC0780FF
0000001F
0000001F
0000001F
0000001F
0000001F
0000001F
0000001F
ENDCHAR
STARTCHAR uni0497
ENCODING 1175
SWIDTH 941 0
DWIDTH 30 0
BBX 29 23 0 -6
BITMAP
7C0F03E0
3E0F07C0
1E0F0780
1F0F0F80
0F8F1F00
07CF3E00
03CF3C00
01EF7800
01FFF800
03EF7C00
07CF3E00
0F8F1F00
0F8F1F80
1F0F0FF8
3E0F07F8
7C0F03F8
FC0F01F8
00000078
00000078
00000078
00000078
00000078
00000078
ENDCHAR
STARTCHAR uni0498
ENCODING 1176
SWIDTH 647 0
DWIDTH 21 0
BBX 18 31 2 -8
BITMAP
0FF000
7FFE00
FFFF00
FFFF00
781F80
400F80
000F80
000F80
003F00
1FFE00
1FF800
1FFC00
1FFF00
003F80
000F80
0007C0
0007C0
000FC0
E01F80
FFFF80
FFFF00
FFFE00
3FF000
038000
01C000
00E000
00E000
00E000
07E000
07E000
078000
ENDCHAR
STARTCHAR uni0499
ENCODING 1177
SWIDTH 555 0
DWIDTH 18 0
BBX 16 25 1 -8
BITMAP
1FF0
FFFC
7FFE
7FFE
303E
001E
003E
0FFC
0FF0
0FFC
003E
001F
E03F
FFFF
FFFE
FFFC
3FE0
0700
0380
01C0
01C0
01C0
0FC0
0FC0
0F80
ENDCHAR
STARTCHAR uni049A
ENCODING 1178
SWIDTH 755 0
DWIDTH 24 0
BBX 21 30 3 -7
BITMAP
F807C0
F80F80
F81F80
F81F00
F83E00
F87C00
F8F800
F8F800
F9F000
FBE000
FFC000
FFC000
FBE000
FBF000
F9F000
F8F800
F87C00
F87E00
F83E00
F81FF8
F80FF8
F80FF8
F807F8
0000F8
0000F8
0000F8
0000F8
0000F8
0000F8
0000F8
ENDCHAR
STARTCHAR uni049B
ENCODING 1179
SWIDTH 665 0
DWIDTH 21 0
BBX 19 23 2 -6
BITMAP
F80F80
F81F00
F83E00
F87C00
F8F800
F8F800
F9F000
FBE000
FFE000
FBF000
F9F800
F8FC00
F87E00
F83FE0
F83FE0
F81FE0
F80FE0
0001E0
0001E0
0001E0
0001E0
0001E0
0001E0
ENDCHAR
STARTCHAR uni049C
ENCODING 1180
SWIDTH 664 0
DWIDTH 21 0
BBX 18 23 3 0
BITMAP
F80FC0
F81F80
F99F00
F9BE00
F9FC00
F9FC00
F9F800
F9F000
FBE000
FFE000
FFC000
FFE000
FFF000
FDF000
F9F800
F9F800
F9FC00
F9FE00
F9BE00
F9BF00
F81F00
F80F80
F80FC0
ENDCHAR
STARTCHAR uni049D
ENCODING 1181
SWIDTH 599 0
DWIDTH 19 0
BBX 17 17 2 0
BITMAP
F81F00
F83E00
FBBC00
FBFC00
FBF800
FBF000
FBE000
FBC000
FFC000
FBE000
FBF000
FBF000
FBF800
FBFC00
FBBE00
FB9F00
F80F80
ENDCHAR
STARTCHAR uni049E
ENCODING 1182
SWIDTH 643 0
DWIDTH 21 0
BBX 21 23 0 0
BITMAP
3E01F8
3E03F0
FF87E0
FF87C0
FF8F80
FF9F00
3E3F00
3E7E00
3E7C00
3EF800
3FF800
3FF800
3FFC00
3FFE00
3E3E00
3E1F00
3E1F80
3E0F80
3E07C0
3E07E0
3E03E0
3E01F0
3E01F8
ENDCHAR
STARTCHAR uni049F
ENCODING 1183
SWIDTH 620 0
DWIDTH 20 0
BBX 20 24 0 0
BITMAP
3E0000
3E0000
3E0000
FFF000
FFF000
FFF000
3E0000
3E03E0
3E07C0
3E0F80
3E1F00
3E3E00
3E7C00
3EF800
3FF800
3FF800
3FFC00
3FBE00
3F3F00
3E1F80
3E0F80
3E07C0
3E07E0
3E03F0
ENDCHAR
STARTCHAR uni04A0
ENCODING 1184
SWIDTH 732 0
DWIDTH 23 0
BBX 23 23 0 0
BITMAP
FFC07E
FFC0FC
FFC0F8
FFC1F0
07C3E0
07C7E0
07C7C0
07CF80
07DF00
07FF00
07FE00
07FF00
07FF80
07EF80
07CFC0
07C7C0
07C3E0
07C3F0
07C1F0
07C1F8
07C0F8
07C07C
07C07E
ENDCHAR
STARTCHAR uni04A1
ENCODING 1185
SWIDTH 694 0
DWIDTH 22 0
BBX 22 17 0 0
BITMAP
FFC0F8
FFC1F0
FFC3E0
FFC3E0
07C7C0
07CF80
07DF00
07DE00
07FE00
07DF00
07CF80
07CF80
07C7C0
07C3E0
07C1F0
07C0F8
07C07C
ENDCHAR
STARTCHAR uni04A2
ENCODING 1186
SWIDTH 840 0
DWIDTH 27 0
BBX 23 30 3 -7
BITMAP
F807C0
F807C0
F807C0
F807C0
F807C0
F807C0
F807C0
F807C0
F807C0
FFFFC0
FFFFC0
FFFFC0
FFFFC0
F807C0
F807C0
F807C0
F807C0
F807C0
F807C0
F807FE
F807FE
F807FE
F807FE
00003E
00003E
00003E
00003E
00003E
00003E
00003E
ENDCHAR
STARTCHAR uni04A3
ENCODING 1187
SWIDTH 743 0
DWIDTH 24 0
BBX 21 23 2 -6
BITMAP
F80F80
F80F80
F80F80
F80F80
F80F80
F80F80
F80F80
FFFF80
FFFF80
FFFF80
FFFF80
F80F80
F80F80
F80FF8
F80FF8
F80FF8
F80FF8
000078
000078
000078
000078
000078
000078
ENDCHAR
STARTCHAR uni04A4
ENCODING 1188
SWIDTH 833 0
DWIDTH 27 0
BBX 24 23 3 0
BITMAP
F807FF
F807FF
F807FF
F807FF
F807C0
F807C0
F807C0
F807C0
F807C0
FFFFC0
FFFFC0
FFFFC0
FFFFC0
F807C0
F807C0
F807C0
F807C0
F807C0
F807C0
F807C0
F807C0
F807C0
F807C0
ENDCHAR
STARTCHAR uni04A5
ENCODING 1189
SWIDTH 757 0
DWIDTH 24 0
BBX 22 17 2 0
BITMAP
F80FFC
F80FFC
F80FFC
F80FFC
F80F80
F80F80
F80F80
FFFF80
FFFF80
FFFF80
FFFF80
F80F80
F80F80
F80F80
F80F80
F80F80
F80F80
ENDCHAR
STARTCHAR uni04A6
ENCODING 1190
SWIDTH 1125 0
DWIDTH 36 0
BBX 31 31 3 -8
BITMAP
FFFF8000
FFFF8000
FFFF8000
FFFF8000
F80F8000
F80F8000
F80F8000
F80F8000
F80F8000
F80F8000
F80FFF80
F80FFFE0
F80FFFF0
F80FFFF8
F80F81FC
F80F807C
F80F803E
F80F803E
F80F803E
F80F801E
F80F801E
F80F801E
F80F803E
0000003E
0000003E
0000007E
000020FC
00003FF8
00003FF8
00003FF0
00003FC0
ENDCHAR
STARTCHAR uni04A7
ENCODING 1191
SWIDTH 889 0
DWIDTH 28 0
BBX 25 25 2 -8
BITMAP
FFFF0000
FFFF0000
FFFF0000
FFFF0000
F81F0000
F81F0000
F81F0000
F81FF000
F81FFC00
F81FFE00
F81FFE00
F81F3F00
F81F1F00
F81F0F80
F81F0F80
F81F0F80
F81F0F80
00000F80
00000F80
00001F00
00043F00
0007FF00
0007FE00
0007FC00
0003F000
ENDCHAR
STARTCHAR uni04A8
ENCODING 1192
SWIDTH 776 0
DWIDTH 25 0
BBX 22 24 2 -1
BITMAP
03F800
0FFC00
1FF800
3FF800
7F0000
7C0000
7C0FC0
F81FE0
F83FF0
F83FF8
F87CF8
F87C78
F87878
F87878
F87878
F87CF8
7C3CF8
7E3FF0
7F1FE0
3FFFC0
1FFFFC
0FFFFC
01FFFC
0000FC
ENDCHAR
STARTCHAR uni04A9
ENCODING 1193
SWIDTH 655 0
DWIDTH 21 0
BBX 19 18 1 -1
BITMAP
07E000
1FF000
3FE000
3FE000
7E1F00
7C7F80
787FC0
F8FFC0
F8F3C0
F8F1C0
78F1C0
7CFBC0
7E7FC0
3FFF80
3FFF00
0FFFE0
07FFE0
0003E0
ENDCHAR
STARTCHAR uni04AA
ENCODING 1194
SWIDTH 637 0
DWIDTH 20 0
BBX 17 31 2 -8
BITMAP
01FC00
07FF80
1FFF80
3FFF00
3F0700
7E0000
7C0000
F80000
F80000
F80000
F80000
F80000
F80000
F80000
F80000
F80000
7C0000
7E0000
7F0300
3FFF00
1FFF00
0FFF00
03FC00
00E000
007000
003800
003800
003C00
01F800
01F800
01F000
ENDCHAR
STARTCHAR uni04AB
ENCODING 1195
SWIDTH 514 0
DWIDTH 16 0
BBX 14 25 1 -8
BITMAP
07F0
1FFC
3FFC
3FF8
7E18
7C00
7C00
F800
F800
F800
7C00
7C00
7E08
7FF8
3FF8
1FF8
07F0
01C0
00E0
0070
0070
0070
03F0
03F0
03C0
ENDCHAR
STARTCHAR uni04AC
ENCODING 1196
SWIDTH 579 0
DWIDTH 19 0
BBX 17 30 1 -7
BITMAP
FFFF80
FFFF80
FFFF80
FFFF80
03E000
03E000
03E000
03E000
03E000
03E000
03E000
03E000
03E000
03E000
03E000
03E000
03E000
03E000
03E000
03FF00
03FF00
03FF00
03FF00
001F00
001F00
001F00
001F00
001F00
001F00
001F00
ENDCHAR
STARTCHAR uni04AD
ENCODING 1197
SWIDTH 549 0
DWIDTH 18 0
BBX 16 23 1 -6
BITMAP
FFFF
FFFF
FFFF
FFFF
03C0
03C0
03C0
03C0
03C0
03C0
03C0
03C0
03C0
03FE
03FE
03FE
03FE
003E
003E
003E
003E
003E
003E
ENDCHAR
STARTCHAR uni04AE
ENCODING 1198
SWIDTH 624 0
DWIDTH 20 0
BBX 20 23 0 0
BITMAP
FC03F0
7C03E0
7E07E0
3E07C0
3F0FC0
1F0F80
1F9F00
0F9F00
07FE00
07FE00
03FC00
03FC00
01F800
01F800
00F000
00F000
00F000
00F000
00F000
00F000
00F000
00F000
00F000
ENDCHAR
STARTCHAR uni04AF
ENCODING 1199
SWIDTH 574 0
DWIDTH 18 0
BBX 18 25 0 -8
BITMAP
F807C0
7C0F80
7C0F80
7C0F80
3E1F00
3E1F00
1E3E00
1F3E00
1F3E00
0F3C00
0FFC00
0FFC00
07F800
07F800
03F000
03F000
03F000
01E000
01E000
01E000
01E000
01E000
01E000
01E000
01E000
ENDCHAR
STARTCHAR uni04B0
ENCODING 1200
SWIDTH 624 0
DWIDTH 20 0
BBX 20 23 0 0
BITMAP
FC01F0
7C03E0
7C03E0
3E07C0
3E07C0
1F0F80
1F0F80
0F9F00
0F9F00
07FE00
07FC00
03FC00
01F800
01F800
00F000
1FFF80
1FFF80
1FFF80
1FFF80
00F000
00F000
00F000
00F000
ENDCHAR
STARTCHAR uni04B1
ENCODING 1201
SWIDTH 574 0
DWIDTH 18 0
BBX 18 25 0 -8
BITMAP
F807C0
7C0F80
7C0F80
7C0F80
3E1F00
3E1F00
1F1E00
1F3E00
1F3E00
0F3C00
0FFC00
0FFC00
07F800
07F800
03F000
03F000
03F000
3FFF00
3FFF00
3FFF00
3FFF00
01E000
01E000
01E000
01E000
ENDCHAR
STARTCHAR uni04B2
ENCODING 1202
SWIDTH 743 0
DWIDTH 24 0
BBX 23 30 0 -7
BITMAP
7C01F0
7E03F0
3E03E0
1F07C0
1F07C0
0F8F80
07CF00
07DF00
03FE00
03FE00
01FC00
01FC00
01FC00
03FE00
07FE00
07DF00
0F8F80
1F0F80
1F07C0
3E07FE
3E03FE
7C01FE
FC01FE
00003E
00003E
00003E
00003E
00003E
00003E
00003E
ENDCHAR
STARTCHAR uni04B3
ENCODING 1203
SWIDTH 640 0
DWIDTH 20 0
BBX 21 23 0 -6
BITMAP
7C07C0
3E0FC0
3F1F80
1F1F00
0FBE00
0FFE00
07FC00
03F800
03F800
07FC00
07FC00
0FBE00
1FBF00
1F1FF8
3E0FF8
7E0FF8
FC07F8
0000F8
0000F8
0000F8
0000F8
0000F8
0000F8
ENDCHAR
STARTCHAR uni04B4
ENCODING 1204
SWIDTH 930 0
DWIDTH 30 0
BBX 28 30 1 -7
BITMAP
FFFF9F00
FFFF9F00
FFFF9F00
FFFF9F00
07C01F00
07C01F00
07C01F00
07C01F00
07C01F00
07C01F00
07C01F00
07C01F00
07C01F00
07C01F00
07C01F00
07C01F00
07C01F00
07C01F00
07C01F00
07FFFFF0
07FFFFF0
07FFFFF0
07FFFFF0
000000F0
000000F0
000000F0
000000F0
000000F0
000000F0
000000F0
ENDCHAR
STARTCHAR uni04B5
ENCODING 1205
SWIDTH 791 0
DWIDTH 25 0
BBX 24 23 1 -6
BITMAP
FFF9E0
FFF9E0
FFF9E0
FFF9E0
0F01E0
0F01E0
0F01E0
0F01E0
0F01E0
0F01E0
0F01E0
0F01E0
0F01E0
0FFFFF
0FFFFF
0FFFFF
0FFFFF
00001F
00001F
00001F
00001F
00001F
00001F
ENDCHAR
STARTCHAR uni04B6
ENCODING 1206
SWIDTH 804 0
DWIDTH 26 0
BBX 23 30 2 -7
BITMAP
F807C0
F807C0
F807C0
F807C0
F807C0
F807C0
F807C0
F807C0
F807C0
F807C0
F807C0
FC1FC0
FFFFC0
7FFFC0
3FFFC0
1FC7C0
0007C0
0007C0
0007C0
0007FE
0007FE
0007FE
0007FE
00003E
00003E
00003E
00003E
00003E
00003E
00003E
ENDCHAR
STARTCHAR uni04B7
ENCODING 1207
SWIDTH 726 0
DWIDTH 23 0
BBX 21 23 2 -6
BITMAP
F80F80
F80F80
F80F80
F80F80
F80F80
F80F80
F80F80
F83F80
FFFF80
7FFF80
7FFF80
1F8F80
000F80
000FF8
000FF8
000FF8
000FF8
000078
000078
000078
000078
000078
000078
ENDCHAR
STARTCHAR uni04B8
ENCODING 1208
SWIDTH 728 0
DWIDTH 23 0
BBX 18 23 2 0
BITMAP
F807C0
F807C0
F807C0
F807C0
F807C0
F807C0
F807C0
F8C7C0
F8C7C0
F8C7C0
F8C7C0
FCDFC0
FFFFC0
7FFFC0
3FFFC0
1FC7C0
00C7C0
00C7C0
00C7C0
00C7C0
00C7C0
0007C0
0007C0
ENDCHAR
STARTCHAR uni04B9
ENCODING 1209
SWIDTH 655 0
DWIDTH 21 0
BBX 17 17 2 0
BITMAP
F80F80
F80F80
F80F80
F80F80
F98F80
F98F80
F98F80
F9BF80
FFFF80
7FFF80
7FFF80
1F8F80
018F80
018F80
018F80
000F80
000F80
ENDCHAR
STARTCHAR uni04BA
ENCODING 1210
SWIDTH 728 0
DWIDTH 23 0
BBX 18 23 3 0
BITMAP
F80000
F80000
F80000
F80000
F80000
F80000
F80000
F8FE00
FFFF00
FFFF80
FFFFC0
FE0FC0
F807C0
F807C0
F807C0
F807C0
F807C0
F807C0
F807C0
F807C0
F807C0
F807C0
F807C0
ENDCHAR
STARTCHAR uni04BB
ENCODING 1211
SWIDTH 666 0
DWIDTH 21 0
BBX 17 17 2 0
BITMAP
F80000
F80000
F80000
F80000
F80000
F8FC00
FFFE00
FFFF00
FFFF00
FE1F80
F80F80
F80F80
F80F80
F80F80
F80F80
F80F80
F80F80
ENDCHAR
STARTCHAR uni04BC
ENCODING 1212
SWIDTH 948 0
DWIDTH 30 0
BBX 27 23 0 0
BITMAP
0007F800
001FFE00
007FFF00
00FFFF80
00FC0FC0
01F807C0
F1F003E0
F3E003E0
F3E003E0
FFFFFFE0
FFFFFFE0
7FFFFFE0
3FFFFFE0
03E00000
03E00000
01F00000
01F00000
01F800C0
00FE07C0
007FFFC0
003FFFC0
001FFF80
0007FC00
ENDCHAR
STARTCHAR uni04BD
ENCODING 1213
SWIDTH 714 0
DWIDTH 23 0
BBX 22 17 0 0
BITMAP
003F80
00FFE0
01FFF0
03F0F8
F3E078
E3C078
F7C07C
FFFFFC
7FFFFC
3FFFFC
07C000
07E000
03F018
03FFF8
01FFF8
00FFF8
003FE0
ENDCHAR
STARTCHAR uni04BE
ENCODING 1214
SWIDTH 948 0
DWIDTH 30 0
BBX 27 30 0 -7
BITMAP
0007F800
001FFE00
007FFF00
00FFFF80
00FC0FC0
01F807C0
F1F003E0
F3E003E0
F3E003E0
FFFFFFE0
FFFFFFE0
7FFFFFE0
3FFFFFE0
03E00000
03E00000
03F00000
01F00000
01F800C0
00FE07C0
00FFFFC0
007FFFC0
001FFF80
0007FE00
0001E000
0001E000
0001E000
0001E000
0001E000
0001E000
0001E000
ENDCHAR
STARTCHAR uni04BF
ENCODING 1215
SWIDTH 714 0
DWIDTH 23 0
BBX 22 23 0 -6
BITMAP
003F80
00FFE0
01FFF0
03F0F8
F3E078
E3C078
F7C07C
FFFFFC
7FFFFC
3FFFFC
07C000
07E000
03F018
03FFF8
01FFF8
00FFF8
003FE0
000F00
000F00
000F00
000F00
000F00
000F00
ENDCHAR
STARTCHAR uni04C0
ENCODING 1216
SWIDTH 331 0
DWIDTH 11 0
BBX 5 23 3 0
BITMAP
F8
F8
F8
F8
F8
F8
F8
F8
F8
F8
F8
F8
F8
F8
F8
F8
F8
F8
F8
F8
F8
F8
F8
ENDCHAR
STARTCHAR uni04C1
ENCODING 1217
SWIDTH 942 0
DWIDTH 30 0
BBX 30 31 0 0
BITMAP
01F03C00
01F03C00
00F07C00
00FFF800
007FF000
001FE000
00000000
00000000
7C0780F8
7C0780F8
3E0781F0
1F0783E0
0F0783C0
0F8787C0
07C78F80
03C78F00
03E79F00
01F7BE00
00F7BC00
00FFFC00
01F7BE00
03E79F00
03E79F00
07C78F80
0F8787C0
0F8787C0
1F0783E0
3E0781F0
3E0781F0
7C0780F8
FC0780FC
ENDCHAR
STARTCHAR uni04C2
ENCODING 1218
SWIDTH 873 0
DWIDTH 28 0
BBX 28 25 0 0
BITMAP
03C07800
03E07800
01E0F800
01FFF000
00FFE000
003F8000
00000000
00000000
7C0F03E0
3E0F07C0
1E0F0780
1F0F0F80
0F8F1F00
07CF3E00
03CF3C00
01EF7800
01FFF800
03EF7C00
07CF3E00
0F8F1F00
0F8F1F00
1F0F0F80
3E0F07C0
7C0F03E0
FC0F01F0
ENDCHAR
STARTCHAR uni04C3
ENCODING 1219
SWIDTH 759 0
DWIDTH 24 0
BBX 19 31 3 -8
BITMAP
F80FC0
F80F80
F81F00
F83E00
F87E00
F87C00
F8F800
F9F000
F9E000
FBE000
FFC000
FFF800
FFFE00
FFFF80
FFFFC0
F81FC0
F807E0
F803E0
F803E0
F801E0
F801E0
F801E0
F801E0
0003E0
0003E0
0007E0
020FC0
03FFC0
03FF80
03FF00
01FC00
ENDCHAR
STARTCHAR uni04C4
ENCODING 1220
SWIDTH 661 0
DWIDTH 21 0
BBX 18 25 2 -8
BITMAP
F81F80
F81F00
F83E00
F87C00
F8F800
F9F000
FBE000
FBC000
FFF800
FFFE00
FFFF00
FFFF80
F81F80
F80F80
F807C0
F807C0
F807C0
0007C0
0007C0
000F80
021F80
03FF80
03FF00
03FE00
01F800
ENDCHAR
STARTCHAR uni04C5
ENCODING 1221
SWIDTH 837 0
DWIDTH 27 0
BBX 26 30 0 -7
BITMAP
01FFF800
03FFF800
03FFF800
03FFF800
03E0F800
03C0F800
03C0F800
03C0F800
07C0F800
07C0F800
07C0F800
07C0F800
0780F800
0780F800
0F80F800
0F80F800
0F80F800
0F80F800
1F00F800
FF00FFC0
FE00FFC0
FE00FFC0
F800FF80
00000780
00000F80
00000F80
00000F00
00001F00
00001F00
00003F00
ENDCHAR
STARTCHAR uni04C6
ENCODING 1222
SWIDTH 727 0
DWIDTH 23 0
BBX 23 23 0 -6
BITMAP
07FFE0
07FFE0
07FFE0
07FFE0
0783E0
0F83E0
0F83E0
0F83E0
0F83E0
0F03E0
0F03E0
1F03E0
1F03E0
FE03FE
FE03FE
FC03FE
F803FC
00003C
00003C
00003C
000078
000078
000078
ENDCHAR
STARTCHAR uni04C7
ENCODING 1223
SWIDTH 765 0
DWIDTH 24 0
BBX 18 31 3 -8
BITMAP
F807C0
F807C0
F807C0
F807C0
F807C0
F807C0
F807C0
F807C0
F807C0
FFFFC0
FFFFC0
FFFFC0
FFFFC0
F807C0
F807C0
F807C0
F807C0
F807C0
F807C0
F807C0
F807C0
F807C0
F807C0
0007C0
0007C0
000FC0
041F80
07FF80
07FF00
07FE00
03F800
ENDCHAR
STARTCHAR uni04C8
ENCODING 1224
SWIDTH 662 0
DWIDTH 21 0
BBX 17 25 2 -8
BITMAP
F80F80
F80F80
F80F80
F80F80
F80F80
F80F80
F80F80
FFFF80
FFFF80
FFFF80
FFFF80
F80F80
F80F80
F80F80
F80F80
F80F80
F80F80
000F00
000F00
001F00
043F00
07FF00
07FE00
07FC00
03F000
ENDCHAR
STARTCHAR uni04C9
ENCODING 1225
SWIDTH 857 0
DWIDTH 27 0
BBX 23 30 3 -7
BITMAP
F807C0
F807C0
F807C0
F807C0
F807C0
F807C0
F807C0
F807C0
F807C0
FFFFC0
FFFFC0
FFFFC0
FFFFC0
F807C0
F807C0
F807C0
F807C0
F807C0
F807C0
F807FE
F807FE
F807FE
F807FC
00003C
00007C
00007C
000078
0000F8
0000F8
0001F8
ENDCHAR
STARTCHAR uni04CA
ENCODING 1226
SWIDTH 744 0
DWIDTH 24 0
BBX 21 23 2 -6
BITMAP
F80F80
F80F80
F80F80
F80F80
F80F80
F80F80
F80F80
FFFF80
FFFF80
FFFF80
FFFF80
F80F80
F80F80
F80FF8
F80FF8
F80FF8
F80FF0
0000F0
0000F0
0000F0
0001E0
0001E0
0001E0
ENDCHAR
STARTCHAR uni04CB
ENCODING 1227
SWIDTH 728 0
DWIDTH 23 0
BBX 18 30 2 -7
BITMAP
F807C0
F807C0
F807C0
F807C0
F807C0
F807C0
F807C0
F807C0
F807C0
F807C0
F807C0
FC1FC0
FFFFC0
7FFFC0
3FFFC0
1FC7C0
0007C0
0007C0
0007C0
007FC0
007FC0
007FC0
007FC0
007C00
007C00
007C00
007C00
007C00
007C00
007C00
ENDCHAR
STARTCHAR uni04CC
ENCODING 1228
SWIDTH 655 0
DWIDTH 21 0
BBX 17 23 2 -6
BITMAP
F80F80
F80F80
F80F80
F80F80
F80F80
F80F80
F80F80
F83F80
FFFF80
7FFF80
7FFF80
1F8F80
000F80
00FF80
00FF80
00FF80
00FF80
00F000
00F000
00F000
00F000
00F000
00F000
ENDCHAR
STARTCHAR uni04CD
ENCODING 1229
SWIDTH 1036 0
DWIDTH 33 0
BBX 29 30 3 -7
BITMAP
FE007F00
FE007F00
FE007F00
FF00FF00
FF00FF00
FF00FF00
F701EF00
F781EF00
F781EF00
F783CF00
F3C3CF00
F3C3CF00
F3C38F00
F1E78F00
F1E78F00
F1E70F00
F0EF0F00
F0FF0F00
F0FE0F00
F0FE0FF8
F07E0FF8
F07C0FF8
F07C0FF0
000000F0
000001F0
000001F0
000001E0
000003E0
000003E0
000007E0
ENDCHAR
STARTCHAR uni04CE
ENCODING 1230
SWIDTH 925 0
DWIDTH 30 0
BBX 27 23 2 -6
BITMAP
FE00FE00
FF01FE00
FF01FE00
FF81FE00
FF83FE00
FF83FE00
FBC7BE00
FBC7BE00
FBEFBE00
F9EF3E00
F9EF3E00
F8EE3E00
F8FE3E00
F8FE3FE0
F87C3FE0
F87C3FE0
F8383FC0
000003C0
000003C0
000003C0
00000780
00000780
00000780
ENDCHAR
STARTCHAR uni04CF
ENCODING 1231
SWIDTH 331 0
DWIDTH 11 0
BBX 5 23 3 0
BITMAP
F8
F8
F8
F8
F8
F8
F8
F8
F8
F8
F8
F8
F8
F8
F8
F8
F8
F8
F8
F8
F8
F8
F8
ENDCHAR
STARTCHAR uni04D0
ENCODING 1232
SWIDTH 689 0
DWIDTH 22 0
BBX 22 31 0 0
BITMAP
1F03C0
1F03C0
0F07C0
0FFF80
07FF00
01FE00
000000
000000
00FC00
01FC00
01FE00
01FE00
03FF00
03CF00
03CF00
07CF80
078780
078780
0F87C0
0F87C0
0F03C0
1FFFE0
1FFFE0
1FFFE0
3FFFF0
3E01F0
3C00F0
7C00F8
7C00F8
7C00F8
F8007C
ENDCHAR
STARTCHAR uni04D1
ENCODING 1233
SWIDTH 604 0
DWIDTH 19 0
BBX 16 25 1 0
BITMAP
780F
7C0F
3C1F
3FFE
1FFC
07F0
0000
0000
07F0
3FFC
3FFE
1FFE
183E
001F
001F
0FFF
3FFF
7FFF
7C1F
F81F
FC3F
FFFF
7FEF
3FCF
1F0F
ENDCHAR
STARTCHAR uni04D2
ENCODING 1234
SWIDTH 689 0
DWIDTH 22 0
BBX 22 29 0 0
BITMAP
038F00
03CF00
03CF00
038E00
000000
000000
00FC00
01FC00
01FE00
01FE00
03FF00
03CF00
03CF00
07CF80
078780
078780
0F87C0
0F87C0
0F03C0
1FFFE0
1FFFE0
1FFFE0
3FFFF0
3E01F0
3C00F0
7C00F8
7C00F8
7C00F8
F8007C
ENDCHAR
STARTCHAR uni04D3
ENCODING 1235
SWIDTH 604 0
DWIDTH 19 0
BBX 16 24 1 0
BITMAP
0E38
1F7C
1E7C
0E38
0000
0000
0000
07F0
3FFC
3FFE
1FFE
183E
001F
001F
0FFF
3FFF
7FFF
7C1F
F81F
FC3F
FFFF
7FEF
3FCF
1F0F
ENDCHAR
STARTCHAR uni04D4
ENCODING 1236
SWIDTH 952 0
DWIDTH 30 0
BBX 28 23 0 0
BITMAP
003FFFF0
007FFFF0
007FFFF0
00FFFFF0
00F9F000
00F1F000
01F1F000
01E1F000
03E1F000
03C1FFF0
07C1FFF0
07C1FFF0
0781FFF0
0FFFF000
0FFFF000
1FFFF000
1FFFF000
3E01F000
3E01F000
3C01FFF0
7C01FFF0
7C01FFF0
F801FFF0
ENDCHAR
STARTCHAR uni04D5
ENCODING 1237
SWIDTH 916 0
DWIDTH 29 0
BBX 27 17 1 0
BITMAP
07F0FC00
3FFBFF00
3FFFFF80
1FFF87C0
183F03C0
001F03C0
001F03E0
0FFFFFE0
3FFFFFE0
7FFFFFE0
7C1F0000
F81F0000
FC3F80C0
7FFFFFC0
7FF7FFC0
3FE3FFC0
1F80FF00
ENDCHAR
STARTCHAR uni04D6
ENCODING 1238
SWIDTH 560 0
DWIDTH 18 0
BBX 15 31 2 0
BITMAP
F03E
F03E
F83C
7FFC
3FF8
1FE0
0000
0000
7FFC
7FFC
7FFC
7FFC
7C00
7C00
7C00
7C00
7C00
7FFC
7FFC
7FFC
7FFC
7C00
7C00
7C00
7C00
7C00
7C00
7FFC
7FFC
7FFC
7FFC
ENDCHAR
STARTCHAR uni04D7
ENCODING 1239
SWIDTH 590 0
DWIDTH 19 0
BBX 17 25 1 0
BITMAP
780F00
781F00
7C1E00
3FFE00
1FFC00
07F000
000000
000000
07F000
0FFC00
3FFE00
3E1F00
7C0F00
7C0F00
780F80
FFFF80
FFFF80
FFFF80
780000
7C0000
7E0300
3FFF00
3FFF00
0FFF00
03FC00
ENDCHAR
STARTCHAR uni04D8
ENCODING 1240
SWIDTH 816 0
DWIDTH 26 0
BBX 21 23 3 0
BITMAP
07FC00
3FFF00
7FFFC0
7FFFE0
7C07E0
6003F0
0001F0
0000F8
0000F8
0000F8
FFFFF8
FFFFF8
FFFFF8
FFFFF8
F800F8
F800F8
F801F0
7C03F0
7E07E0
3FFFE0
1FFFC0
0FFF00
03FC00
ENDCHAR
STARTCHAR uni04D9
ENCODING 1241
SWIDTH 601 0
DWIDTH 19 0
BBX 17 17 1 0
BITMAP
0FE000
7FF800
7FFE00
7FFE00
703F00
001F00
000F00
FFFF80
FFFF80
FFFF80
F80F00
781F00
7C1F00
7C3E00
3FFE00
1FFC00
07F000
ENDCHAR
STARTCHAR uni04DA
ENCODING 1242
SWIDTH 816 0
DWIDTH 26 0
BBX 21 29 3 0
BITMAP
079E00
079E00
079E00
038E00
000000
000000
07FC00
3FFF00
7FFFC0
7FFFE0
7C07E0
6003F0
0001F0
0000F8
0000F8
0000F8
FFFFF8
FFFFF8
FFFFF8
FFFFF8
F800F8
F800F8
F801F0
7C03F0
7E07E0
3FFFE0
1FFFC0
0FFF00
03FC00
ENDCHAR
STARTCHAR uni04DB
ENCODING 1243
SWIDTH 601 0
DWIDTH 19 0
BBX 17 24 1 0
BITMAP
0E3800
1F7C00
1F7C00
0E3800
000000
000000
000000
0FE000
7FF800
7FFE00
7FFE00
703F00
001F00
000F00
FFFF80
FFFF80
FFFF80
F80F00
781F00
7C1F00
7C3E00
3FFE00
1FFC00
07F000
ENDCHAR
STARTCHAR uni04DC
ENCODING 1244
SWIDTH 942 0
DWIDTH 30 0
BBX 30 29 0 0
BITMAP
003CF000
003CF000
003CF000
0038E000
00000000
00000000
7C0780F8
7C0780F8
3E0781F0
1F0783E0
0F0783C0
0F8787C0
07C78F80
03C78F00
03E79F00
01F7BE00
00F7BC00
00FFFC00
01F7BE00
03E79F00
03E79F00
07C78F80
0F8787C0
0F8787C0
1F0783E0
3E0781F0
3E0781F0
7C0780F8
FC0780FC
ENDCHAR
STARTCHAR uni04DD
ENCODING 1245
SWIDTH 873 0
DWIDTH 28 0
BBX 28 24 0 0
BITMAP
0071C000
0079E000
0079E000
0071C000
00000000
00000000
00000000
7C0F03E0
3E0F07C0
1E0F0780
1F0F0F80
0F8F1F00
07CF3E00
03CF3C00
01EF7800
01FFF800
03EF7C00
07CF3E00
0F8F1F00
0F8F1F00
1F0F0F80
3E0F07C0
7C0F03E0
FC0F01F0
ENDCHAR
STARTCHAR uni04DE
ENCODING 1246
SWIDTH 647 0
DWIDTH 21 0
BBX 18 29 2 0
BITMAP
1E7800
1E7800
1E7800
0E3800
000000
000000
0FF000
7FFE00
FFFF00
FFFF00
781F80
400F80
000F80
000F80
003F00
1FFE00
1FF800
1FFC00
1FFF00
003F80
000F80
0007C0
0007C0
000FC0
E01F80
FFFF80
FFFF00
FFFE00
3FF000
ENDCHAR
STARTCHAR uni04DF
ENCODING 1247
SWIDTH 555 0
DWIDTH 18 0
BBX 16 24 1 0
BITMAP
1C70
3EF8
1E78
1C70
0000
0000
0000
1FF0
FFFC
7FFE
7FFE
303E
001E
003E
0FFC
0FF0
0FFC
003E
001F
E03F
FFFF
FFFE
FFFC
3FE0
ENDCHAR
STARTCHAR uni04E0
ENCODING 1248
SWIDTH 590 0
DWIDTH 19 0
BBX 17 23 1 0
BITMAP
7FFF00
7FFF00
7FFF00
7FFE00
007C00
01F800
03F000
07E000
0FC000
1FF000
1FFC00
1FFE00
1FFF00
003F00
001F80
000F80
000F80
001F80
E03F00
FFFF00
FFFE00
FFFC00
3FE000
ENDCHAR
STARTCHAR uni04E1
ENCODING 1249
SWIDTH 581 0
DWIDTH 19 0
BBX 17 25 1 -8
BITMAP
7FFF00
7FFF00
7FFF00
7FFF00
007E00
00F800
01F000
03E000
0FC000
0FE000
0FFC00
0FFE00
0FFF00
007F00
001F00
000F80
000F80
000F80
000F80
001F00
E03F00
FFFE00
FFFE00
FFF800
3FE000
ENDCHAR
STARTCHAR uni04E2
ENCODING 1250
SWIDTH 823 0
DWIDTH 26 0
BBX 20 28 3 0
BITMAP
07FE00
07FE00
07FE00
000000
000000
F003F0
F007F0
F007F0
F00FF0
F00FF0
F01FF0
F01EF0
F03EF0
F07CF0
F07CF0
F0F8F0
F0F0F0
F1F0F0
F3E0F0
F3E0F0
F7C0F0
F780F0
FF80F0
FF00F0
FF00F0
FE00F0
FE00F0
FC00F0
ENDCHAR
STARTCHAR uni04E3
ENCODING 1251
SWIDTH 720 0
DWIDTH 23 0
BBX 19 22 2 0
BITMAP
0FFE00
0FFE00
0FFE00
000000
000000
F80FE0
F80FE0
F81FE0
F83FE0
F83FE0
F87FE0
F8FBE0
F8FBE0
F9F3E0
FBE3E0
FBE3E0
FFC3E0
FF83E0
FF83E0
FF03E0
FE03E0
FE03E0
ENDCHAR
STARTCHAR uni04E4
ENCODING 1252
SWIDTH 823 0
DWIDTH 26 0
BBX 20 29 3 0
BITMAP
079E00
079E00
079E00
071C00
000000
000000
F003F0
F007F0
F007F0
F00FF0
F00FF0
F01FF0
F01EF0
F03EF0
F07CF0
F07CF0
F0F8F0
F0F0F0
F1F0F0
F3E0F0
F3E0F0
F7C0F0
F780F0
FF80F0
FF00F0
FF00F0
FE00F0
FE00F0
FC00F0
ENDCHAR
STARTCHAR uni04E5
ENCODING 1253
SWIDTH 720 0
DWIDTH 23 0
BBX 19 24 2 0
BITMAP
071C00
0F3C00
0F3C00
071C00
000000
000000
000000
F80FE0
F80FE0
F81FE0
F83FE0
F83FE0
F87FE0
F8FBE0
F8FBE0
F9F3E0
FBE3E0
FBE3E0
FFC3E0
FF83E0
FF83E0
FF03E0
FE03E0
FE03E0
ENDCHAR
STARTCHAR uni04E6
ENCODING 1254
SWIDTH 795 0
DWIDTH 25 0
BBX 21 29 2 0
BITMAP
038E00
07DF00
07DF00
038E00
000000
000000
01FC00
0FFF80
1FFFC0
3FFFE0
7F07F0
7E03F0
7C01F0
FC01F8
F800F8
F800F8
F800F8
F800F8
F800F8
F800F8
F800F8
F801F8
7C01F0
7E03F0
7F07F0
3FFFE0
1FFFC0
0FFF80
01FC00
ENDCHAR
STARTCHAR uni04E7
ENCODING 1255
SWIDTH 619 0
DWIDTH 20 0
BBX 18 24 1 0
BITMAP
0E3800
1F7C00
0F3C00
0E3800
000000
000000
000000
03F000
0FFC00
3FFE00
3FFF00
7E1F80
7C0F80
7C0F80
F80780
F807C0
F807C0
7C0F80
7C0F80
7E1F80
3FFF00
1FFF00
0FFC00
03F000
ENDCHAR
STARTCHAR uni04E8
ENCODING 1256
SWIDTH 795 0
DWIDTH 25 0
BBX 21 23 2 0
BITMAP
01FC00
0FFF80
1FFFC0
3FFFE0
7F07F0
7E03F0
7C01F0
F800F8
F800F8
FFFFF8
FFFFF8
FFFFF8
FFFFF8
F800F8
F800F8
F800F8
7C01F0
7E03F0
7F07F0
3FFFE0
1FFFC0
0FFF80
01FC00
ENDCHAR
STARTCHAR uni04E9
ENCODING 1257
SWIDTH 619 0
DWIDTH 20 0
BBX 18 17 1 0
BITMAP
03F000
0FFC00
3FFE00
3FFF00
7E1F80
7C0F80
780F80
FFFF80
FFFFC0
FFFFC0
780F80
7C0F80
7E1F80
3FFF00
1FFF00
0FFC00
03F000
ENDCHAR
STARTCHAR uni04EA
ENCODING 1258
SWIDTH 795 0
DWIDTH 25 0
BBX 21 29 2 0
BITMAP
038E00
07DF00
07DF00
038E00
000000
000000
01FC00
0FFF80
1FFFC0
3FFFE0
7F07F0
7E03F0
7C01F0
F800F8
F800F8
FFFFF8
FFFFF8
FFFFF8
FFFFF8
F800F8
F800F8
F800F8
7C01F0
7E03F0
7F07F0
3FFFE0
1FFFC0
0FFF80
01FC00
ENDCHAR
STARTCHAR uni04EB
ENCODING 1259
SWIDTH 619 0
DWIDTH 20 0
BBX 18 24 1 0
BITMAP
0E3800
1F7C00
0F3C00
0E3800
000000
000000
000000
03F000
0FFC00
3FFE00
3FFF00
7E1F80
7C0F80
780F80
FFFF80
FFFFC0
FFFFC0
780F80
7C0F80
7E1F80
3FFF00
1FFF00
0FFC00
03F000
ENDCHAR
STARTCHAR uni04EC
ENCODING 1260
SWIDTH 663 0
DWIDTH 21 0
BBX 18 29 1 0
BITMAP
0F3C00
0F3C00
0F3C00
0F3C00
000000
000000
1FE000
FFFC00
FFFE00
7FFF00
703F00
000F80
000F80
0007C0
0007C0
1FFFC0
1FFFC0
1FFFC0
1FFFC0
0007C0
0007C0
0007C0
000F80
001F80
603F80
7FFF00
7FFE00
7FF800
1FE000
ENDCHAR
STARTCHAR uni04ED
ENCODING 1261
SWIDTH 512 0
DWIDTH 16 0
BBX 14 24 1 0
BITMAP
38F0
3CF0
3CF0
38E0
0000
0000
0000
1F80
FFE0
7FF0
7FF8
61F8
00F8
0078
3FFC
3FFC
3FFC
0078
00F8
C1F8
FFF0
FFF0
FFE0
3F80
ENDCHAR
STARTCHAR uni04EE
ENCODING 1262
SWIDTH 652 0
DWIDTH 21 0
BBX 21 28 0 0
BITMAP
07FF00
07FF00
07FF00
000000
000000
F800F8
7C01F0
7C01F0
3E01E0
3E03E0
1F03E0
1F07C0
0F87C0
0F8780
078F80
07CF00
03DF00
03FE00
01FE00
01FE00
00FC00
00FC00
01F800
03F800
7FF000
7FE000
7FC000
7F0000
ENDCHAR
STARTCHAR uni04EF
ENCODING 1263
SWIDTH 568 0
DWIDTH 18 0
BBX 18 30 0 -8
BITMAP
0FFC00
0FFC00
0FFC00
000000
000000
F807C0
7C0F80
7C0F80
7C0F80
3E1F00
3E1F00
1E1F00
1F3E00
1F3E00
0F3C00
0FFC00
07FC00
07F800
07F800
03F800
03F000
01F000
01E000
03E000
03E000
07C000
7FC000
7F8000
7F0000
7C0000
ENDCHAR
STARTCHAR uni04F0
ENCODING 1264
SWIDTH 652 0
DWIDTH 21 0
BBX 21 29 0 0
BITMAP
079E00
079E00
079E00
038E00
000000
000000
F800F8
7C01F0
7C01F0
3E01E0
3E03E0
1F03E0
1F07C0
0F87C0
0F8780
078F80
07CF00
03DF00
03FE00
01FE00
01FE00
00FC00
00FC00
01F800
03F800
7FF000
7FE000
7FC000
7F0000
ENDCHAR
STARTCHAR uni04F1
ENCODING 1265
SWIDTH 568 0
DWIDTH 18 0
BBX 18 32 0 -8
BITMAP
0F3C00
0F3C00
0F3C00
0E3800
000000
000000
000000
F807C0
7C0F80
7C0F80
7C0F80
3E1F00
3E1F00
1E1F00
1F3E00
1F3E00
0F3C00
0FFC00
07FC00
07F800
07F800
03F800
03F000
01F000
01E000
03E000
03E000
07C000
7FC000
7F8000
7F0000
7C0000
ENDCHAR
STARTCHAR uni04F2
ENCODING 1266
SWIDTH 652 0
DWIDTH 21 0
BBX 21 30 0 0
BITMAP
00FBE0
01F7C0
01E780
03CF00
079E00
000000
000000
F800F8
7C01F0
7C01F0
3E01E0
3E03E0
1F03E0
1F07C0
0F87C0
0F8780
078F80
07CF00
03DF00
03FE00
01FE00
01FE00
00FC00
00FC00
01F800
03F800
7FF000
7FE000
7FC000
7F0000
ENDCHAR
STARTCHAR uni04F3
ENCODING 1267
SWIDTH 568 0
DWIDTH 18 0
BBX 18 32 0 -8
BITMAP
03E780
03CF00
079E00
071C00
0E3800
000000
000000
F807C0
7C0F80
7C0F80
7C0F80
3E1F00
3E1F00
1E1F00
1F3E00
1F3E00
0F3C00
0FFC00
07FC00
07F800
07F800
03F800
03F000
01F000
01E000
03E000
03E000
07C000
7FC000
7F8000
7F0000
7C0000
ENDCHAR
STARTCHAR uni04F4
ENCODING 1268
SWIDTH 728 0
DWIDTH 23 0
BBX 18 29 2 0
BITMAP
0E3C00
0F3C00
0F3C00
0E3800
000000
000000
F807C0
F807C0
F807C0
F807C0
F807C0
F807C0
F807C0
F807C0
F807C0
F807C0
F807C0
FC1FC0
FFFFC0
7FFFC0
3FFFC0
1FC7C0
0007C0
0007C0
0007C0
0007C0
0007C0
0007C0
0007C0
ENDCHAR
STARTCHAR uni04F5
ENCODING 1269
SWIDTH 655 0
DWIDTH 21 0
BBX 17 24 2 0
BITMAP
1E7800
1E7800
1E7800
1E7800
000000
000000
000000
F80F80
F80F80
F80F80
F80F80
F80F80
F80F80
F80F80
F83F80
FFFF80
7FFF80
7FFF80
1F8F80
000F80
000F80
000F80
000F80
000F80
ENDCHAR
STARTCHAR uni04F6
ENCODING 1270
SWIDTH 561 0
DWIDTH 18 0
BBX 14 30 3 -7
BITMAP
FFFC
FFFC
FFFC
FFFC
F800
F800
F800
F800
F800
F800
F800
F800
F800
F800
F800
F800
F800
F800
F800
FF80
FF80
FF80
FF80
0780
0780
0780
0780
0780
0780
0780
ENDCHAR
STARTCHAR uni04F7
ENCODING 1271
SWIDTH 478 0
DWIDTH 15 0
BBX 12 23 2 -6
BITMAP
FFF0
FFF0
FFF0
FFF0
F800
F800
F800
F800
F800
F800
F800
F800
F800
FFC0
FFC0
FFC0
FFC0
07C0
07C0
07C0
07C0
07C0
07C0
ENDCHAR
STARTCHAR uni04F8
ENCODING 1272
SWIDTH 905 0
DWIDTH 29 0
BBX 23 29 3 0
BITMAP
01C700
03CF00
03CF00
01C700
000000
000000
F8003E
F8003E
F8003E
F8003E
F8003E
F8003E
F8003E
F8003E
F8003E
FFC03E
FFF83E
FFFC3E
FFFE3E
F87E3E
F83E3E
F81F3E
F81F3E
F83E3E
F87E3E
FFFE3E
FFFC3E
FFF83E
FFC03E
ENDCHAR
STARTCHAR uni04F9
ENCODING 1273
SWIDTH 850 0
DWIDTH 27 0
BBX 23 24 2 0
BITMAP
01C700
03EF80
03CF80
01C700
000000
000000
000000
F8003E
F8003E
F8003E
F8003E
F8003E
F8003E
F8003E
FFF03E
FFFC3E
FFFE3E
F83E3E
F83E3E
F83E3E
F83E3E
FFFE3E
FFFC3E
FFF03E
ENDCHAR
STARTCHAR uni04FA
ENCODING 1274
SWIDTH 559 0
DWIDTH 18 0
BBX 16 31 1 -8
BITMAP
3FFF
3FFF
3FFF
3FFF
3E00
3E00
3E00
3E00
3E00
3E00
FFF8
FFF8
FFF8
FFF8
3E00
3E00
3E00
3E00
3FE0
3FE0
3FE0
3FE0
3FE0
01E0
01E0
03E0
03E0
1FE0
1FC0
1FC0
1F00
ENDCHAR
STARTCHAR uni04FB
ENCODING 1275
SWIDTH 491 0
DWIDTH 16 0
BBX 15 25 0 -8
BITMAP
3FFE
3FFE
3FFE
3FFE
3E00
3E00
3E00
FFF0
FFF0
FFF0
FFF0
3E00
3E00
3FE0
3FE0
3FE0
3FE0
01E0
01E0
01E0
03E0
1FE0
1FE0
1FC0
1F00
ENDCHAR
STARTCHAR uni04FC
ENCODING 1276
SWIDTH 731 0
DWIDTH 23 0
BBX 23 31 0 -8
BITMAP
7C01F0
7E03F0
3E03E0
1F07C0
1F07C0
0F8F80
07CF00
07DF00
03FE00
03FE00
01FC00
01FC00
01FC00
03FE00
07FE00
07DF00
0F8F80
1F0F80
1F07FE
3E07FE
3E03FE
7C01FE
FC01FE
00003E
00003E
00003E
00007E
0003FC
0003FC
0003F8
0003F0
ENDCHAR
STARTCHAR uni04FD
ENCODING 1277
SWIDTH 645 0
DWIDTH 21 0
BBX 21 25 0 -8
BITMAP
7C07C0
3E0FC0
3F1F80
1F1F00
0FBE00
0FFE00
07FC00
03F800
03F800
07FC00
07FC00
0FBE00
1FBF00
1F1FF8
3E0FF8
7E0FF8
FC07F8
0000F8
0000F8
0000F8
0000F8
0007F8
0007F0
0007F0
0007C0
ENDCHAR
STARTCHAR uni04FE
ENCODING 1278
SWIDTH 666 0
DWIDTH 21 0
BBX 21 23 0 0
BITMAP
7C01F0
7E03F0
3E03E0
1F07C0
1F07C0
0F8F80
07CF00
07DF00
03FE00
3FFFE0
3FFFE0
3FFFE0
3FFFE0
03FE00
07FF00
07DF00
0F8F80
1F0FC0
1F07C0
3E07E0
7E03E0
7C01F0
F801F8
ENDCHAR
STARTCHAR uni04FF
ENCODING 1279
SWIDTH 578 0
DWIDTH 19 0
BBX 17 17 1 0
BITMAP
F80F80
FC1F80
7E3F00
3E3E00
3F7E00
1FFC00
0FF800
7FFF00
7FFF00
7FFF00
7FFF00
0F7800
1F7C00
3E3E00
7C1F00
FC1F80
F80F80
ENDCHAR
STARTCHAR uni0500
ENCODING 1280
SWIDTH 638 0
DWIDTH 20 0
BBX 16 23 1 0
BITMAP
001F
001F
001F
001F
001F
001F
001F
001F
001F
07FF
1FFF
3FFF
7FFF
7E1F
7C1F
F81F
F81F
7C1F
7E1F
7FFF
3FFF
1FFF
07FF
ENDCHAR
STARTCHAR uni0501
ENCODING 1281
SWIDTH 632 0
DWIDTH 20 0
BBX 17 24 1 0
BITMAP
000F80
000F80
000F80
000F80
000F80
000F80
000F80
0FCF80
1FEF80
3FFF80
7FFF80
7E1F80
7C1F80
7C0F80
F80F80
F80F80
F80F80
780F80
7C0F80
7E1F80
7FFF80
3FFF80
1FEF80
0F8780
ENDCHAR
STARTCHAR uni0502
ENCODING 1282
SWIDTH 925 0
DWIDTH 30 0
BBX 26 23 1 0
BITMAP
001F0000
001F0000
001F0000
001F0000
001F0000
001F0000
001F0000
001F0000
001F0000
03FF0000
1FFF03C0
3FFF03C0
7FFF03C0
7E1F03C0
7C1F03C0
F81F03C0
F81F07C0
7C1F07C0
7C3F87C0
7FFFFFC0
3FFFFF80
1FFBFF00
0FE0FC00
ENDCHAR
STARTCHAR uni0503
ENCODING 1283
SWIDTH 922 0
DWIDTH 30 0
BBX 27 24 1 0
BITMAP
000F8000
000F8000
000F8000
000F8000
000F8000
000F8000
000F8000
0FCF8000
1FEF8000
3FFF8000
7FFF8000
7E1F8000
7C1F8000
780F83E0
F80F83E0
F80F83E0
F80F83E0
780F83E0
7C0F83E0
7E1F87C0
3FFFFFC0
3FFFFFC0
1FFBFF80
07E0FE00
ENDCHAR
STARTCHAR uni0504
ENCODING 1284
SWIDTH 913 0
DWIDTH 29 0
BBX 25 23 1 0
BITMAP
1FC00000
7FF80000
FFFC0000
FFFC0000
707E0000
003E0000
003E0000
003C0000
007C0000
00F80000
3FF00780
3FC00780
3FF80780
3FFC0780
00FE0780
003E0780
003E0F80
001E0F80
001F0F80
001FFF80
001FFF00
000FFE00
0003F800
ENDCHAR
STARTCHAR uni0505
ENCODING 1285
SWIDTH 870 0
DWIDTH 28 0
BBX 25 17 1 0
BITMAP
1FE00000
FFF80000
FFFC0000
7FFC0000
607C0000
003C0000
007C0F80
1FF80F80
1FE00F80
1FFC0F80
00FE0F80
003E0F80
003E1F00
003FFF00
003FFF00
001FFE00
0007F800
ENDCHAR
STARTCHAR uni0506
ENCODING 1286
SWIDTH 701 0
DWIDTH 22 0
BBX 20 30 1 -7
BITMAP
1FE000
7FF800
FFFC00
FFFE00
707E00
003E00
003E00
003E00
003C00
00FC00
3FF800
3FC000
3FF800
3FFC00
007E00
003E00
001F00
001F00
001F00
001FF0
001FF0
001FF0
001FF0
0000F0
0000F0
0000F0
0000F0
0000F0
0000F0
0000F0
ENDCHAR
STARTCHAR uni0507
ENCODING 1287
SWIDTH 661 0
DWIDTH 21 0
BBX 20 23 1 -6
BITMAP
1FE000
FFF800
7FFC00
7FFE00
603E00
001E00
003C00
1FF800
1FF000
1FFC00
007E00
003E00
001E00
001FF0
001FF0
001FF0
001FF0
0001F0
0001F0
0001F0
0001F0
0001F0
0001F0
ENDCHAR
STARTCHAR uni0508
ENCODING 1288
SWIDTH 1033 0
DWIDTH 33 0
BBX 30 23 0 0
BITMAP
03FFF000
03FFF000
03FFF000
03FFF000
03C1F000
03C1F000
03C1F000
07C1F000
07C1F000
07C1F000
07C1F07C
07C1F07C
0781F07C
0781F07C
0F81F07C
0F81F07C
0F81F07C
0F01F07C
1F00F87C
FF00FFFC
FE00FFF8
FE007FF0
F8001FC0
ENDCHAR
STARTCHAR uni0509
ENCODING 1289
SWIDTH 935 0
DWIDTH 30 0
BBX 28 17 0 0
BITMAP
07FFC000
07FFC000
07FFC000
07FFC000
0787C000
0F87C000
0F87C1F0
0F87C1F0
0F07C1F0
0F07C1F0
1F07C1F0
1F07C1F0
1F07C3E0
FE07FFE0
FE03FFE0
FC01FFC0
F8007F00
ENDCHAR
STARTCHAR uni050A
ENCODING 1290
SWIDTH 1042 0
DWIDTH 33 0
BBX 27 23 3 0
BITMAP
F807C000
F807C000
F807C000
F807C000
F807C000
F807C000
F807C000
F807C000
F807C000
FFFFC000
FFFFC1E0
FFFFC1E0
FFFFC1E0
F807C1E0
F807C1E0
F807C1E0
F807C3E0
F807C3E0
F807C3E0
F807FFE0
F803FFC0
F801FF80
F8007E00
ENDCHAR
STARTCHAR uni050B
ENCODING 1291
SWIDTH 952 0
DWIDTH 30 0
BBX 26 17 2 0
BITMAP
F81F0000
F81F0000
F81F0000
F81F0000
F81F0000
F81F0000
F81F07C0
FFFF07C0
FFFF07C0
FFFF07C0
FFFF07C0
F81F07C0
F81F8F80
F80FFF80
F80FFF80
F807FF00
F801FC00
ENDCHAR
STARTCHAR uni050C
ENCODING 1292
SWIDTH 799 0
DWIDTH 26 0
BBX 22 23 2 0
BITMAP
00FF00
07FFE0
0FFFE0
1FFFE0
3F81C0
7E0000
7C0000
FC0000
F80000
F80000
F81FFC
F81FFC
F81FFC
F81FFC
F8007C
FC007C
7C007C
7E00F8
3F83F8
3FFFF0
1FFFE0
07FFC0
01FE00
ENDCHAR
STARTCHAR uni050D
ENCODING 1293
SWIDTH 663 0
DWIDTH 21 0
BBX 19 17 1 0
BITMAP
03FC00
0FFF80
1FFF00
3FFF00
7E0600
7C0000
7C0000
F87FE0
F87FE0
F87FE0
7C7FC0
7C03C0
7E0FC0
3FFF80
3FFF80
0FFE00
03F800
ENDCHAR
STARTCHAR uni050E
ENCODING 1294
SWIDTH 757 0
DWIDTH 24 0
BBX 20 23 1 0
BITMAP
FFFF80
FFFF80
FFFF80
FFFF80
03E000
03E000
03E000
03E000
03E000
03E000
03E0F0
03E0F0
03E0F0
03E0F0
03E0F0
03E0F0
03E1F0
03E1F0
03E1F0
03FFF0
01FFE0
00FFC0
007F00
ENDCHAR
STARTCHAR uni050F
ENCODING 1295
SWIDTH 733 0
DWIDTH 23 0
BBX 20 17 1 0
BITMAP
FFFF00
FFFF00
FFFF00
FFFF00
07C000
07C000
07C1F0
07C1F0
07C1F0
07C1F0
07C1F0
07C1F0
07E3E0
03FFE0
03FFE0
01FFC0
007F00
ENDCHAR
STARTCHAR uni0510
ENCODING 1296
SWIDTH 647 0
DWIDTH 21 0
BBX 18 23 1 0
BITMAP
03FE00
0FFF80
3FFFC0
3FFFC0
7E0780
7C0080
7C0000
7C0000
3F0000
1FFE00
07FE00
0FFE00
3FFE00
7F0000
7C0000
F80000
F80000
FC0000
7E01C0
7FFFC0
3FFFC0
1FFFC0
03FF00
ENDCHAR
STARTCHAR uni0511
ENCODING 1297
SWIDTH 556 0
DWIDTH 18 0
BBX 16 17 1 0
BITMAP
07F8
1FFF
3FFE
7FFE
7C06
7800
3C00
3FF0
0FF0
3FF0
7C00
F800
FC07
FFFF
7FFF
3FFF
0FFC
ENDCHAR
STARTCHAR uni0512
ENCODING 1298
SWIDTH 817 0
DWIDTH 26 0
BBX 25 31 0 -8
BITMAP
01FFF800
03FFF800
03FFF800
03FFF800
03E0F800
03C0F800
03C0F800
03C0F800
07C0F800
07C0F800
07C0F800
07C0F800
0780F800
0780F800
0F80F800
0F80F800
0F80F800
0F80F800
1F00FF80
FF00FF80
FE00FF80
FE00FF80
F800FF80
00000780
00000780
00000780
00000F80
00007F80
00007F80
00007F00
00007C00
ENDCHAR
STARTCHAR uni0513
ENCODING 1299
SWIDTH 724 0
DWIDTH 23 0
BBX 24 25 0 -8
BITMAP
07FFE0
07FFE0
07FFE0
07FFE0
0783E0
0F83E0
0F83E0
0F83E0
0F83E0
0F03E0
0F03E0
1F03E0
1F03E0
FE03FF
FE03FF
FC03FF
F803FF
00001F
00001F
00001F
00003E
0001FE
0001FE
0001FC
0001F8
ENDCHAR
STARTCHAR uni1E00
ENCODING 7680
SWIDTH 689 0
DWIDTH 22 0
BBX 22 32 0 -9
BITMAP
00FC00
01FC00
01FE00
01FE00
03FF00
03CF00
03CF00
07CF80
078780
078780
0F87C0
0F87C0
0F03C0
1FFFE0
1FFFE0
1FFFE0
3FFFF0
3E01F0
3C00F0
7C00F8
7C00F8
7C00F8
F8007C
000000
000000
007800
00FE00
01CE00
01C600
01CE00
00FE00
007C00
ENDCHAR
STARTCHAR uni1E01
ENCODING 7681
SWIDTH 604 0
DWIDTH 19 0
BBX 16 26 1 -9
BITMAP
07F0
3FFC
3FFE
1FFE
183E
001F
001F
0FFF
3FFF
7FFF
7C1F
F81F
FC3F
FFFF
7FEF
3FCF
1F0F
0000
0000
03E0
07F0
0670
0E38
0670
07F0
03E0
ENDCHAR
STARTCHAR uni1E3E
ENCODING 7742
SWIDTH 942 0
DWIDTH 30 0
BBX 24 30 3 0
BITMAP
000FC0
000F80
001F00
003C00
007800
000000
000000
FE007F
FE007F
FE007F
FF00FF
FF00FF
FF00FF
F701EF
F781EF
F781EF
F783CF
F3C3CF
F3C3CF
F3C38F
F1E78F
F1E78F
F1E70F
F0EF0F
F0FF0F
F0FE0F
F0FE0F
F07E0F
F07C0F
F07C0F
ENDCHAR
STARTCHAR uni1E3F
ENCODING 7743
SWIDTH 981 0
DWIDTH 31 0
BBX 27 24 2 0
BITMAP
0003F000
0007E000
00078000
000F0000
001E0000
00000000
00000000
F1F83F00
FBFC7F80
FFFEFFC0
FFFFFFC0
FE3F87C0
FC1F83E0
FC1F03E0
F81F03E0
F81F03E0
F81F03E0
F81F03E0
F81F03E0
F81F03E0
F81F03E0
F81F03E0
F81F03E0
F81F03E0
ENDCHAR
STARTCHAR Wgrave
ENCODING 7808
SWIDTH 966 0
DWIDTH 31 0
BBX 31 30 0 0
BITMAP
007E0000
003E0000
001F0000
00078000
0003C000
00000000
00000000
F807C03E
F807C03E
7807C03C
7C0FE07C
7C0FE07C
7C0FE07C
3C0EE078
3E1EF0F8
3E1EF0F8
3E1EF0F8
1E3EF8F0
1E3C78F0
1F3C79F0
1F3C79F0
0F7C79E0
0F783DE0
0F783FE0
0FF83FE0
07F83FC0
07F01FC0
07F01FC0
07F01FC0
03E00F80
ENDCHAR
STARTCHAR wgrave
ENCODING 7809
SWIDTH 855 0
DWIDTH 27 0
BBX 27 24 0 0
BITMAP
01F80000
00F80000
003C0000
001E0000
000F0000
00000000
00000000
F81F03E0
781F83C0
7C3F87C0
7C3F87C0
3C3B8780
3C3B8780
3E7BCF80
3E7BCF80
1E71CF00
1E71CF00
1FF1FF00
0FF1FE00
0FE0FE00
0FE0FE00
07E0FC00
07E0FC00
07C0FC00
ENDCHAR
STARTCHAR Wacute
ENCODING 7810
SWIDTH 966 0
DWIDTH 31 0
BBX 31 30 0 0
BITMAP
0001F800
0001F000
0003C000
00078000
000F0000
00000000
00000000
F807C03E
F807C03E
7807C03C
7C0FE07C
7C0FE07C
7C0FE07C
3C0EE078
3E1EF0F8
3E1EF0F8
3E1EF0F8
1E3EF8F0
1E3C78F0
1F3C79F0
1F3C79F0
0F7C79E0
0F783DE0
0F783FE0
0FF83FE0
07F83FC0
07F01FC0
07F01FC0
07F01FC0
03E00F80
ENDCHAR
STARTCHAR wacute
ENCODING 7811
SWIDTH 855 0
DWIDTH 27 0
BBX 27 24 0 0
BITMAP
0003E000
0007C000
000F8000
000F0000
001E0000
00000000
00000000
F81F03E0
781F83C0
7C3F87C0
7C3F87C0
3C3B8780
3C3B8780
3E7BCF80
3E7BCF80
1E71CF00
1E71CF00
1FF1FF00
0FF1FE00
0FE0FE00
0FE0FE00
07E0FC00
07E0FC00
07C0FC00
ENDCHAR
STARTCHAR Wdieresis
ENCODING 7812
SWIDTH 966 0
DWIDTH 31 0
BBX 31 29 0 0
BITMAP
003CF000
003CF000
003CF000
001C7000
00000000
00000000
F807C03E
F807C03E
7807C03C
7C0FE07C
7C0FE07C
7C0FE07C
3C0EE078
3E1EF0F8
3E1EF0F8
3E1EF0F8
1E3EF8F0
1E3C78F0
1F3C79F0
1F3C79F0
0F7C79E0
0F783DE0
0F783FE0
0FF83FE0
07F83FC0
07F01FC0
07F01FC0
07F01FC0
03E00F80
ENDCHAR
STARTCHAR wdieresis
ENCODING 7813
SWIDTH 855 0
DWIDTH 27 0
BBX 27 24 0 0
BITMAP
0071C000
00FBE000
00FBE000
0071C000
00000000
00000000
00000000
F81F03E0
781F83C0
7C3F87C0
7C3F87C0
3C3B8780
3C3B8780
3E7BCF80
3E7BCF80
1E71CF00
1E71CF00
1FF1FF00
0FF1FE00
0FE0FE00
0FE0FE00
07E0FC00
07E0FC00
07C0FC00
ENDCHAR
STARTCHAR uni1EA0
ENCODING 7840
SWIDTH 689 0
DWIDTH 22 0
BBX 22 30 0 -7
BITMAP
00FC00
01FC00
01FE00
01FE00
03FF00
03CF00
03CF00
07CF80
078780
078780
0F87C0
0F87C0
0F03C0
1FFFE0
1FFFE0
1FFFE0
3FFFF0
3E01F0
3C00F0
7C00F8
7C00F8
7C00F8
F8007C
000000
000000
007800
007C00
00FC00
007800
003000
ENDCHAR
STARTCHAR uni1EA1
ENCODING 7841
SWIDTH 604 0
DWIDTH 19 0
BBX 16 24 1 -7
BITMAP
07F0
3FFC
3FFE
1FFE
183E
001F
001F
0FFF
3FFF
7FFF
7C1F
F81F
FC3F
FFFF
7FEF
3FCF
1F0F
0000
0000
03C0
03E0
07E0
03C0
0180
ENDCHAR
STARTCHAR uni1EA2
ENCODING 7842
SWIDTH 689 0
DWIDTH 22 0
BBX 22 33 0 0
BITMAP
00F800
00FC00
00FE00
001E00
001E00
007E00
007C00
003000
000000
000000
00FC00
01FC00
01FE00
01FE00
03FF00
03CF00
03CF00
07CF80
078780
078780
0F87C0
0F87C0
0F03C0
1FFFE0
1FFFE0
1FFFE0
3FFFF0
3E01F0
3C00F0
7C00F8
7C00F8
7C00F8
F8007C
ENDCHAR
STARTCHAR uni1EA3
ENCODING 7843
SWIDTH 604 0
DWIDTH 19 0
BBX 16 27 1 0
BITMAP
03E0
03F0
03F8
0078
0078
01F0
01E0
01C0
0000
0000
07F0
3FFC
3FFE
1FFE
183E
001F
001F
0FFF
3FFF
7FFF
7C1F
F81F
FC3F
FFFF
7FEF
3FCF
1F0F
ENDCHAR
STARTCHAR uni1EA4
ENCODING 7844
SWIDTH 689 0
DWIDTH 22 0
BBX 22 32 0 0
BITMAP
000078
000078
00FCF0
00FEC0
01FE00
03CF00
070380
000000
000000
00FC00
01FC00
01FE00
01FE00
03FF00
03CF00
03CF00
07CF80
078780
078780
0F87C0
0F87C0
0F03C0
1FFFE0
1FFFE0
1FFFE0
3FFFF0
3E01F0
3C00F0
7C00F8
7C00F8
7C00F8
F8007C
ENDCHAR
STARTCHAR uni1EA5
ENCODING 7845
SWIDTH 604 0
DWIDTH 19 0
BBX 19 26 1 0
BITMAP
0001E0
0003C0
03E380
07F700
0F7800
0E3C00
1C1C00
000000
000000
07F000
3FFC00
3FFE00
1FFE00
183E00
001F00
001F00
0FFF00
3FFF00
7FFF00
7C1F00
F81F00
FC3F00
FFFF00
7FEF00
3FCF00
1F0F00
ENDCHAR
STARTCHAR uni1EA6
ENCODING 7846
SWIDTH 689 0
DWIDTH 22 0
BBX 22 32 0 0
BITMAP
780000
380000
1CFC00
0EFE00
01FE00
03CF00
070380
000000
000000
00FC00
01FC00
01FE00
01FE00
03FF00
03CF00
03CF00
07CF80
078780
078780
0F87C0
0F87C0
0F03C0
1FFFE0
1FFFE0
1FFFE0
3FFFF0
3E01F0
3C00F0
7C00F8
7C00F8
7C00F8
F8007C
ENDCHAR
STARTCHAR uni1EA7
ENCODING 7847
SWIDTH 604 0
DWIDTH 19 0
BBX 18 26 -1 0
BITMAP
F00000
780000
38F800
1DFC00
03DE00
038F00
070700
000000
000000
01FC00
0FFF00
0FFF80
07FF80
060F80
0007C0
0007C0
03FFC0
0FFFC0
1FFFC0
1F07C0
3E07C0
3F0FC0
3FFFC0
1FFBC0
0FF3C0
07C3C0
ENDCHAR
STARTCHAR uni1EA8
ENCODING 7848
SWIDTH 689 0
DWIDTH 22 0
BBX 22 34 0 0
BITMAP
0001E0
0001F0
000030
000070
00FCE0
00FEC0
01FE00
03CF00
070380
000000
000000
00FC00
01FC00
01FE00
01FE00
03FF00
03CF00
03CF00
07CF80
078780
078780
0F87C0
0F87C0
0F03C0
1FFFE0
1FFFE0
1FFFE0
3FFFF0
3E01F0
3C00F0
7C00F8
7C00F8
7C00F8
F8007C
ENDCHAR
STARTCHAR uni1EA9
ENCODING 7849
SWIDTH 604 0
DWIDTH 19 0
BBX 18 28 1 0
BITMAP
000780
000780
0001C0
000180
03E780
07F300
0F7800
0E3C00
1C1C00
000000
000000
07F000
3FFC00
3FFE00
1FFE00
183E00
001F00
001F00
0FFF00
3FFF00
7FFF00
7C1F00
F81F00
FC3F00
FFFF00
7FEF00
3FCF00
1F0F00
ENDCHAR
STARTCHAR uni1EAA
ENCODING 7850
SWIDTH 689 0
DWIDTH 22 0
BBX 22 33 0 0
BITMAP
01E300
03FF00
03FF00
030E00
00FC00
00FE00
03CF00
078780
000000
000000
00FC00
01FC00
01FE00
01FE00
03FF00
03CF00
03CF00
07CF80
078780
078780
0F87C0
0F87C0
0F03C0
1FFFE0
1FFFE0
1FFFE0
3FFFF0
3E01F0
3C00F0
7C00F8
7C00F8
7C00F8
F8007C
ENDCHAR
STARTCHAR uni1EAB
ENCODING 7851
SWIDTH 604 0
DWIDTH 19 0
BBX 16 27 1 0
BITMAP
070C
0FFC
0FF8
1870
03E0
07F0
0F78
1C1C
0000
0000
07F0
3FFC
3FFE
1FFE
183E
001F
001F
0FFF
3FFF
7FFF
7C1F
F81F
FC3F
FFFF
7FEF
3FCF
1F0F
ENDCHAR
STARTCHAR uni1EAC
ENCODING 7852
SWIDTH 689 0
DWIDTH 22 0
BBX 22 37 0 -7
BITMAP
00FC00
01FE00
03FF00
078F80
0F03C0
000000
000000
00FC00
01FC00
01FE00
01FE00
03FF00
03CF00
03CF00
07CF80
078780
078780
0F87C0
0F87C0
0F03C0
1FFFE0
1FFFE0
1FFFE0
3FFFF0
3E01F0
3C00F0
7C00F8
7C00F8
7C00F8
F8007C
000000
000000
007800
007C00
00FC00
007800
003000
ENDCHAR
STARTCHAR uni1EAD
ENCODING 7853
SWIDTH 604 0
DWIDTH 19 0
BBX 16 31 1 -7
BITMAP
07F0
07F0
0FF8
1E3C
3C1E
0000
0000
07F0
3FFC
3FFE
1FFE
183E
001F
001F
0FFF
3FFF
7FFF
7C1F
F81F
FC3F
FFFF
7FEF
3FCF
1F0F
0000
0000
03C0
03E0
03E0
03E0
0180
ENDCHAR
STARTCHAR uni1EAE
ENCODING 7854
SWIDTH 689 0
DWIDTH 22 0
BBX 22 32 0 0
BITMAP
001E00
003C00
073380
030300
03FF00
01FE00
00FC00
000000
000000
00FC00
01FC00
01FE00
01FE00
03FF00
03CF00
03CF00
07CF80
078780
078780
0F87C0
0F87C0
0F03C0
1FFFE0
1FFFE0
1FFFE0
3FFFF0
3E01F0
3C00F0
7C00F8
7C00F8
7C00F8
F8007C
ENDCHAR
STARTCHAR uni1EAF
ENCODING 7855
SWIDTH 604 0
DWIDTH 19 0
BBX 16 26 1 0
BITMAP
0070
00E0
19CC
1C1C
0FFC
0FF8
03E0
0000
0000
07F0
3FFC
3FFE
1FFE
183E
001F
001F
0FFF
3FFF
7FFF
7C1F
F81F
FC3F
FFFF
7FEF
3FCF
1F0F
ENDCHAR
STARTCHAR uni1EB0
ENCODING 7856
SWIDTH 689 0
DWIDTH 22 0
BBX 22 32 0 0
BITMAP
00E000
007000
073380
038300
03FF00
01FE00
00FC00
000000
000000
00FC00
01FC00
01FE00
01FE00
03FF00
03CF00
03CF00
07CF80
078780
078780
0F87C0
0F87C0
0F03C0
1FFFE0
1FFFE0
1FFFE0
3FFFF0
3E01F0
3C00F0
7C00F8
7C00F8
7C00F8
F8007C
ENDCHAR
STARTCHAR uni1EB1
ENCODING 7857
SWIDTH 604 0
DWIDTH 19 0
BBX 16 26 1 0
BITMAP
0780
0380
19CC
1C1C
0FFC
0FF8
03E0
0000
0000
07F0
3FFC
3FFE
1FFE
183E
001F
001F
0FFF
3FFF
7FFF
7C1F
F81F
FC3F
FFFF
7FEF
3FCF
1F0F
ENDCHAR
STARTCHAR uni1EB2
ENCODING 7858
SWIDTH 689 0
DWIDTH 22 0
BBX 22 34 0 0
BITMAP
007800
007800
001800
003800
073380
038300
03FF00
01FE00
00FC00
000000
000000
00FC00
01FC00
01FE00
01FE00
03FF00
03CF00
03CF00
07CF80
078780
078780
0F87C0
0F87C0
0F03C0
1FFFE0
1FFFE0
1FFFE0
3FFFF0
3E01F0
3C00F0
7C00F8
7C00F8
7C00F8
F8007C
ENDCHAR
STARTCHAR uni1EB3
ENCODING 7859
SWIDTH 604 0
DWIDTH 19 0
BBX 16 28 1 0
BITMAP
01C0
01E0
0060
01E0
188C
1C1C
0FFC
0FF8
03F0
0000
0000
07F0
3FFC
3FFE
1FFE
183E
001F
001F
0FFF
3FFF
7FFF
7C1F
F81F
FC3F
FFFF
7FEF
3FCF
1F0F
ENDCHAR
STARTCHAR uni1EB4
ENCODING 7860
SWIDTH 689 0
DWIDTH 22 0
BBX 22 34 0 0
BITMAP
01F300
03FF00
031E00
000000
070380
030300
03FF00
01FE00
00FC00
000000
000000
00FC00
01FC00
01FE00
01FE00
03FF00
03CF00
03CF00
07CF80
078780
078780
0F87C0
0F87C0
0F03C0
1FFFE0
1FFFE0
1FFFE0
3FFFF0
3E01F0
3C00F0
7C00F8
7C00F8
7C00F8
F8007C
ENDCHAR
STARTCHAR uni1EB5
ENCODING 7861
SWIDTH 604 0
DWIDTH 19 0
BBX 16 28 1 0
BITMAP
078C
0FFC
0CF8
0000
180C
1C1C
0FFC
0FF8
03F0
0000
0000
07F0
3FFC
3FFE
1FFE
183E
001F
001F
0FFF
3FFF
7FFF
7C1F
F81F
FC3F
FFFF
7FEF
3FCF
1F0F
ENDCHAR
STARTCHAR uni1EB6
ENCODING 7862
SWIDTH 689 0
DWIDTH 22 0
BBX 22 37 0 -7
BITMAP
070380
070780
03FF00
03FF00
01FC00
000000
000000
00FC00
00FC00
01FE00
01FE00
03FF00
03EF00
03CF00
07CF80
07CF80
078780
0F87C0
0F87C0
0F03C0
1FFFE0
1FFFE0
1FFFE0
3FFFF0
3FFFF0
3E01F0
7C00F8
7C00F8
7C00FC
F8007C
000000
000000
007800
007C00
00FC00
007800
003000
ENDCHAR
STARTCHAR uni1EB7
ENCODING 7863
SWIDTH 604 0
DWIDTH 19 0
BBX 16 31 1 -7
BITMAP
380E
1C7C
1FFC
0FF8
03E0
0000
0000
07F0
3FFC
3FFE
1FFE
183E
001F
001F
0FFF
3FFF
7FFF
7C1F
F81F
FC3F
FFFF
7FEF
3FCF
1F0F
0000
0000
03C0
03E0
03E0
03C0
0180
ENDCHAR
STARTCHAR uni1EB8
ENCODING 7864
SWIDTH 560 0
DWIDTH 18 0
BBX 13 30 3 -7
BITMAP
FFF8
FFF8
FFF8
FFF8
F800
F800
F800
F800
F800
FFF8
FFF8
FFF8
FFF8
F800
F800
F800
F800
F800
F800
FFF8
FFF8
FFF8
FFF8
0000
0000
0700
0F80
0F80
0F80
0700
ENDCHAR
STARTCHAR uni1EB9
ENCODING 7865
SWIDTH 590 0
DWIDTH 19 0
BBX 17 24 1 -7
BITMAP
07F000
0FFC00
3FFE00
3E1F00
7C0F00
7C0F00
780F80
FFFF80
FFFF80
FFFF80
780000
7C0000
7E0300
3FFF00
3FFF00
0FFF00
03FC00
000000
000000
01C000
03E000
03E000
03E000
01C000
ENDCHAR
STARTCHAR uni1EBA
ENCODING 7866
SWIDTH 560 0
DWIDTH 18 0
BBX 13 33 3 0
BITMAP
1F80
1FC0
1FC0
01E0
01C0
07C0
0780
0700
0000
0000
FFF8
FFF8
FFF8
FFF8
F800
F800
F800
F800
F800
FFF8
FFF8
FFF8
FFF8
F800
F800
F800
F800
F800
F800
FFF8
FFF8
FFF8
FFF8
ENDCHAR
STARTCHAR uni1EBB
ENCODING 7867
SWIDTH 590 0
DWIDTH 19 0
BBX 17 27 1 0
BITMAP
03E000
03F000
03F800
007800
007800
01F000
01E000
01C000
000000
000000
07F000
0FFC00
3FFE00
3E1F00
7C0F00
7C0F00
780F80
FFFF80
FFFF80
FFFF80
780000
7C0000
7E0300
3FFF00
3FFF00
0FFF00
03FC00
ENDCHAR
STARTCHAR uni1EBC
ENCODING 7868
SWIDTH 560 0
DWIDTH 18 0
BBX 13 30 3 0
BITMAP
3C38
7F38
FFF0
E7F0
C1C0
0000
0000
FFF8
FFF8
FFF8
FFF8
F800
F800
F800
F800
F800
FFF8
FFF8
FFF8
FFF8
F800
F800
F800
F800
F800
F800
FFF8
FFF8
FFF8
FFF8
ENDCHAR
STARTCHAR uni1EBD
ENCODING 7869
SWIDTH 590 0
DWIDTH 19 0
BBX 17 24 1 0
BITMAP
0F0E00
1FCE00
1FFC00
39FC00
387800
000000
000000
07F000
0FFC00
3FFE00
3E1F00
7C0F00
7C0F00
780F80
FFFF80
FFFF80
FFFF80
780000
7C0000
7E0300
3FFF00
3FFF00
0FFF00
03FC00
ENDCHAR
STARTCHAR uni1EBE
ENCODING 7870
SWIDTH 560 0
DWIDTH 18 0
BBX 17 32 3 0
BITMAP
000780
000F00
0F8E00
1FDC00
3DE000
78E000
707000
000000
000000
FFF800
FFF800
FFF800
FFF800
F80000
F80000
F80000
F80000
F80000
FFF800
FFF800
FFF800
FFF800
F80000
F80000
F80000
F80000
F80000
F80000
FFF800
FFF800
FFF800
FFF800
ENDCHAR
STARTCHAR uni1EBF
ENCODING 7871
SWIDTH 590 0
DWIDTH 19 0
BBX 19 26 1 0
BITMAP
0001E0
0001C0
03E380
07F700
0F7800
0E3C00
1C1C00
000000
000000
07F000
0FFC00
3FFE00
3E1F00
7C0F00
7C0F00
780F80
FFFF80
FFFF80
FFFF80
780000
7C0000
7E0300
3FFF00
3FFF00
0FFF00
03FC00
ENDCHAR
STARTCHAR uni1EC0
ENCODING 7872
SWIDTH 560 0
DWIDTH 18 0
BBX 17 32 -1 0
BITMAP
F00000
780000
38F800
1DFC00
03DE00
038F00
070700
000000
000000
0FFF80
0FFF80
0FFF80
0FFF80
0F8000
0F8000
0F8000
0F8000
0F8000
0FFF80
0FFF80
0FFF80
0FFF80
0F8000
0F8000
0F8000
0F8000
0F8000
0F8000
0FFF80
0FFF80
0FFF80
0FFF80
ENDCHAR
STARTCHAR uni1EC1
ENCODING 7873
SWIDTH 590 0
DWIDTH 19 0
BBX 18 26 0 0
BITMAP
E00000
F00000
79F800
3BF800
03FC00
071E00
0E0F00
000000
000000
03F800
07FE00
1FFF00
1F0F80
3E0780
3E0780
3C07C0
7FFFC0
7FFFC0
7FFFC0
3C0000
3E0000
3F0180
1FFF80
1FFF80
07FF80
01FE00
ENDCHAR
STARTCHAR uni1EC2
ENCODING 7874
SWIDTH 560 0
DWIDTH 18 0
BBX 15 34 3 0
BITMAP
001C
001E
0006
0006
0F9C
1FD8
3DE0
78E0
7070
0000
0000
FFF8
FFF8
FFF8
FFF8
F800
F800
F800
F800
F800
FFF8
FFF8
FFF8
FFF8
F800
F800
F800
F800
F800
F800
FFF8
FFF8
FFF8
FFF8
ENDCHAR
STARTCHAR uni1EC3
ENCODING 7875
SWIDTH 590 0
DWIDTH 19 0
BBX 18 28 1 0
BITMAP
000780
000780
0001C0
000180
03E380
07F300
0F7800
0E3C00
1C1C00
000000
000000
07F000
0FFC00
3FFE00
3E1F00
7C0F00
7C0F00
780F80
FFFF80
FFFF80
FFFF80
780000
7C0000
7E0300
3FFF00
3FFF00
0FFF00
03FC00
ENDCHAR
STARTCHAR uni1EC4
ENCODING 7876
SWIDTH 560 0
DWIDTH 18 0
BBX 13 33 3 0
BITMAP
1C30
3F70
7FE0
61C0
0F80
1FC0
3DE0
7070
0000
0000
FFF8
FFF8
FFF8
FFF8
F800
F800
F800
F800
F800
FFF8
FFF8
FFF8
FFF8
F800
F800
F800
F800
F800
F800
FFF8
FFF8
FFF8
FFF8
ENDCHAR
STARTCHAR uni1EC5
ENCODING 7877
SWIDTH 590 0
DWIDTH 19 0
BBX 17 27 1 0
BITMAP
070C00
0FFC00
0FF800
187800
03E000
07F000
0F7800
1C1C00
000000
000000
07F000
0FFC00
3FFE00
3E1F00
7C0F00
7C0F00
780F80
FFFF80
FFFF80
FFFF80
780000
7C0000
7E0300
3FFF00
3FFF00
0FFF00
03FC00
ENDCHAR
STARTCHAR uni1EC6
ENCODING 7878
SWIDTH 560 0
DWIDTH 18 0
BBX 13 37 3 -7
BITMAP
1F80
3FC0
7FE0
78F0
E078
0000
0000
FFF8
FFF8
FFF8
FFF8
F800
F800
F800
F800
F800
FFF8
FFF8
FFF8
FFF8
F800
F800
F800
F800
F800
F800
FFF8
FFF8
FFF8
FFF8
0000
0000
0700
0F80
0F80
0F80
0700
ENDCHAR
STARTCHAR uni1EC7
ENCODING 7879
SWIDTH 590 0
DWIDTH 19 0
BBX 17 31 1 -7
BITMAP
07E000
0FF000
0FF800
1E3C00
3C1E00
000000
000000
07F000
0FFC00
3FFE00
3E1F00
7C0F00
7C0F00
780F80
FFFF80
FFFF80
FFFF80
780000
7C0000
7E0300
3FFF00
3FFF00
0FFF00
03FC00
000000
000000
01C000
03E000
03E000
03E000
01C000
ENDCHAR
STARTCHAR uni1EC8
ENCODING 7880
SWIDTH 331 0
DWIDTH 11 0
BBX 7 33 2 0
BITMAP
FC
FE
FE
1E
1E
3E
3C
38
00
00
7C
7C
7C
7C
7C
7C
7C
7C
7C
7C
7C
7C
7C
7C
7C
7C
7C
7C
7C
7C
7C
7C
7C
ENDCHAR
STARTCHAR uni1EC9
ENCODING 7881
SWIDTH 305 0
DWIDTH 10 0
BBX 7 27 2 0
BITMAP
F8
FC
FE
1E
1E
7C
78
70
00
00
F8
F8
F8
F8
F8
F8
F8
F8
F8
F8
F8
F8
F8
F8
F8
F8
F8
ENDCHAR
STARTCHAR uni1ECA
ENCODING 7882
SWIDTH 331 0
DWIDTH 11 0
BBX 5 30 3 -7
BITMAP
F8
F8
F8
F8
F8
F8
F8
F8
F8
F8
F8
F8
F8
F8
F8
F8
F8
F8
F8
F8
F8
F8
F8
00
00
F0
F8
F8
F8
60
ENDCHAR
STARTCHAR uni1ECB
ENCODING 7883
SWIDTH 305 0
DWIDTH 10 0
BBX 5 31 2 -7
BITMAP
78
F8
F8
F8
78
00
00
F8
F8
F8
F8
F8
F8
F8
F8
F8
F8
F8
F8
F8
F8
F8
F8
F8
00
00
78
F8
F8
F8
30
ENDCHAR
STARTCHAR uni1ECC
ENCODING 7884
SWIDTH 795 0
DWIDTH 25 0
BBX 21 30 2 -7
BITMAP
01FC00
0FFF80
1FFFC0
3FFFE0
7F07F0
7E03F0
7C01F0
FC01F8
F800F8
F800F8
F800F8
F800F8
F800F8
F800F8
F800F8
F801F8
7C01F0
7E03F0
7F07F0
3FFFE0
1FFFC0
0FFF80
01FC00
000000
000000
007800
00F800
00F800
00F800
007000
ENDCHAR
STARTCHAR uni1ECD
ENCODING 7885
SWIDTH 619 0
DWIDTH 20 0
BBX 18 24 1 -7
BITMAP
03F000
0FFC00
3FFE00
3FFF00
7E1F80
7C0F80
7C0F80
F80780
F807C0
F807C0
7C0F80
7C0F80
7E1F80
3FFF00
1FFF00
0FFC00
03F000
000000
000000
01E000
03E000
03E000
03E000
00C000
ENDCHAR
STARTCHAR uni1ECE
ENCODING 7886
SWIDTH 795 0
DWIDTH 25 0
BBX 21 33 2 0
BITMAP
00F800
00FC00
00FE00
001E00
001E00
007C00
007800
007000
000000
000000
01FC00
0FFF80
1FFFC0
3FFFE0
7F07F0
7E03F0
7C01F0
FC01F8
F800F8
F800F8
F800F8
F800F8
F800F8
F800F8
F800F8
F801F8
7C01F0
7E03F0
7F07F0
3FFFE0
1FFFC0
0FFF80
01FC00
ENDCHAR
STARTCHAR uni1ECF
ENCODING 7887
SWIDTH 619 0
DWIDTH 20 0
BBX 18 27 1 0
BITMAP
03E000
03F000
03F800
007800
007800
01F000
01E000
01C000
000000
000000
03F000
0FFC00
3FFE00
3FFF00
7E1F80
7C0F80
7C0F80
F80780
F807C0
F807C0
7C0F80
7C0F80
7E1F80
3FFF00
1FFF00
0FFC00
03F000
ENDCHAR
STARTCHAR uni1ED0
ENCODING 7888
SWIDTH 795 0
DWIDTH 25 0
BBX 21 32 2 0
BITMAP
000078
0000F0
00F8E0
01FDC0
03DE00
038F00
070700
000000
000000
01FC00
0FFF80
1FFFC0
3FFFE0
7F07F0
7E03F0
7C01F0
FC01F8
F800F8
F800F8
F800F8
F800F8
F800F8
F800F8
F800F8
F801F8
7C01F0
7E03F0
7F07F0
3FFFE0
1FFFC0
0FFF80
01FC00
ENDCHAR
STARTCHAR uni1ED1
ENCODING 7889
SWIDTH 619 0
DWIDTH 20 0
BBX 19 26 1 0
BITMAP
0001E0
0001C0
03F380
07F700
07F800
0E3C00
1C1E00
000000
000000
03F000
0FFC00
3FFE00
3FFF00
7E1F80
7C0F80
7C0F80
F80780
F807C0
F807C0
7C0F80
7C0F80
7E1F80
3FFF00
1FFF00
0FFC00
03F000
ENDCHAR
STARTCHAR uni1ED2
ENCODING 7890
SWIDTH 795 0
DWIDTH 25 0
BBX 21 32 2 0
BITMAP
F00000
780000
38F800
1DFC00
03DE00
038F00
070700
000000
000000
01FC00
0FFF80
1FFFC0
3FFFE0
7F07F0
7E03F0
7C01F0
FC01F8
F800F8
F800F8
F800F8
F800F8
F800F8
F800F8
F800F8
F801F8
7C01F0
7E03F0
7F07F0
3FFFE0
1FFFC0
0FFF80
01FC00
ENDCHAR
STARTCHAR uni1ED3
ENCODING 7891
SWIDTH 619 0
DWIDTH 20 0
BBX 19 26 0 0
BITMAP
E00000
F00000
79F800
3BF800
03FC00
071E00
0E0F00
000000
000000
01F800
07FE00
1FFF00
1FFF80
3F0FC0
3E07C0
3E07C0
7C03C0
7C03E0
7C03E0
3E07C0
3E07C0
3F0FC0
1FFF80
0FFF80
07FE00
01F800
ENDCHAR
STARTCHAR uni1ED4
ENCODING 7892
SWIDTH 795 0
DWIDTH 25 0
BBX 21 34 2 0
BITMAP
0001E0
0001E0
000070
000060
00F9C0
01FDC0
03DE00
038F00
070700
000000
000000
01FC00
0FFF80
1FFFC0
3FFFE0
7F07F0
7E03F0
7C01F0
FC01F8
F800F8
F800F8
F800F8
F800F8
F800F8
F800F8
F800F8
F801F8
7C01F0
7E03F0
7F07F0
3FFFE0
1FFFC0
0FFF80
01FC00
ENDCHAR
STARTCHAR uni1ED5
ENCODING 7893
SWIDTH 619 0
DWIDTH 20 0
BBX 18 28 1 0
BITMAP
000780
0007C0
0001C0
0001C0
03F380
07F300
07F800
0E3C00
1C1E00
000000
000000
03F000
0FFC00
3FFE00
3FFF00
7E1F80
7C0F80
7C0F80
F80780
F807C0
F807C0
7C0F80
7C0F80
7E1F80
3FFF00
1FFF00
0FFC00
03F000
ENDCHAR
STARTCHAR uni1ED6
ENCODING 7894
SWIDTH 795 0
DWIDTH 25 0
BBX 21 33 2 0
BITMAP
01C300
03FF00
03FE00
061C00
00F800
01FC00
03DE00
070700
000000
000000
01FC00
0FFF80
1FFFC0
3FFFE0
7F07F0
7E03F0
7C01F0
FC01F8
F800F8
F800F8
F800F8
F800F8
F800F8
F800F8
F800F8
F801F8
7C01F0
7E03F0
7F07F0
3FFFE0
1FFFC0
0FFF80
01FC00
ENDCHAR
STARTCHAR uni1ED7
ENCODING 7895
SWIDTH 619 0
DWIDTH 20 0
BBX 18 27 1 0
BITMAP
070C00
0FFC00
0FFC00
0C7800
03E000
07F000
0F7800
1C1E00
000000
000000
03F000
0FFC00
3FFE00
3FFF00
7E1F80
7C0F80
7C0F80
F80780
F807C0
F807C0
7C0F80
7C0F80
7E1F80
3FFF00
1FFF00
0FFC00
03F000
ENDCHAR
STARTCHAR uni1ED8
ENCODING 7896
SWIDTH 795 0
DWIDTH 25 0
BBX 21 37 2 -7
BITMAP
01FC00
01FC00
03DE00
078F00
0F0780
000000
000000
01FC00
0FFF80
1FFFC0
3FFFE0
7F07F0
7E03F0
7C01F0
FC01F8
F800F8
F800F8
F800F8
F800F8
F800F8
F800F8
F800F8
F801F8
7C01F0
7E03F0
7F07F0
3FFFE0
1FFFC0
0FFF80
01FC00
000000
000000
007800
00F800
00F800
00F800
007000
ENDCHAR
STARTCHAR uni1ED9
ENCODING 7897
SWIDTH 619 0
DWIDTH 20 0
BBX 18 31 1 -7
BITMAP
03F000
07F800
0FF800
1E3C00
3C1E00
000000
000000
03F000
0FFC00
3FFE00
3FFF00
7E1F80
7C0F80
7C0F80
F80780
F807C0
F807C0
7C0F80
7C0F80
7E1F80
3FFF00
1FFF00
0FFC00
03F000
000000
000000
01E000
03E000
03F000
01E000
00C000
ENDCHAR
STARTCHAR uni1EDA
ENCODING 7898
SWIDTH 825 0
DWIDTH 26 0
BBX 25 30 2 0
BITMAP
001F0000
003E0000
007C0000
00F80000
00E00000
00000000
00000F80
01FC0F80
0FFF8F00
1FFFDF00
3FFFFE00
7F07FC00
7E03F800
7C01F000
FC01F800
F800F800
F800F800
F800F800
F800F800
F800F800
F800F800
F800F800
F801F800
7C01F000
7E03F000
7F07F000
3FFFE000
1FFFC000
0FFF8000
01FC0000
ENDCHAR
STARTCHAR uni1EDB
ENCODING 7899
SWIDTH 679 0
DWIDTH 22 0
BBX 22 24 1 0
BITMAP
007E00
007C00
00F000
01E000
03C000
00007C
00007C
03F07C
0FFCF8
3FFFF0
3FFFE0
7E1F80
7C0F80
7C0F80
F807C0
F807C0
F807C0
7C0F80
7C0F80
7E1F80
3FFF00
1FFF00
0FFC00
03F000
ENDCHAR
STARTCHAR uni1EDC
ENCODING 7900
SWIDTH 825 0
DWIDTH 26 0
BBX 25 30 2 0
BITMAP
07C00000
03E00000
01F00000
00F80000
00380000
00000000
00000F80
01FC0F80
0FFF8F00
1FFFDF00
3FFFFE00
7F07FC00
7E03F800
7C01F000
FC01F800
F800F800
F800F800
F800F800
F800F800
F800F800
F800F800
F800F800
F801F800
7C01F000
7E03F000
7F07F000
3FFFE000
1FFFC000
0FFF8000
01FC0000
ENDCHAR
STARTCHAR uni1EDD
ENCODING 7901
SWIDTH 679 0
DWIDTH 22 0
BBX 22 24 1 0
BITMAP
1F0000
0F8000
07C000
03E000
00E000
00007C
00007C
03F07C
0FFCF8
3FFFF0
3FFFE0
7E1F80
7C0F80
7C0F80
F807C0
F807C0
F807C0
7C0F80
7C0F80
7E1F80
3FFF00
1FFF00
0FFC00
03F000
ENDCHAR
STARTCHAR uni1EDE
ENCODING 7902
SWIDTH 825 0
DWIDTH 26 0
BBX 25 33 2 0
BITMAP
00F80000
00FE0000
00FE0000
001E0000
001E0000
007E0000
00780000
00300000
00000000
00000F80
01FC0F80
0FFF8F00
1FFFDF00
3FFFFE00
7F07FC00
7E03F800
7C01F000
FC01F800
F800F800
F800F800
F800F800
F800F800
F800F800
F800F800
F800F800
F801F800
7C01F000
7E03F000
7F07F000
3FFFE000
1FFFC000
0FFF8000
01FC0000
ENDCHAR
STARTCHAR uni1EDF
ENCODING 7903
SWIDTH 679 0
DWIDTH 22 0
BBX 22 27 1 0
BITMAP
03E000
03F800
03F800
007800
007800
01F800
01F000
00E000
00007C
00007C
03F07C
0FFCF8
3FFFF0
3FFFE0
7E1F80
7C0F80
7C0F80
F807C0
F807C0
F807C0
7C0F80
7C0F80
7E1F80
3FFF00
1FFF00
0FFC00
03F000
ENDCHAR
STARTCHAR uni1EE0
ENCODING 7904
SWIDTH 825 0
DWIDTH 26 0
BBX 25 30 2 0
BITMAP
01C18000
07F38000
07FF8000
0E7F0000
0E1E0000
00000000
00000F80
01FC0F80
0FFF8F00
1FFFDF00
3FFFFE00
7F07FC00
7E03F800
7C01F000
FC01F800
F800F800
F800F800
F800F800
F800F800
F800F800
F800F800
F800F800
F801F800
7C01F000
7E03F000
7F07F000
3FFFE000
1FFFC000
0FFF8000
01FC0000
ENDCHAR
STARTCHAR uni1EE1
ENCODING 7905
SWIDTH 679 0
DWIDTH 22 0
BBX 22 24 1 0
BITMAP
070600
0FCE00
1FFE00
1CFC00
387800
00007C
00007C
03F07C
0FFCF8
3FFFF0
3FFFE0
7E1F80
7C0F80
7C0F80
F807C0
F807C0
F807C0
7C0F80
7C0F80
7E1F80
3FFF00
1FFF00
0FFC00
03F000
ENDCHAR
STARTCHAR uni1EE2
ENCODING 7906
SWIDTH 825 0
DWIDTH 26 0
BBX 25 31 2 -7
BITMAP
00000F80
01FC0F80
0FFF8F00
1FFFDF00
3FFFFE00
7F07FC00
7E03F800
7C01F000
FC01F800
F800F800
F800F800
F800F800
F800F800
F800F800
F800F800
F800F800
F801F800
7C01F000
7E03F000
7F07F000
3FFFE000
1FFFC000
0FFF8000
01FC0000
00000000
00000000
00780000
00F80000
00F80000
00F80000
00300000
ENDCHAR
STARTCHAR uni1EE3
ENCODING 7907
SWIDTH 679 0
DWIDTH 22 0
BBX 22 26 1 -7
BITMAP
00007C
00007C
03F07C
0FFCF8
3FFFF0
3FFFE0
7E1F80
7C0F80
7C0F80
F807C0
F807C0
F807C0
7C0F80
7C0F80
7E1F80
3FFF00
1FFF00
0FFC00
03F000
000000
000000
01E000
03E000
03F000
01E000
00C000
ENDCHAR
STARTCHAR uni1EE4
ENCODING 7908
SWIDTH 755 0
DWIDTH 24 0
BBX 18 30 3 -7
BITMAP
F807C0
F807C0
F807C0
F807C0
F807C0
F807C0
F807C0
F807C0
F807C0
F807C0
F807C0
F807C0
F807C0
F807C0
F807C0
F807C0
F807C0
F807C0
FE1F80
7FFF80
3FFF00
1FFE00
07F800
000000
000000
01E000
01F000
03F000
01E000
00C000
ENDCHAR
STARTCHAR uni1EE5
ENCODING 7909
SWIDTH 657 0
DWIDTH 21 0
BBX 17 24 2 -7
BITMAP
F80F80
F80F80
F80F80
F80F80
F80F80
F80F80
F80F80
F80F80
F80F80
F80F80
F81F80
F81F80
7C3F80
7FFF80
7FFF80
3FEF80
0F8780
000000
000000
01C000
03E000
03E000
03E000
01C000
ENDCHAR
STARTCHAR uni1EE6
ENCODING 7910
SWIDTH 755 0
DWIDTH 24 0
BBX 18 33 3 0
BITMAP
03E000
03F000
03F800
007800
007800
01F000
01E000
01C000
000000
000000
F807C0
F807C0
F807C0
F807C0
F807C0
F807C0
F807C0
F807C0
F807C0
F807C0
F807C0
F807C0
F807C0
F807C0
F807C0
F807C0
F807C0
F807C0
FE1F80
7FFF80
3FFF00
1FFE00
07F800
ENDCHAR
STARTCHAR uni1EE7
ENCODING 7911
SWIDTH 657 0
DWIDTH 21 0
BBX 17 27 2 0
BITMAP
07E000
07F000
07F000
007000
00F000
01F000
01E000
01C000
000000
000000
F80F80
F80F80
F80F80
F80F80
F80F80
F80F80
F80F80
F80F80
F80F80
F80F80
F81F80
F81F80
7C3F80
7FFF80
7FFF80
3FEF80
0F8780
ENDCHAR
STARTCHAR uni1EE8
ENCODING 7912
SWIDTH 884 0
DWIDTH 28 0
BBX 25 30 3 0
BITMAP
003E0000
007C0000
00F80000
01F00000
01C00000
00000000
00000F80
F807CF80
F807CF80
F807DF00
F807FF00
F807FC00
F807F000
F807C000
F807C000
F807C000
F807C000
F807C000
F807C000
F807C000
F807C000
F807C000
F807C000
F807C000
F807C000
FE1F8000
7FFF8000
3FFF0000
1FFE0000
07F80000
ENDCHAR
STARTCHAR uni1EE9
ENCODING 7913
SWIDTH 759 0
DWIDTH 24 0
BBX 24 24 2 0
BITMAP
007E00
00F800
00F000
01E000
03C01F
00001F
00003E
F80FBE
F80FFC
F80FFC
F80FF8
F80FE0
F80F80
F80F80
F80F80
F80F80
F80F80
F81F80
F81F80
7C3F80
7FFF80
7FFF80
3FEF80
0F8780
ENDCHAR
STARTCHAR uni1EEA
ENCODING 7914
SWIDTH 884 0
DWIDTH 28 0
BBX 25 30 3 0
BITMAP
3F000000
0F800000
07800000
03C00000
01E00000
00000000
00000F80
F807CF80
F807CF80
F807DF00
F807FF00
F807FC00
F807F000
F807C000
F807C000
F807C000
F807C000
F807C000
F807C000
F807C000
F807C000
F807C000
F807C000
F807C000
F807C000
FE1F8000
7FFF8000
3FFF0000
1FFE0000
07F80000
ENDCHAR
STARTCHAR uni1EEB
ENCODING 7915
SWIDTH 759 0
DWIDTH 24 0
BBX 24 24 2 0
BITMAP
3E0000
1F0000
0F8000
07C000
01C01F
00001F
00003E
F80FBE
F80FFC
F80FFC
F80FF8
F80FE0
F80F80
F80F80
F80F80
F80F80
F80F80
F81F80
F81F80
7C3F80
7FFF80
7FFF80
3FEF80
0F8780
ENDCHAR
STARTCHAR uni1EEC
ENCODING 7916
SWIDTH 884 0
DWIDTH 28 0
BBX 25 33 3 0
BITMAP
03E00000
03F00000
03F80000
00780000
00780000
01F80000
01E00000
00C00000
00000000
00000F80
F807CF80
F807CF80
F807DF00
F807FF00
F807FC00
F807F000
F807C000
F807C000
F807C000
F807C000
F807C000
F807C000
F807C000
F807C000
F807C000
F807C000
F807C000
F807C000
FE1F8000
7FFF8000
3FFF0000
1FFE0000
07F80000
ENDCHAR
STARTCHAR uni1EED
ENCODING 7917
SWIDTH 759 0
DWIDTH 24 0
BBX 24 27 2 0
BITMAP
07E000
07F000
07F000
007000
00F000
01F000
01E000
01C01F
00001F
00003E
F80FBE
F80FFC
F80FFC
F80FF8
F80FE0
F80F80
F80F80
F80F80
F80F80
F80F80
F81F80
F81F80
7C3F80
7FFF80
7FFF80
3FEF80
0F8780
ENDCHAR
STARTCHAR uni1EEE
ENCODING 7918
SWIDTH 884 0
DWIDTH 28 0
BBX 25 30 3 0
BITMAP
07060000
0FCE0000
1FFE0000
1CFC0000
18780000
00000000
00000F80
F807CF80
F807CF80
F807DF00
F807FF00
F807FC00
F807F000
F807C000
F807C000
F807C000
F807C000
F807C000
F807C000
F807C000
F807C000
F807C000
F807C000
F807C000
F807C000
FE1F8000
7FFF8000
3FFF0000
1FFE0000
07F80000
ENDCHAR
STARTCHAR uni1EEF
ENCODING 7919
SWIDTH 759 0
DWIDTH 24 0
BBX 24 24 2 0
BITMAP
0F0E00
1FCE00
3FFC00
39FC00
30781F
00001F
00003E
F80FBE
F80FFC
F80FFC
F80FF8
F80FE0
F80F80
F80F80
F80F80
F80F80
F80F80
F81F80
F81F80
7C3F80
7FFF80
7FFF80
3FEF80
0F8780
ENDCHAR
STARTCHAR uni1EF0
ENCODING 7920
SWIDTH 884 0
DWIDTH 28 0
BBX 25 31 3 -7
BITMAP
00000F80
F807CF80
F807CF80
F807DF00
F807FF00
F807FC00
F807F000
F807C000
F807C000
F807C000
F807C000
F807C000
F807C000
F807C000
F807C000
F807C000
F807C000
F807C000
F807C000
FE1F8000
7FFF8000
3FFF0000
1FFE0000
07F80000
00000000
00000000
01E00000
03E00000
03F00000
01E00000
00C00000
ENDCHAR
STARTCHAR uni1EF1
ENCODING 7921
SWIDTH 759 0
DWIDTH 24 0
BBX 24 27 2 -7
BITMAP
00001F
00001F
00003E
F80FBE
F80FFC
F80FFC
F80FF8
F80FE0
F80F80
F80F80
F80F80
F80F80
F80F80
F81F80
F81F80
7C3F80
7FFF80
7FFF80
3FEF80
0F8780
000000
000000
01C000
03E000
03E000
03E000
01C000
ENDCHAR
STARTCHAR Ygrave
ENCODING 7922
SWIDTH 624 0
DWIDTH 20 0
BBX 20 30 0 0
BITMAP
1F8000
0F8000
07C000
01E000
00F000
000000
000000
FC03F0
7C03E0
7E07E0
3E07C0
3F0FC0
1F0F80
1F9F00
0F9F00
07FE00
07FE00
03FC00
03FC00
01F800
01F800
00F000
00F000
00F000
00F000
00F000
00F000
00F000
00F000
00F000
ENDCHAR
STARTCHAR ygrave
ENCODING 7923
SWIDTH 568 0
DWIDTH 18 0
BBX 18 32 0 -8
BITMAP
1F0000
0F8000
07C000
03C000
01E000
000000
000000
F807C0
7C0F80
7C0F80
7C0F80
3E1F00
3E1F00
1E1F00
1F3E00
1F3E00
0F3C00
0FFC00
07FC00
07F800
07F800
03F800
03F000
01F000
01E000
03E000
03E000
07C000
7FC000
7F8000
7F0000
7C0000
ENDCHAR
STARTCHAR uni1EF4
ENCODING 7924
SWIDTH 624 0
DWIDTH 20 0
BBX 20 30 0 -7
BITMAP
FC03F0
7C03E0
7E07E0
3E07C0
3F0FC0
1F0F80
1F9F00
0F9F00
07FE00
07FE00
03FC00
03FC00
01F800
01F800
00F000
00F000
00F000
00F000
00F000
00F000
00F000
00F000
00F000
000000
000000
00F000
01F000
01F800
00F000
006000
ENDCHAR
STARTCHAR uni1EF5
ENCODING 7925
SWIDTH 568 0
DWIDTH 18 0
BBX 18 25 0 -8
BITMAP
F807C0
7C0F80
7C0F80
7C0F80
3E1F00
3E1F00
1E1F00
1F3E00
1F3E00
0F3C00
0FFC00
07FC00
07F800
07F800
03F800
03F000
01F000
01E000
03E000
03E380
07C7C0
7FC7C0
7F87C0
7F0380
7C0000
ENDCHAR
STARTCHAR uni1EF6
ENCODING 7926
SWIDTH 624 0
DWIDTH 20 0
BBX 20 33 0 0
BITMAP
01F000
01F800
01FC00
003C00
003C00
00F800
00F000
00E000
000000
000000
FC03F0
7C03E0
7E07E0
3E07C0
3F0FC0
1F0F80
1F9F00
0F9F00
07FE00
07FE00
03FC00
03FC00
01F800
01F800
00F000
00F000
00F000
00F000
00F000
00F000
00F000
00F000
00F000
ENDCHAR
STARTCHAR uni1EF7
ENCODING 7927
SWIDTH 568 0
DWIDTH 18 0
BBX 18 35 0 -8
BITMAP
03E000
03F000
03F800
007800
007800
01F800
01F000
00C000
000000
000000
F807C0
7C0F80
7C0F80
7C0F80
3E1F00
3E1F00
1E1F00
1F3E00
1F3E00
0F3C00
0FFC00
07FC00
07F800
07F800
03F800
03F000
01F000
01E000
03E000
03E000
07C000
7FC000
7F8000
7F0000
7C0000
ENDCHAR
STARTCHAR uni1EF8
ENCODING 7928
SWIDTH 624 0
DWIDTH 20 0
BBX 20 30 0 0
BITMAP
038300
07E700
0FFF00
0EFE00
1C3C00
000000
000000
FC03F0
7C03E0
7E07E0
3E07C0
3F0FC0
1F0F80
1F9F00
0F9F00
07FE00
07FE00
03FC00
03FC00
01F800
01F800
00F000
00F000
00F000
00F000
00F000
00F000
00F000
00F000
00F000
ENDCHAR
STARTCHAR uni1EF9
ENCODING 7929
SWIDTH 568 0
DWIDTH 18 0
BBX 18 32 0 -8
BITMAP
078700
0FCE00
1FFE00
1CFC00
183800
000000
000000
F807C0
7C0F80
7C0F80
7C0F80
3E1F00
3E1F00
1E1F00
1F3E00
1F3E00
0F3C00
0FFC00
07FC00
07F800
07F800
03F800
03F000
01F000
01E000
03E000
03E000
07C000
7FC000
7F8000
7F0000
7C0000
ENDCHAR
STARTCHAR uni1F4D
ENCODING 8013
SWIDTH 835 0
DWIDTH 27 0
BBX 30 23 -6 0
BITMAP
33C0FF00
E3C3FFC0
C38FFFE0
F71FFFF0
F71F83F8
003F00F8
003E00FC
003E007C
007E007C
007C007C
007C007C
007C007C
007C007C
007C007C
007C007C
003E007C
003E00FC
003F00F8
001F83F8
001FFFF0
000FFFE0
0003FFC0
0000FF00
ENDCHAR
STARTCHAR uni2000
ENCODING 8192
SWIDTH 500 0
DWIDTH 16 0
BBX 1 1 0 0
BITMAP
00
ENDCHAR
STARTCHAR uni2001
ENCODING 8193
SWIDTH 1000 0
DWIDTH 32 0
BBX 1 1 0 0
BITMAP
00
ENDCHAR
STARTCHAR uni2002
ENCODING 8194
SWIDTH 500 0
DWIDTH 16 0
BBX 1 1 0 0
BITMAP
00
ENDCHAR
STARTCHAR uni2003
ENCODING 8195
SWIDTH 1000 0
DWIDTH 32 0
BBX 1 1 0 0
BITMAP
00
ENDCHAR
STARTCHAR uni2004
ENCODING 8196
SWIDTH 333 0
DWIDTH 11 0
BBX 1 1 0 0
BITMAP
00
ENDCHAR
STARTCHAR uni2005
ENCODING 8197
SWIDTH 250 0
DWIDTH 8 0
BBX 1 1 0 0
BITMAP
00
ENDCHAR
STARTCHAR uni2006
ENCODING 8198
SWIDTH 166 0
DWIDTH 5 0
BBX 1 1 0 0
BITMAP
00
ENDCHAR
STARTCHAR uni2007
ENCODING 8199
SWIDTH 559 0
DWIDTH 18 0
BBX 1 1 0 0
BITMAP
00
ENDCHAR
STARTCHAR uni2008
ENCODING 8200
SWIDTH 285 0
DWIDTH 9 0
BBX 1 1 0 0
BITMAP
00
ENDCHAR
STARTCHAR uni2009
ENCODING 8201
SWIDTH 200 0
DWIDTH 6 0
BBX 1 1 0 0
BITMAP
00
ENDCHAR
STARTCHAR uni200A
ENCODING 8202
SWIDTH 100 0
DWIDTH 3 0
BBX 1 1 0 0
BITMAP
00
ENDCHAR
STARTCHAR uni200B
ENCODING 8203
SWIDTH 0 0
DWIDTH 0 0
BBX 1 1 0 0
BITMAP
00
ENDCHAR
STARTCHAR endash
ENCODING 8211
SWIDTH 500 0
DWIDTH 16 0
BBX 14 4 1 6
BITMAP
FFFC
FFFC
FFFC
FFFC
ENDCHAR
STARTCHAR emdash
ENCODING 8212
SWIDTH 1000 0
DWIDTH 32 0
BBX 30 4 1 6
BITMAP
FFFFFFFC
FFFFFFFC
FFFFFFFC
FFFFFFFC
ENDCHAR
STARTCHAR afii00208
ENCODING 8213
SWIDTH 1000 0
DWIDTH 32 0
BBX 30 4 1 6
BITMAP
FFFFFFFC
FFFFFFFC
FFFFFFFC
FFFFFFFC
ENDCHAR
STARTCHAR underscoredbl
ENCODING 8215
SWIDTH 411 0
DWIDTH 13 0
BBX 13 6 0 -7
BITMAP
FFF8
FFF8
0000
0000
FFF8
FFF8
ENDCHAR
STARTCHAR quoteleft
ENCODING 8216
SWIDTH 216 0
DWIDTH 7 0
BBX 7 8 0 15
BITMAP
1E
1C
3C
3C
7C
78
78
F8
ENDCHAR
STARTCHAR quoteright
ENCODING 8217
SWIDTH 216 0
DWIDTH 7 0
BBX 7 8 0 15
BITMAP
3E
3C
7C
7C
78
78
70
F0
ENDCHAR
STARTCHAR quotesinglbase
ENCODING 8218
SWIDTH 291 0
DWIDTH 9 0
BBX 6 8 1 -4
BITMAP
7C
7C
7C
78
78
70
F0
F0
ENDCHAR
STARTCHAR quotereversed
ENCODING 8219
SWIDTH 215 0
DWIDTH 7 0
BBX 6 8 1 15
BITMAP
F0
F0
F0
F8
78
78
38
3C
ENDCHAR
STARTCHAR quotedblleft
ENCODING 8220
SWIDTH 444 0
DWIDTH 14 0
BBX 14 8 0 15
BITMAP
1E3C
1C38
3C78
3C78
7CF8
78F0
78F0
F9F0
ENDCHAR
STARTCHAR quotedblright
ENCODING 8221
SWIDTH 444 0
DWIDTH 14 0
BBX 14 8 0 15
BITMAP
3E7C
3C78
7CF8
7CF8
78F0
78F0
70E0
F1E0
ENDCHAR
STARTCHAR quotedblbase
ENCODING 8222
SWIDTH 518 0
DWIDTH 17 0
BBX 13 8 1 -4
BITMAP
7CF8
7CF8
7CF8
78F0
78F0
70E0
F1E0
F1E0
ENDCHAR
STARTCHAR dagger
ENCODING 8224
SWIDTH 516 0
DWIDTH 17 0
BBX 13 24 2 0
BITMAP
0F00
0F00
0F00
0700
0700
0700
FFF8
FFF8
FFF8
E738
0700
0700
0700
0700
0700
0700
0700
0F00
0F00
0F00
0F00
0F00
0F00
0F00
ENDCHAR
ENDFONT
